<?xml version="1.0" encoding="utf-8"?>
<!-- Generator: Adobe Illustrator 25.2.3, SVG Export Plug-In . SVG Version: 6.00 Build 0)  -->
<svg version="1.1" id="Layer_1" xmlns="http://www.w3.org/2000/svg" xmlns:xlink="http://www.w3.org/1999/xlink" x="0px" y="0px"
	 viewBox="0 0 32 32" style="enable-background:new 0 0 32 32;" xml:space="preserve">
<style type="text/css">
	.st0{fill:none;}
</style>
<path d="M21.9,23.1L21.9,23.1L21.9,23.1C21.9,23.1,21.9,23.1,21.9,23.1z M8.9,22.7c0.1,0,0.2,0.1,0.4,0.1L8.9,22.7z M17,9.1
	c-0.1-0.3-0.3-0.5-0.4-0.6c-0.1-0.1-0.3-0.2-0.6-0.2c-0.3,0-0.5,0.1-0.6,0.2c-0.1,0.1-0.3,0.3-0.4,0.6c-0.1,0.3-0.7,2-1.4,4.1h4.8
	C17.7,11,17.1,9.4,17,9.1z M9.2,22.8l0.4,0.1C9.5,22.9,9.4,22.8,9.2,22.8z M23.1,22.7l-0.4,0.1C22.9,22.7,23,22.7,23.1,22.7z M32,16
	c0,8.8-7.2,16-16,16S0,24.8,0,16C0,7.2,7.2,0,16,0S32,7.2,32,16z M7.3,14.1c0,0.5,0.4,1,1,1h2.6h2h6.2h2h2.6c0.5,0,1-0.4,1-1
	c0-0.5-0.4-1-1-1h-3.3c-0.8-2.4-1.5-4.3-1.6-4.7c-0.2-0.6-0.5-1.2-1.1-1.5c-0.5-0.4-1.1-0.6-1.8-0.6s-1.3,0.2-1.8,0.6
	c-0.5,0.4-0.9,0.9-1.1,1.5c-0.1,0.4-0.8,2.3-1.6,4.7H8.3C7.7,13.1,7.3,13.5,7.3,14.1z M24.8,18c0-0.5-0.4-1-1-1h-2h-2h-7.5h-2h-2
	c-0.5,0-1,0.4-1,1c0,0.5,0.4,1,1,1h1.3L9,20.4l-0.5,1.5l-0.2,0.6c-0.2,0.5,0.1,1.1,0.6,1.2c0.5,0.2,1.1-0.1,1.2-0.6l0.2-0.6l0.5-1.5
	c0.2-0.6,0.5-1.3,0.7-2.1h8.8c0.3,0.8,0.5,1.5,0.7,2.1l0.5,1.5l0.2,0.5c0,0,0,0,0,0l0,0l0,0.1c0.2,0.5,0.7,0.8,1.2,0.6
	s0.8-0.7,0.6-1.2l-0.2-0.6L23,20.4l-0.5-1.5h1.3C24.3,18.9,24.8,18.5,24.8,18z M22.4,22.9l0.4-0.1C22.6,22.8,22.5,22.9,22.4,22.9z"
	/>
</svg>
