<?xml version="1.0" encoding="utf-8"?>
<!-- Generator: Adobe Illustrator 25.2.0, SVG Export Plug-In . SVG Version: 6.00 Build 0)  -->
<svg version="1.1" id="Layer_1" xmlns="http://www.w3.org/2000/svg" xmlns:xlink="http://www.w3.org/1999/xlink" x="0px" y="0px"
	 viewBox="0 0 75 75" style="enable-background:new 0 0 75 75;" xml:space="preserve">
<style type="text/css">
	.st0{fill:#FFFFFF;}
	.st1{clip-path:url(#SVGID_2_);}
	.st2{fill:#69E2DC;}
</style>
<circle class="st0" cx="37.5" cy="37.5" r="26.8"/>
<g id="Layer_2_1_">
	<g id="Layer_1-2">
		<g>
			<defs>
				<rect id="SVGID_1_" width="75" height="75"/>
			</defs>
			<clipPath id="SVGID_2_">
				<use xlink:href="#SVGID_1_"  style="overflow:visible;"/>
			</clipPath>
			<g class="st1">
				<path class="st2" d="M40.5,39.3l13.1,13.1c1,1,1,2.6,0,3.5c-0.1,0.1-0.2,0.1-0.2,0.2c-10.3,8.1-25.3,6.3-33.4-4
					s-6.3-25.3,4-33.4c8.6-6.8,20.8-6.8,29.4,0.1c1.1,0.9,1.2,2.4,0.3,3.5c-0.1,0.1-0.1,0.1-0.2,0.2L40.5,35.7
					c-0.2,0.2-0.4,0.5-0.5,0.8c-0.1,0.3-0.2,0.7-0.2,1c0,0.3,0.1,0.7,0.2,1C40.1,38.8,40.3,39.1,40.5,39.3L40.5,39.3z M37.5,0
					C16.8,0,0,16.8,0,37.5S16.8,75,37.5,75S75,58.2,75,37.5S58.2,0,37.5,0z"/>
			</g>
		</g>
	</g>
</g>
</svg>
