<?xml version="1.0" encoding="utf-8"?>
<!-- Generator: Adobe Illustrator 25.2.0, SVG Export Plug-In . SVG Version: 6.00 Build 0)  -->
<svg version="1.1" id="layer" xmlns="http://www.w3.org/2000/svg" xmlns:xlink="http://www.w3.org/1999/xlink" x="0px" y="0px"
	 viewBox="0 0 99.9 115.2" style="enable-background:new 0 0 99.9 115.2;" xml:space="preserve">
<style type="text/css">
	.st0{fill:#FFFFFF;}
	.st1{fill:#03316C;}
</style>
<path class="st0" d="M50,0L0.1,28.8v57.6L50,115.2l49.9-28.8V28.8L50,0z M50,0L0.1,28.8v57.6L50,115.2l49.9-28.8V28.8L50,0z"/>
<path class="st1" d="M69.7,92.7h-7.1l-8.5-7.8v-4l8.8-8.4V59.2l11.5-7.5l13.1,9.9L69.7,92.7z M40.3,71.7l1.3-12.5L37.3,48h25.4
	l-4.2,11.2l1.2,12.5h-9.8H40.3z M46.1,84.9l-8.5,7.9h-7.2L12.5,61.6l13.2-9.8l11.6,7.4v13.3l8.8,8.4C46.1,80.9,46.1,84.9,46.1,84.9z
	 M30.3,24.9h39.3l4.7,20H25.7L30.3,24.9z M50,0L0.1,28.8v57.6L50,115.2l49.9-28.8V28.8L50,0z"/>
</svg>
