<?xml version="1.0" encoding="utf-8"?>
<!-- Generator: Adobe Illustrator 25.3.0, SVG Export Plug-In . SVG Version: 6.00 Build 0)  -->
<svg version="1.1" id="Layer_1" xmlns="http://www.w3.org/2000/svg" xmlns:xlink="http://www.w3.org/1999/xlink" x="0px" y="0px"
	 viewBox="0 0 32 32" style="enable-background:new 0 0 32 32;" xml:space="preserve">
<path d="M16,0C7.2,0,0,7.2,0,16s7.2,16,16,16s16-7.2,16-16S24.8,0,16,0z M16.2,4c0-0.1-0.4,0.8-0.4,0.7c0.3-0.4,0.6-0.7,0.9-1.1
	c-0.6,1.1-2.1,4.7-2.6,5.9c-0.3,0.6-0.5,1.2-0.8,1.8c-0.2,0.6-0.5,1.2-0.7,1.8c-0.2,0.6-0.4,1.2-0.7,1.8c-0.2,0.6-0.4,1.2-0.6,1.8
	c-0.4,1.2-0.7,2.5-1,3.7l11.1-0.1c-1.3,0.2-2.5,0.7-3.8,0.9c-0.6,0.1-1.3,0.2-1.9,0.3s-1.3,0.2-1.9,0.3s-1.3,0.2-1.9,0.3
	c-0.6,0.1-1.3,0.2-1.9,0.3c-1.3,0.2-2.5,0.3-3.8,0.5C8.2,17.3,12.3,8.6,16.2,4z M4.9,23.9c-0.1,0,0.9,0,0.8,0
	c-0.5-0.1-0.9-0.2-1.4-0.3c1.3,0,5.1-0.6,6.4-0.7c0.6-0.1,1.3-0.1,1.9-0.2s1.3-0.2,1.9-0.3c0.6-0.1,1.3-0.2,1.9-0.3
	c0.6-0.1,1.3-0.3,1.9-0.4c1.3-0.3,2.5-0.6,3.7-1l-5.7-9.5c0.8,1,1.9,1.8,2.7,2.8c0.4,0.5,0.8,1,1.2,1.5s0.8,1,1.2,1.5
	c0.4,0.5,0.8,1,1.2,1.5c0.4,0.5,0.8,1,1.2,1.5c0.8,1,1.6,2,2.3,3C20.4,24.1,10.8,24.9,4.9,23.9z M23.9,19.2c-0.4-0.5-0.8-1-1.2-1.5
	c-0.4-0.5-0.8-1-1.2-1.5s-0.8-1-1.2-1.5c-0.4-0.5-0.8-1-1.3-1.4c-0.9-0.9-1.8-1.9-2.7-2.7l-5.4,9.7c0.4-1.2,0.7-2.5,1.1-3.7
	c0.2-0.6,0.4-1.2,0.6-1.8c0.2-0.6,0.4-1.2,0.7-1.8c0.2-0.6,0.5-1.2,0.7-1.8s0.5-1.2,0.7-1.8c0.5-1.2,1-2.4,1.5-3.6
	c4,4.5,9.4,12.4,11.5,18c0,0.1-0.5-0.8-0.4-0.7c0.2,0.5,0.3,0.9,0.5,1.4C27.1,23.3,24.7,20.2,23.9,19.2z"/>
</svg>
