<?xml version="1.0" encoding="utf-8"?>
<!-- Generator: Adobe Illustrator 25.2.0, SVG Export Plug-In . SVG Version: 6.00 Build 0)  -->
<svg version="1.1" id="Layer_1" xmlns="http://www.w3.org/2000/svg" xmlns:xlink="http://www.w3.org/1999/xlink" x="0px" y="0px"
	 viewBox="0 0 500 500" style="enable-background:new 0 0 500 500;" xml:space="preserve">
<style type="text/css">
	.st0{fill:#FFFFFF;}
	.st1{fill:#007AFF;}
	.st2{fill:#007AFF;enable-background:new    ;}
</style>
<circle class="st0" cx="250" cy="250" r="250"/>
<g>
	<g>
		<path class="st0" d="M165.7,422.5c-15.2,0-27.5-12.3-27.5-27.5V264.1c0-15.2,12.3-27.5,27.5-27.5h168.6
			c15.2,0,27.5,12.3,27.5,27.5V395c0,15.2-12.3,27.5-27.5,27.5H165.7z"/>
		<path class="st1" d="M334.3,248.1c8.8,0,16,7.2,16,16V395c0,8.8-7.2,16-16,16H165.7c-8.8,0-16-7.2-16-16V264.1c0-8.8,7.2-16,16-16
			H334.3 M334.3,225.1H165.7c-21.5,0-39,17.5-39,39V395c0,21.5,17.5,39,39,39h168.6c21.5,0,39-17.5,39-39V264.1
			C373.3,242.6,355.8,225.1,334.3,225.1L334.3,225.1z"/>
	</g>
	<g>
		<path class="st0" d="M187.5,236.4c-3.1,0-6-1.2-8.1-3.4c-2.2-2.2-3.4-5.1-3.4-8.1l0-72.6c0-0.8,0.1-18.7,8.8-36.7
			c8.4-17.4,26.3-38.2,63.9-38.2c38.1,0,56.7,19.2,65.6,35.3c9.4,17,9.7,34,9.7,34.7c0,0.1,0,77.4,0,77.4c0,6.4-5.1,11.5-11.5,11.5
			H187.5z"/>
		<path class="st1" d="M248.7,89c62.9,0,63.8,58.7,63.8,58.7v77.2h-125c0,0,0-56.8,0-72.6C187.5,152.3,187.5,89,248.7,89 M248.7,66
			c-34,0-60.3,15.9-74.2,44.7c-9.7,20-9.9,39.5-9.9,41.7c0,15.8,0,72.6,0,72.6c0,6.1,2.4,12,6.7,16.3c4.3,4.3,10.2,6.7,16.3,6.7h125
			c12.7,0,23-10.3,23-23v-77.2c0-0.1,0-0.2,0-0.4c0-2.1-0.6-21-11.2-40.1c-6.6-12-15.7-21.7-27.1-28.7C283.7,70.2,267.3,66,248.7,66
			L248.7,66z"/>
	</g>
	<ellipse class="st2" cx="250" cy="344.9" rx="21.6" ry="22.3"/>
	<g>
		<path class="st1" d="M250,344.3c-2.8,0-5-2.2-5-5v-37.2c0-2.8,2.2-5,5-5c2.8,0,5,2.2,5,5v37.2C255,342.1,252.8,344.3,250,344.3z"
			/>
		<path class="st1" d="M250,302.1v37.2V302.1 M250,292.1c-5.5,0-10,4.5-10,10v37.2c0,5.5,4.5,10,10,10s10-4.5,10-10v-37.2
			C260,296.6,255.5,292.1,250,292.1L250,292.1z"/>
	</g>
</g>
</svg>
