<svg id="Layer_1" data-name="Layer 1" xmlns="http://www.w3.org/2000/svg" xmlns:xlink="http://www.w3.org/1999/xlink" viewBox="0 0 500 500"><defs><style>.cls-1,.cls-8{fill:none;}.cls-2,.cls-4{fill:#fff;}.cls-3{clip-path:url(#clip-path);}.cls-4,.cls-5,.cls-7{fill-rule:evenodd;}.cls-5{fill:#0e0f23;}.cls-6{clip-path:url(#clip-path-2);}.cls-7{fill:url(#linear-gradient);}.cls-8{stroke:#fff;stroke-linecap:round;stroke-linejoin:round;stroke-dashoffset:6.51px;stroke-width:6.51px;stroke-dasharray:13.02 13.02 162.75 162.75;}</style><clipPath id="clip-path"><circle class="cls-1" cx="250" cy="250" r="250"/></clipPath><clipPath id="clip-path-2"><path class="cls-1" d="M139.38,90.33c11.07-15.49,32.47-22.32,60.13-20.1,38.19,3.13,88.73,23.61,137.42,58.28,48.51,34.86,84.11,76.36,99.23,111.41,11.07,25.45,11.44,48,.37,63.45l-76,106.24c-11.07,15.5-32.65,22.32-60.13,20.11C262.23,426.4,211.5,406.11,163,371.25,114.3,336.57,78.89,295.07,63.58,260c-11.07-25.45-11.44-47.95-.37-63.45ZM426,295.81v-.19c8.86-12.17,7-30.25-1.66-50.54-14.57-33.38-48.7-72.67-95.18-105.87C282.89,106,234.75,86.27,198.41,83.32c-22.14-1.84-39.66,2.22-48.51,14.57l-.37.74c-8.3,12.36-6.46,29.88,2.21,49.8,14.57,33.57,48.7,72.86,95,106.06s94.43,52.94,130.77,55.89c21.76,1.66,38.92-2.21,48-13.83l.55-.93ZM307.6,169.28c23.24,16.6,40.4,36.33,47.59,53.12,4.24,9.4,5.35,17.7,1.11,23.42-4.06,5.72-12.36,7.38-22.5,6.46-18.27-1.48-42.24-11.44-65.48-28s-40.4-36.15-47.59-52.94c-4.06-9.4-5.17-17.7-1.11-23.42s12.36-7.38,22.69-6.64C260.38,142.9,284.55,152.68,307.6,169.28Z"/></clipPath><linearGradient id="linear-gradient" x1="0.11" y1="500.37" x2="0.96" y2="500.37" gradientTransform="matrix(60.56, 304.88, 304.88, -60.56, -152242.01, 30318.08)" gradientUnits="userSpaceOnUse"><stop offset="0" stop-color="#27b0e6"/><stop offset="0.52" stop-color="#c26bb3"/><stop offset="1" stop-color="#fa52a0"/></linearGradient></defs><circle class="cls-2" cx="250" cy="250" r="250"/><g class="cls-3"><g id="Icon-Logo"><rect class="cls-1" x="37.5" y="37.5" width="425" height="425"/><path class="cls-4" d="M441.64,306.87,365.39,413.15c-12,16.88-35.25,25-65.5,22.52-39-3.23-90.75-23.84-140.32-59.41s-85.73-78-101.48-113.84c-12-27.82-11.82-52.37.36-69.27L134.51,86.87C146.68,70,170,61.87,200,64.36c39,3.22,90.92,23.86,140.49,59.42s85.74,77.94,101.31,113.83c12.17,27.81,11.81,52.39-.18,69.26ZM154.92,101.48c7.87-10.92,23.62-13.75,43.13-12.13,35.62,2.93,82.51,22.33,127.79,54.8s78.75,70.69,93.07,103.45c7.69,18,10.2,33.77,2.32,44.69l10.21,7.28-10.21-7.28L345,398.56c-7.69,10.9-23.45,13.75-43,12.12-35.61-2.92-82.68-22.34-128-54.78S95.32,285.18,81.18,252.45c-7.88-18-10.21-33.79-2.33-44.69Z"/><path class="cls-4" d="M144.87,96.76C169.75,62,254.05,79.86,333.15,136.53s123.14,130.9,98.26,165.62L355.35,408.43c-24.88,34.72-109.36,16.9-188.47-39.79S43.75,237.76,68.63,203Z"/><path class="cls-5" d="M139.38,90.33c11.07-15.49,32.47-22.32,60.13-20.1,38.19,3.13,88.73,23.61,137.42,58.28,48.51,34.86,84.11,76.36,99.23,111.41,11.07,25.45,11.44,48,.37,63.45l-76,106.24c-11.07,15.5-32.65,22.32-60.13,20.11C262.23,426.4,211.5,406.11,163,371.25,114.3,336.57,78.89,295.07,63.58,260c-11.07-25.45-11.44-47.95-.37-63.45ZM426,295.81v-.19c8.86-12.17,7-30.25-1.66-50.54-14.57-33.38-48.7-72.67-95.18-105.87C282.89,106,234.75,86.27,198.41,83.32c-22.14-1.84-39.66,2.22-48.51,14.57l-.37.74c-8.3,12.36-6.46,29.88,2.21,49.8,14.57,33.57,48.7,72.86,95,106.06s94.43,52.94,130.77,55.89c21.76,1.66,38.92-2.21,48-13.83l.55-.93ZM307.6,169.28c23.24,16.6,40.4,36.33,47.59,53.12,4.24,9.4,5.35,17.7,1.11,23.42-4.06,5.72-12.36,7.38-22.5,6.46-18.27-1.48-42.24-11.44-65.48-28s-40.4-36.15-47.59-52.94c-4.06-9.4-5.17-17.7-1.11-23.42s12.36-7.38,22.69-6.64C260.38,142.9,284.55,152.68,307.6,169.28Z"/><g class="cls-6"><path class="cls-7" d="M39,299.36c2,0,5.35,4.81,7.2,6.12A227.23,227.23,0,0,0,65.7,319.05c19.36,11.81,39.47,18.37,59.39,14,31.35-7,59.76-61.68,91.3-54.24,17.71,3.93,30.25,28.87,45.75,45.93,14.75,17.06,31,24.5,47.4,21,48.88-9.62,67.32-105.87,116.94-100.62,41.13,4.37,25.09,53.81,64.56,71.31.37.44,95.36-83.13,96.1-97.56,2.76-55.56-50-710.06-47.59-710.06L69-318.39Z"/></g><path class="cls-8" d="M131.76,128.34c2,48.51,49.8,94.81,86.5,126.16,51.1,43.53,133.36,76.18,179.29,68.8"/></g></g></svg>