<?xml version="1.0" standalone="no"?>
<!DOCTYPE svg PUBLIC "-//W3C//DTD SVG 20010904//EN"
 "http://www.w3.org/TR/2001/REC-SVG-20010904/DTD/svg10.dtd">
<svg version="1.0" xmlns="http://www.w3.org/2000/svg"
 width="700.000000pt" height="700.000000pt" viewBox="0 0 700.000000 700.000000"
 preserveAspectRatio="xMidYMid meet">
<metadata>
Created by potrace 1.11, written by Peter Selinger 2001-2013
</metadata>
<g transform="translate(0.000000,700.000000) scale(0.100000,-0.100000)"
fill="#000000" stroke="none">
<path d="M6450 6254 c-74 -22 -132 -56 -185 -110 -40 -41 -270 -400 -470 -736
-5 -9 -26 -42 -45 -73 -19 -32 -44 -72 -55 -90 -11 -18 -83 -135 -160 -259
-77 -124 -147 -238 -156 -254 -9 -15 -130 -211 -269 -437 -139 -225 -325 -527
-413 -670 -88 -143 -165 -269 -171 -280 -6 -11 -21 -34 -33 -52 -13 -17 -23
-35 -23 -39 0 -4 -6 -15 -14 -23 -8 -9 -21 -27 -28 -41 -7 -14 -44 -75 -82
-137 l-69 -112 -126 158 c-69 88 -180 228 -246 311 -371 471 -364 464 -459
509 -167 79 -354 46 -482 -85 -24 -25 -127 -189 -259 -415 -120 -206 -238
-407 -262 -446 -23 -40 -43 -77 -43 -83 0 -5 -4 -10 -10 -10 -5 0 -10 -4 -10
-9 0 -6 -33 -65 -73 -133 -40 -68 -91 -153 -112 -191 -22 -37 -42 -66 -46 -65
-4 2 -121 114 -261 250 -304 297 -290 285 -355 315 -160 74 -347 44 -470 -76
-36 -35 -126 -178 -353 -556 -168 -281 -312 -522 -320 -536 -8 -15 -67 -112
-130 -217 -160 -265 -157 -260 -191 -331 -92 -192 -33 -406 149 -532 23 -17
42 -27 42 -23 0 3 6 1 14 -6 28 -22 119 -39 195 -36 113 6 206 49 283 131 30
32 198 297 231 364 4 9 15 28 25 43 19 31 312 518 327 545 22 40 89 149 98
161 7 9 41 -18 136 -112 424 -420 442 -436 541 -471 97 -34 234 -23 330 27 70
36 140 114 210 233 35 61 92 157 126 215 34 58 72 124 85 147 95 167 454 773
458 773 3 0 22 -22 41 -47 19 -26 71 -92 115 -148 43 -55 83 -104 87 -110 4
-5 45 -57 91 -115 46 -58 146 -184 222 -280 150 -190 159 -199 224 -241 57
-37 123 -58 191 -62 47 -3 73 0 155 17 6 1 37 15 69 31 64 33 134 100 174 167
15 25 137 224 272 442 135 218 252 409 261 424 9 15 224 365 479 777 254 413
470 764 480 780 10 17 117 192 240 390 122 198 228 371 236 385 8 14 22 37 32
52 21 34 163 262 213 345 124 201 101 420 -60 566 -101 91 -264 129 -391 91z"/>
</g>
</svg>
