<?xml version="1.0" encoding="utf-8"?>
<!-- Generator: Adobe Illustrator 25.2.0, SVG Export Plug-In . SVG Version: 6.00 Build 0)  -->
<svg version="1.1" id="Layer_1" xmlns="http://www.w3.org/2000/svg" xmlns:xlink="http://www.w3.org/1999/xlink" x="0px" y="0px"
	 viewBox="0 0 953.5 496.5" style="enable-background:new 0 0 953.5 496.5;" xml:space="preserve">
<path d="M705.5,0c-137,0-248,111-248,248s111,248,248,248s248-111,248-248S842.5,0,705.5,0z M705.5,448c-110.3,0-200-89.7-200-200
	s89.7-200,200-200s200,89.7,200,200S815.8,448,705.5,448z M789.5,304.6c-20.8,25-51.5,39.4-84,39.4s-63.2-14.3-84-39.4
	c-8.5-10.2-23.6-11.5-33.8-3.1c-10.2,8.5-11.5,23.6-3.1,33.8c30,36,74.1,56.6,120.9,56.6s90.9-20.6,120.9-56.6
	c8.5-10.2,7.1-25.3-3.1-33.8C813.1,293.1,798,294.4,789.5,304.6z M594,203c7.7-13.7,19.2-21.6,31.5-21.6s23.8,7.9,31.5,21.6l9.5,17
	c2.1,3.7,6.2,4.7,9.3,3.7c3.6-1.1,6-4.5,5.7-8.3c-3.3-42.1-32.2-71.4-56-71.4s-52.7,29.3-56,71.4c-0.3,3.7,2.1,7.2,5.7,8.3
	c3.4,1.1,7.4-0.5,9.3-3.7L594,203z M785.5,144c-23.8,0-52.7,29.3-56,71.4c-0.3,3.7,2.1,7.2,5.7,8.3c3.5,1.1,7.4-0.5,9.3-3.7l9.5-17
	c7.7-13.7,19.2-21.6,31.5-21.6s23.8,7.9,31.5,21.6l9.5,17c2.1,3.7,6.2,4.7,9.3,3.7c3.6-1.1,6-4.5,5.7-8.3
	C838.2,173.3,809.3,144,785.5,144z"/>
<g>
	<path d="M0,291.9v49.9c0,34.1,83.1,61.9,185.6,61.9s185.6-27.7,185.6-61.9v-49.9c-39.9,32.9-113,49.9-185.6,49.9
		S39.9,324.8,0,291.9z"/>
	<path d="M309.4,125.2c102.5,0,185.6-27.7,185.6-61.9S411.9,1.5,309.4,1.5S123.8,29.2,123.8,63.4
		C123.8,97.6,206.9,125.2,309.4,125.2z M245.4,98.8l15.8-26.4c1.2-1.9,3.1-3.2,5.4-3.5c2.2-0.3,4.5,0.5,6.1,2l8.8,8.6l13-22.3
		c1.2-2.1,3.4-3.4,5.8-3.6c2.4-0.2,4.8,0.9,6.3,2.8l11.9,15L351.8,17c2.1-3.4,6.6-4.5,10.1-2.4s4.5,6.6,2.4,10.1l-39,63.4
		c-1.3,2-3.4,3.3-5.8,3.5c-2.4,0.1-4.7-0.9-6.2-2.8L301.6,74l-12.4,21.1c-1.1,2-3.1,3.3-5.4,3.6c-2.2,0.3-4.5-0.5-6.1-2L269,88
		l-11,18.4c-1.4,2.3-3.8,3.6-6.3,3.6c-1.3,0-2.6-0.3-3.8-1C244.5,106.8,243.3,102.3,245.4,98.8z"/>
	<path d="M0,393.3v41.3c0,34.1,83.1,61.9,185.6,61.9s185.6-27.7,185.6-61.9v-41.3c-39.9,28.1-112.9,41.3-185.6,41.3
		S39.9,421.5,0,393.3z"/>
	<path d="M397.6,210.6c58-10.4,97.4-30.9,97.4-54.4v-41.3c-34.3,24.3-93.3,37.3-155.4,40.4C368.2,169.1,389.1,187.7,397.6,210.6z"/>
	<path d="M185.6,156.2C83.1,156.2,0,190.8,0,233.5s83.1,77.3,185.6,77.3s185.6-34.6,185.6-77.3C371.2,190.8,288.1,156.2,185.6,156.2
		z M250.4,188.1l-45.2,73.5c-1.5,2.4-4,3.9-6.7,4c-2.8,0.2-5.4-1-7.2-3.2l-13.6-17.2l-14.3,24.5c-1.3,2.3-3.6,3.8-6.2,4.1
		c-2.6,0.3-5.2-0.5-7.1-2.4l-10.3-10.1l-12.7,21.3c-1.6,2.7-4.4,4.1-7.3,4.1c-1.5,0-3-0.4-4.4-1.2c-4-2.4-5.3-7.6-2.9-11.7
		l18.3-30.6c1.3-2.2,3.6-3.7,6.2-4.1c2.6-0.3,5.2,0.5,7,2.4l10.2,10l15.1-25.8c1.4-2.4,3.9-4,6.7-4.2c2.8-0.2,5.5,1,7.3,3.2
		l13.7,17.4l38.9-63.1c2.5-4,7.7-5.2,11.7-2.8S252.9,184.1,250.4,188.1z"/>
	<path d="M402.2,302.6C457.6,291.9,495,272,495,249v-41.3c-22.4,15.9-55.4,26.7-92.8,33.4V302.6z"/>
</g>
</svg>
