<svg xmlns="http://www.w3.org/2000/svg" xmlns:xlink="http://www.w3.org/1999/xlink" viewBox="0 0 150 100"><defs><style>.cls-1{fill:none;}.cls-2{isolation:isolate;}.cls-3{clip-path:url(#clip-path);}.cls-4{fill:url(#linear-gradient);}.cls-5{fill:url(#linear-gradient-2);}.cls-6{fill:url(#linear-gradient-3);}.cls-7{fill:url(#linear-gradient-4);}.cls-8{fill:url(#linear-gradient-5);}.cls-9{fill:url(#linear-gradient-6);}.cls-10{fill:url(#linear-gradient-7);}.cls-11{fill:url(#linear-gradient-8);}.cls-12{fill:url(#linear-gradient-9);}.cls-13{fill:url(#linear-gradient-10);}.cls-14{fill:url(#linear-gradient-11);}.cls-15{fill:url(#linear-gradient-12);}.cls-16{fill:url(#linear-gradient-13);}.cls-17{fill:url(#linear-gradient-14);}.cls-18{fill:url(#linear-gradient-15);}.cls-19{fill:url(#linear-gradient-16);}.cls-20{fill:url(#linear-gradient-17);}.cls-21{fill:url(#linear-gradient-18);}.cls-22{fill:url(#linear-gradient-19);}.cls-23{fill:url(#linear-gradient-20);}.cls-24{fill:url(#linear-gradient-21);}.cls-25{fill:url(#linear-gradient-22);}.cls-26{fill:url(#linear-gradient-23);}.cls-27{fill:url(#linear-gradient-24);}.cls-28{fill:url(#linear-gradient-25);}.cls-29{fill:url(#linear-gradient-26);}.cls-30{fill:url(#linear-gradient-27);}.cls-31{fill:url(#linear-gradient-28);}.cls-32{fill:url(#linear-gradient-29);}.cls-33{fill:url(#linear-gradient-30);}.cls-34{fill:url(#linear-gradient-31);}.cls-35{fill:url(#linear-gradient-32);}.cls-36{fill:url(#linear-gradient-33);}.cls-37{fill:url(#linear-gradient-34);}.cls-38{fill:url(#linear-gradient-35);}.cls-39{fill:url(#linear-gradient-36);}.cls-40{fill:url(#linear-gradient-37);}.cls-41{fill:url(#linear-gradient-38);}.cls-42{clip-path:url(#clip-path-2);}.cls-43{clip-path:url(#clip-path-3);}.cls-44,.cls-45,.cls-46,.cls-47{opacity:0.3;mix-blend-mode:multiply;}.cls-44{fill:url(#linear-gradient-39);}.cls-45{fill:url(#linear-gradient-40);}.cls-46{fill:url(#linear-gradient-41);}.cls-47{fill:url(#linear-gradient-42);}</style><clipPath id="clip-path"><rect class="cls-1" width="150" height="100"/></clipPath><linearGradient id="linear-gradient" x1="-19.26" y1="44.16" x2="154.96" y2="44.16" gradientUnits="userSpaceOnUse"><stop offset="0" stop-color="#efc190"/><stop offset="0.54" stop-color="#efbc87"/><stop offset="0.57" stop-color="#efbc86"/><stop offset="0.87" stop-color="#efbc86"/><stop offset="0.99" stop-color="#c4925d"/></linearGradient><linearGradient id="linear-gradient-2" x1="-18.42" y1="44.92" x2="155.02" y2="44.92" xlink:href="#linear-gradient"/><linearGradient id="linear-gradient-3" x1="-17.58" y1="45.69" x2="155.08" y2="45.69" xlink:href="#linear-gradient"/><linearGradient id="linear-gradient-4" x1="-16.88" y1="46.46" x2="155.14" y2="46.46" xlink:href="#linear-gradient"/><linearGradient id="linear-gradient-5" x1="-17.22" y1="47.23" x2="155.19" y2="47.23" xlink:href="#linear-gradient"/><linearGradient id="linear-gradient-6" x1="-17.56" y1="48.01" x2="155.25" y2="48.01" xlink:href="#linear-gradient"/><linearGradient id="linear-gradient-7" x1="-17.9" y1="48.79" x2="155.31" y2="48.79" xlink:href="#linear-gradient"/><linearGradient id="linear-gradient-8" x1="-18.24" y1="49.57" x2="155.37" y2="49.57" xlink:href="#linear-gradient"/><linearGradient id="linear-gradient-9" x1="-18.58" y1="50.36" x2="155.43" y2="50.36" xlink:href="#linear-gradient"/><linearGradient id="linear-gradient-10" x1="-18.92" y1="51.16" x2="155.49" y2="51.16" xlink:href="#linear-gradient"/><linearGradient id="linear-gradient-11" x1="-19.25" y1="51.96" x2="155.55" y2="51.96" xlink:href="#linear-gradient"/><linearGradient id="linear-gradient-12" x1="-19.59" y1="52.77" x2="155.61" y2="52.77" xlink:href="#linear-gradient"/><linearGradient id="linear-gradient-13" x1="-19.93" y1="53.59" x2="155.67" y2="53.59" xlink:href="#linear-gradient"/><linearGradient id="linear-gradient-14" x1="-19.28" y1="54.45" x2="155.72" y2="54.45" xlink:href="#linear-gradient"/><linearGradient id="linear-gradient-15" x1="-19.64" y1="55.28" x2="155.78" y2="55.28" xlink:href="#linear-gradient"/><linearGradient id="linear-gradient-16" x1="-20" y1="56.12" x2="155.84" y2="56.12" xlink:href="#linear-gradient"/><linearGradient id="linear-gradient-17" x1="-7.32" y1="61.56" x2="155.89" y2="61.56" xlink:href="#linear-gradient"/><linearGradient id="linear-gradient-18" x1="-7.71" y1="61.55" x2="155.94" y2="61.55" xlink:href="#linear-gradient"/><linearGradient id="linear-gradient-19" x1="-8.1" y1="61.55" x2="155.99" y2="61.55" xlink:href="#linear-gradient"/><linearGradient id="linear-gradient-20" x1="-8.49" y1="61.56" x2="156.04" y2="61.56" xlink:href="#linear-gradient"/><linearGradient id="linear-gradient-21" x1="-8.87" y1="61.57" x2="156.08" y2="61.57" xlink:href="#linear-gradient"/><linearGradient id="linear-gradient-22" x1="-9.26" y1="61.6" x2="156.11" y2="61.6" xlink:href="#linear-gradient"/><linearGradient id="linear-gradient-23" x1="-9.64" y1="61.63" x2="156.15" y2="61.63" xlink:href="#linear-gradient"/><linearGradient id="linear-gradient-24" x1="-10.02" y1="61.68" x2="156.22" y2="61.68" xlink:href="#linear-gradient"/><linearGradient id="linear-gradient-25" x1="-10.39" y1="61.73" x2="156.3" y2="61.73" xlink:href="#linear-gradient"/><linearGradient id="linear-gradient-26" x1="-10.82" y1="61.79" x2="156.37" y2="61.79" xlink:href="#linear-gradient"/><linearGradient id="linear-gradient-27" x1="-11.77" y1="61.85" x2="156.44" y2="61.85" xlink:href="#linear-gradient"/><linearGradient id="linear-gradient-28" x1="-13" y1="61.92" x2="156.51" y2="61.92" xlink:href="#linear-gradient"/><linearGradient id="linear-gradient-29" x1="-13.8" y1="61.99" x2="156.58" y2="61.99" xlink:href="#linear-gradient"/><linearGradient id="linear-gradient-30" x1="-14.88" y1="62.05" x2="156.64" y2="62.05" xlink:href="#linear-gradient"/><linearGradient id="linear-gradient-31" x1="-15.99" y1="62.13" x2="156.71" y2="62.13" xlink:href="#linear-gradient"/><linearGradient id="linear-gradient-32" x1="-17.12" y1="62.21" x2="156.77" y2="62.21" xlink:href="#linear-gradient"/><linearGradient id="linear-gradient-33" x1="-18.28" y1="62.28" x2="156.83" y2="62.28" xlink:href="#linear-gradient"/><linearGradient id="linear-gradient-34" x1="-19.4" y1="62.34" x2="156.89" y2="62.34" xlink:href="#linear-gradient"/><linearGradient id="linear-gradient-35" x1="-14.33" y1="62.41" x2="156.95" y2="62.41" xlink:href="#linear-gradient"/><linearGradient id="linear-gradient-36" x1="-14.72" y1="62.48" x2="157.01" y2="62.48" xlink:href="#linear-gradient"/><linearGradient id="linear-gradient-37" x1="-15.12" y1="62.56" x2="157.07" y2="62.56" xlink:href="#linear-gradient"/><linearGradient id="linear-gradient-38" x1="-8.09" y1="62.62" x2="157.14" y2="62.62" xlink:href="#linear-gradient"/><clipPath id="clip-path-2"><rect class="cls-1" x="-136" width="100" height="100"/></clipPath><clipPath id="clip-path-3"><rect class="cls-1" x="-161" width="150" height="100"/></clipPath><linearGradient id="linear-gradient-39" x1="-1347.84" y1="100.64" x2="-1155.7" y2="100.64" gradientTransform="translate(1167.85 -42.12) rotate(-0.64)" gradientUnits="userSpaceOnUse"><stop offset="0" stop-color="#768698"/><stop offset="0.03" stop-color="#8896a6"/><stop offset="0.12" stop-color="#b3bcc6"/><stop offset="0.2" stop-color="#d4d9df"/><stop offset="0.28" stop-color="#eceef0"/><stop offset="0.35" stop-color="#fafbfb"/><stop offset="0.41" stop-color="#fff"/></linearGradient><linearGradient id="linear-gradient-40" x1="-1335.14" y1="49.38" x2="-1143" y2="49.38" xlink:href="#linear-gradient-39"/><linearGradient id="linear-gradient-41" x1="-1024.38" y1="358.7" x2="-1024.38" y2="302.84" gradientTransform="translate(944.23 -276.01) rotate(0.11)" xlink:href="#linear-gradient-39"/><linearGradient id="linear-gradient-42" x1="635.74" y1="-40.29" x2="825.31" y2="-40.29" gradientTransform="matrix(-0.99, 0.16, 0.16, 0.99, 641.75, -16.99)" xlink:href="#linear-gradient-39"/></defs><g class="cls-2"><g id="BACKGROUND_2" data-name="BACKGROUND 2"><g class="cls-3"><path class="cls-4" d="M-15.8-4.79A18.71,18.71,0,0,1-3.39,5.63,32.3,32.3,0,0,1-.82,22.15C-1.47,29.32-3.9,36.2-6.26,42.86L-16.63,72.17c-1.11,3.13-2.26,6.36-2.38,9.74-.13,3.71,1.18,7.08,3.49,9,4.74,3.92,12,1.4,16.85-2.6,7.81-6.54,12.55-16.17,16.73-24.67S27,45.43,34.82,38.86c7-5.92,18.81-9.73,28-4.11,5.23,3.2,8.42,8.72,11.5,14,.4.7.81,1.4,1.21,2.08,3.22,5.47,7.81,11.95,14.8,13.48,4.5,1,9.62-.18,15.68-3.57,1.43-.8,2.86-1.68,4.25-2.53A52.18,52.18,0,0,1,120.55,53,26.05,26.05,0,0,1,155,77.38h-.24a25.81,25.81,0,0,0-34.09-24.2,52.34,52.34,0,0,0-10.25,5.29c-1.38.85-2.81,1.73-4.25,2.53-6.11,3.42-11.29,4.59-15.85,3.6C83.2,63,78.57,56.52,75.32,51l-1.21-2.09C71,43.61,67.87,38.12,62.69,35,53.6,29.39,42,33.18,35,39c-7.77,6.54-12.51,16.18-16.7,24.7S9.34,81.91,1.48,88.48C-1.66,91.11-5.89,93.1-9.79,93.1a9,9,0,0,1-5.88-2c-2.37-2-3.71-5.4-3.58-9.19a33,33,0,0,1,2.39-9.81L-6.48,42.77c2.35-6.63,4.78-13.5,5.42-20.64.93-10.3-2.39-23.46-14.8-26.68"/><path class="cls-5" d="M-16.14-2.53c.42.1.83.22,1.24.35A18.39,18.39,0,0,1-3.64,8,31.25,31.25,0,0,1-1.21,23.34c-.5,6.23-2.42,12.22-4.34,17.82-.22.67-.45,1.33-.68,2l0,.13c-3.41,9.87-6.49,18.89-9.42,27.56l-.27.81a33.07,33.07,0,0,0-2.2,9.57c-.1,3.66,1.2,7,3.46,8.88,3.21,2.71,8.17,2.69,13.29,0a22.22,22.22,0,0,0,3.27-2.15C9.18,82,13.83,73.59,18.72,64l0,0c4.49-8.85,9.14-18,16.75-24.42A30.12,30.12,0,0,1,40.57,36c7.89-4.28,16.35-4.62,22.64-.91,3.91,2.31,6.59,5.86,8.49,8.71,1.1,1.63,2.13,3.35,3.13,5,.38.65.77,1.29,1.16,1.93,3.26,5.36,7.89,11.72,14.77,13.29a17.21,17.21,0,0,0,7.82-.2,32.57,32.57,0,0,0,7.68-3.07c1.43-.76,2.85-1.6,4.22-2.4a51.69,51.69,0,0,1,10.2-5,26.56,26.56,0,0,1,11.83-.94,27,27,0,0,1,11.42,4.42A25.72,25.72,0,0,1,155,77.08h-.24a25.49,25.49,0,0,0-11-20,26.71,26.71,0,0,0-11.32-4.38,26.42,26.42,0,0,0-11.73.93,51.39,51.39,0,0,0-10.14,5c-1.38.8-2.8,1.64-4.23,2.4a33,33,0,0,1-7.74,3.09,17.17,17.17,0,0,1-7.94.2c-7-1.58-11.63-8-14.92-13.4-.39-.63-.77-1.28-1.16-1.92-1-1.67-2-3.39-3.12-5-1.88-2.82-4.54-6.35-8.41-8.63-6.22-3.67-14.59-3.33-22.41.91a30.15,30.15,0,0,0-5,3.43C28.07,46.07,23.44,55.2,19,64l0,0C14,73.72,9.37,82.19,2,88.1a21.84,21.84,0,0,1-3.3,2.17,16.12,16.12,0,0,1-7.52,2.09,9.17,9.17,0,0,1-6-2.07c-2.32-2-3.65-5.34-3.55-9.08a33.47,33.47,0,0,1,2.21-9.64l.27-.81c2.93-8.67,6-17.69,9.43-27.56l0-.13.69-2c1.91-5.58,3.82-11.56,4.32-17.76C-.66,13.42-3.79,1.58-15-1.95c-.4-.13-.82-.24-1.23-.35"/><path class="cls-6" d="M-16.49-.28q.63.15,1.23.33A18,18,0,0,1-4.14,9.73,29.88,29.88,0,0,1-1.6,24.54c-.42,6-2.21,11.74-4,17.13l-.62,1.83-.06.2c-3.18,9.43-6,18.14-8.77,26.64l-.25.79a32.91,32.91,0,0,0-2,9.4A11.31,11.31,0,0,0-13.9,89.3c4.53,3.89,10.63,1.47,13,.25a21,21,0,0,0,3.22-2c7.44-5.69,12.3-14.23,17-23.22l.27-.5c4.47-8.55,9.1-17.39,16.52-23.67a30.87,30.87,0,0,1,5-3.45C49,32.41,57.36,32,63.6,35.51c3.05,1.73,5.67,4.32,8.51,8.41,1.13,1.62,2.2,3.35,3.23,5,.37.59.73,1.18,1.1,1.76,3.31,5.26,8,11.51,14.74,13.11a17.34,17.34,0,0,0,7.74-.1,32.42,32.42,0,0,0,7.6-2.87c1.41-.72,2.83-1.51,4.19-2.28a52,52,0,0,1,10.09-4.73,27.1,27.1,0,0,1,11.72-.8,27.68,27.68,0,0,1,11.36,4.34c6.67,4.49,11,11.94,11.2,19.43h-.25c-.22-7.42-4.47-14.79-11.09-19.24a27.63,27.63,0,0,0-11.25-4.3,26.79,26.79,0,0,0-11.62.8,51.4,51.4,0,0,0-10,4.7c-1.37.77-2.78,1.56-4.2,2.29A32.92,32.92,0,0,1,99,63.94a17.34,17.34,0,0,1-7.84.09c-6.86-1.62-11.56-7.91-14.89-13.21-.37-.58-.74-1.17-1.1-1.76-1-1.66-2.1-3.38-3.23-5-2.82-4.06-5.42-6.63-8.43-8.34-6.17-3.5-14.46-3.06-22.17,1.17a30.77,30.77,0,0,0-5,3.43c-7.39,6.25-12,15.06-16.47,23.59l-.26.5C14.86,73.43,10,82,2.51,87.72a22,22,0,0,1-3.26,2,16,16,0,0,1-7.14,1.9,9.22,9.22,0,0,1-6.17-2.18,11.5,11.5,0,0,1-3.51-9,32.7,32.7,0,0,1,2-9.46l.25-.81c2.72-8.49,5.59-17.21,8.77-26.64l.06-.19c.21-.62.41-1.23.62-1.84,1.8-5.37,3.58-11.11,4-17.07C-1.18,15-4.38,3.6-15.33.28c-.4-.12-.8-.23-1.21-.32"/><path class="cls-7" d="M-16.83,2q.61.13,1.2.3C-4.75,5.41-1.46,16.45-2,25.73-2.32,31.48-4,37-5.68,42.17l-.51,1.57-.12.38c-2.94,9-5.59,17.37-8.1,25.72l-.26.84a33,33,0,0,0-1.83,9.16,11.29,11.29,0,0,0,3.41,8.66C-10,91.23-5.31,91.43-.31,89a20.22,20.22,0,0,0,3.2-1.89C10.42,81.63,15.5,73,20.05,64.64l.51-1C25,55.43,29.63,46.9,36.85,40.77a30.82,30.82,0,0,1,5-3.44c7.67-4.28,16-4.81,22.17-1.43,3,1.64,5.66,4.14,8.51,8.1,1.17,1.62,2.28,3.34,3.35,5l1,1.6c3.35,5.15,8,11.28,14.71,12.91a17.29,17.29,0,0,0,7.65,0,32.07,32.07,0,0,0,7.51-2.67c1.41-.68,2.81-1.43,4.17-2.15a51.15,51.15,0,0,1,10-4.44,27.41,27.41,0,0,1,11.62-.66,28.54,28.54,0,0,1,11.28,4.25c6.67,4.36,11,11.51,11.32,18.64l-.25,0c-.3-7.07-4.6-14.14-11.2-18.45a28.1,28.1,0,0,0-11.19-4.22,27.27,27.27,0,0,0-11.52.65,51.42,51.42,0,0,0-9.92,4.42c-1.36.73-2.77,1.48-4.18,2.16a32.64,32.64,0,0,1-7.58,2.69,17.59,17.59,0,0,1-7.75,0c-6.74-1.65-11.48-7.83-14.86-13l-1-1.6c-1.07-1.66-2.18-3.38-3.34-5-2.84-3.92-5.44-6.4-8.44-8-6.13-3.34-14.33-2.81-21.94,1.43A30.87,30.87,0,0,0,37,41c-7.19,6.11-11.79,14.62-16.23,22.84l-.52,1C15.69,73.14,10.6,81.8,3,87.33A20,20,0,0,1-.21,89.25a15.65,15.65,0,0,1-6.72,1.69,9.35,9.35,0,0,1-6.32-2.26,11.52,11.52,0,0,1-3.49-8.84,33.33,33.33,0,0,1,1.84-9.23l.26-.84C-12.13,61.42-9.48,53-6.54,44l.12-.37.51-1.58c1.68-5.15,3.35-10.66,3.67-16.37C-1.7,16.53-5,5.61-15.69,2.51c-.39-.11-.79-.21-1.19-.29"/><path class="cls-8" d="M-17.17,4.24c.42.08.81.17,1.18.27C-5.34,7.39-2,18-2.39,26.92c-.24,5.51-1.79,10.8-3.35,15.75l-.59,1.87C-9,53-11.46,61.15-13.77,69.34l-.25.89a32.56,32.56,0,0,0-1.64,8.93,11.38,11.38,0,0,0,3.38,8.54c3,2.72,7.61,3,12.53.82a20.31,20.31,0,0,0,3.16-1.77c7.64-5.31,12.94-14,17.3-21.78l.78-1.4c4.44-8,9-16.18,16-22.16A31.41,31.41,0,0,1,42.45,38c7.58-4.27,15.78-4.9,21.94-1.69,3,1.57,5.65,4,8.53,7.8,1.21,1.61,2.36,3.33,3.47,5l1,1.43C81,55.87,85.53,61.58,92,63.23a17.42,17.42,0,0,0,7.56.12A32.4,32.4,0,0,0,107,60.87c1.4-.64,2.79-1.34,4.14-2A52,52,0,0,1,121,54.69a28.41,28.41,0,0,1,11.51-.52,29.45,29.45,0,0,1,11.21,4.18c6.67,4.23,11.05,11.07,11.43,17.85H155c-.38-6.7-4.72-13.47-11.32-17.66a29.2,29.2,0,0,0-11.12-4.14,27.93,27.93,0,0,0-11.41.52,52,52,0,0,0-9.82,4.13c-1.35.68-2.75,1.39-4.15,2a33,33,0,0,1-7.49,2.5A17.76,17.76,0,0,1,92,63.46C85.4,61.8,80.79,56,77.15,50.64l-1-1.43c-1.11-1.66-2.26-3.38-3.46-5-2.86-3.8-5.46-6.18-8.45-7.73-6.09-3.18-14.2-2.55-21.71,1.68a30.89,30.89,0,0,0-4.88,3.41c-7,6-11.56,14.16-16,22.1l-.78,1.4C16.54,72.87,11.23,81.61,3.54,87a19.18,19.18,0,0,1-3.2,1.79A15.5,15.5,0,0,1-6,90.22a9.51,9.51,0,0,1-6.46-2.34,11.62,11.62,0,0,1-3.46-8.72,32.42,32.42,0,0,1,1.65-9l.25-.9C-11.69,61.08-9.26,53-6.56,44.46L-6,42.6c1.56-4.94,3.1-10.21,3.34-15.69C-2.22,18.06-5.54,7.59-16,4.75c-.37-.1-.75-.19-1.17-.28"/><path class="cls-9" d="M-17.51,6.49c.41.08.79.16,1.16.26C-5.93,9.4-2.5,19.52-2.78,28.12c-.16,5.26-1.58,10.32-3,15.05L-6.35,45C-8.8,53-11,60.78-13.13,68.84l-.25.94a32.59,32.59,0,0,0-1.44,8.69,11.45,11.45,0,0,0,3.35,8.42C-7.39,90.61-2,89.19.8,88a19,19,0,0,0,3.13-1.65c7-4.55,12-11.7,17.44-21,.36-.61.71-1.23,1.07-1.85,4.4-7.66,9-15.58,15.77-21.42a32,32,0,0,1,4.87-3.42c7.47-4.27,15.59-5,21.71-1.95,3,1.49,5.64,3.8,8.53,7.49,1.26,1.6,2.46,3.33,3.61,5l.88,1.25C81.47,55.67,86.08,61.27,92.45,63a17.78,17.78,0,0,0,7.48.22,32,32,0,0,0,7.35-2.28c1.39-.59,2.78-1.26,4.13-1.9a51.3,51.3,0,0,1,9.75-3.86,28.8,28.8,0,0,1,11.4-.38,30.68,30.68,0,0,1,11.15,4.09c6.65,4.1,11.08,10.64,11.54,17.07H155c-.46-6.35-4.84-12.82-11.43-16.88a30.36,30.36,0,0,0-11.06-4,28.49,28.49,0,0,0-11.3.37,51.83,51.83,0,0,0-9.71,3.85c-1.34.64-2.74,1.31-4.13,1.9a32.14,32.14,0,0,1-7.41,2.3,17.92,17.92,0,0,1-7.58-.23c-6.45-1.69-11.09-7.34-14.78-12.64l-.87-1.25c-1.16-1.66-2.35-3.38-3.61-5-2.87-3.66-5.47-6-8.45-7.43-6.05-3-14.07-2.29-21.48,1.95a30.86,30.86,0,0,0-4.83,3.4C31.58,48,27,55.94,22.65,63.58c-.36.62-.71,1.24-1.07,1.85C16.12,74.81,11.05,82,4.06,86.57A19.8,19.8,0,0,1,.89,88.23a15.84,15.84,0,0,1-6,1.3,9.48,9.48,0,0,1-6.57-2.46,11.73,11.73,0,0,1-3.42-8.6,32.9,32.9,0,0,1,1.45-8.75l.25-1c2.11-8,4.33-15.87,6.78-23.89L-6,43.1c1.44-4.71,2.86-9.76,3-15C-2.75,19.61-6.13,9.6-16.41,7c-.36-.09-.74-.17-1.15-.25"/><path class="cls-10" d="M-17.86,8.75c.42.07.79.14,1.14.23C-6.52,11.4-3,21.07-3.17,29.31c-.08,5-1.38,9.85-2.7,14.36l-.5,1.71C-8.61,53-10.55,60.31-12.48,68.33l-.25,1A32.18,32.18,0,0,0-14,77.78a11.6,11.6,0,0,0,3.31,8.31c4,3.72,9.25,2.48,12,1.41A19.4,19.4,0,0,0,4.45,86C12,81.34,17.35,73.46,22,65.65l1.49-2.51c4.33-7.29,8.81-14.83,15.36-20.46a32.07,32.07,0,0,1,4.82-3.42c7.37-4.27,15.4-5.09,21.47-2.21,3,1.42,5.64,3.64,8.55,7.19,1.31,1.6,2.55,3.32,3.75,5l.78,1.08C82,55.46,86.63,61,92.88,62.67a18,18,0,0,0,7.39.32,31.39,31.39,0,0,0,7.27-2.08c1.38-.55,2.77-1.17,4.11-1.77a51,51,0,0,1,9.63-3.57,29.44,29.44,0,0,1,11.29-.25,31.88,31.88,0,0,1,11.08,4c6.55,3.9,11.13,10.3,11.66,16.28l-.24,0c-.53-5.91-5.06-12.23-11.54-16.1a31.89,31.89,0,0,0-11-4,29.32,29.32,0,0,0-11.19.24,51.64,51.64,0,0,0-9.6,3.56c-1.34.6-2.72,1.22-4.11,1.78a32.38,32.38,0,0,1-7.33,2.09,18.22,18.22,0,0,1-7.48-.33c-6.33-1.72-11-7.26-14.75-12.45l-.78-1.08c-1.2-1.66-2.44-3.38-3.75-5-2.89-3.53-5.5-5.73-8.46-7.13-6-2.85-13.95-2-21.25,2.2A31.68,31.68,0,0,0,39,42.87c-6.52,5.59-11,13.12-15.3,20.39l-1.5,2.51c-4.7,7.84-10.1,15.75-17.67,20.41a19,19,0,0,1-3.13,1.55,15.76,15.76,0,0,1-5.52,1.1,9.61,9.61,0,0,1-6.75-2.56,11.9,11.9,0,0,1-3.4-8.49A32.58,32.58,0,0,1-13,69.28l.24-1c1.93-8,3.88-15.33,6.12-23l.5-1.7c1.32-4.5,2.61-9.31,2.69-14.3.14-8.15-3.3-17.71-13.36-20.1L-17.9,9"/><path class="cls-11" d="M-18.2,11c.41.07.78.13,1.12.21,10,2.2,13.52,11.41,13.52,19.29A51,51,0,0,1-5.93,44.18l-.46,1.61c-2,7.15-3.73,14.16-5.45,22l-.24,1.08a32.74,32.74,0,0,0-1.07,8.18,11.84,11.84,0,0,0,3.29,8.2C-5.95,89-.81,88,1.91,87A19,19,0,0,0,5,85.59C12.62,81.17,18.23,73.2,22.7,66c.61-1,1.21-2,1.82-3,4.28-7,8.7-14.24,15.05-19.7a33.1,33.1,0,0,1,4.77-3.42c7.27-4.26,15.21-5.19,21.23-2.47a24.28,24.28,0,0,1,8.56,6.9c1.37,1.58,2.66,3.31,3.92,5l.67.89c4,5.31,8.48,10.45,14.58,12.17a18.18,18.18,0,0,0,7.3.44,32.18,32.18,0,0,0,7.19-1.89c1.38-.51,2.76-1.09,4.1-1.65A52,52,0,0,1,121.4,56a30.37,30.37,0,0,1,11.18-.1,33.14,33.14,0,0,1,11,3.92c6.54,3.78,11.17,9.86,11.78,15.5l-.24,0C154.52,69.78,150,63.77,143.47,60a33,33,0,0,0-10.93-3.9,30.1,30.1,0,0,0-11.09.11A52.34,52.34,0,0,0,112,59.5c-1.34.56-2.72,1.14-4.1,1.66a32.27,32.27,0,0,1-7.25,1.9,18.63,18.63,0,0,1-7.39-.44c-6.18-1.74-10.72-6.92-14.72-12.26l-.67-.9c-1.25-1.67-2.54-3.39-3.9-5a24.2,24.2,0,0,0-8.48-6.83c-5.95-2.68-13.81-1.76-21,2.46a33.18,33.18,0,0,0-4.74,3.39c-6.31,5.44-10.73,12.66-15,19.65l-1.81,3C18.42,73.35,12.79,81.35,5.09,85.8A18.67,18.67,0,0,1,2,87.22a15.25,15.25,0,0,1-5,.93,9.88,9.88,0,0,1-7-2.68,12.08,12.08,0,0,1-3.37-8.37,32.64,32.64,0,0,1,1.08-8.24l.23-1.08c1.73-7.89,3.46-14.9,5.46-22.05l.45-1.62A50.6,50.6,0,0,0-3.8,30.5c0-7.79-3.5-16.89-13.33-19-.34-.08-.7-.15-1.11-.21"/><path class="cls-12" d="M-18.54,13.26c.41.05.77.11,1.1.18,9.74,2,13.35,10.73,13.49,18.26a46.74,46.74,0,0,1-2,13l-.08.29-.33,1.24c-1.75,6.65-3.27,13.36-4.79,21.12l-.23,1.16a33,33,0,0,0-.88,7.91A12.07,12.07,0,0,0-9,84.49c3.64,3.52,8.27,3,11.51,2a18.87,18.87,0,0,0,3-1.27C13.29,81,19.14,72.9,23.36,66.32c.72-1.12,1.45-2.28,2.16-3.4,4.22-6.72,8.59-13.66,14.72-19A33.48,33.48,0,0,1,45,40.55c7.17-4.27,15-5.29,21-2.73a24,24,0,0,1,8.57,6.59c1.42,1.58,2.77,3.32,4.08,5l.55.71c4,5.19,8.58,10.24,14.56,12a18.42,18.42,0,0,0,7.21.54A32.55,32.55,0,0,0,108.05,61c1.37-.48,2.75-1,4.08-1.53a52.91,52.91,0,0,1,9.4-3,31.14,31.14,0,0,1,11.06,0,34.83,34.83,0,0,1,10.95,3.84c6.53,3.65,11.2,9.42,11.89,14.71l-.24,0c-.68-5.21-5.31-10.92-11.77-14.53a34.57,34.57,0,0,0-10.87-3.81,30.94,30.94,0,0,0-11,0,52.88,52.88,0,0,0-9.35,3c-1.34.52-2.71,1.06-4.09,1.53a32.62,32.62,0,0,1-7.16,1.7,18.54,18.54,0,0,1-7.31-.55C87.62,60.57,83,55.49,79,50.27l-.55-.71c-1.31-1.68-2.65-3.41-4.07-5A23.75,23.75,0,0,0,65.87,38C60,35.51,52.19,36.53,45.09,40.76a32.44,32.44,0,0,0-4.69,3.38c-6.1,5.28-10.46,12.21-14.68,18.91-.7,1.12-1.43,2.28-2.15,3.4-4.24,6.61-10.12,14.74-18,19a18.74,18.74,0,0,1-3.06,1.29A15.28,15.28,0,0,1-2,87.47a10.06,10.06,0,0,1-7.19-2.81,12.23,12.23,0,0,1-3.33-8.25,32.84,32.84,0,0,1,.89-8l.23-1.15c1.51-7.77,3-14.49,4.79-21.14l.33-1.24.08-.29a47.18,47.18,0,0,0,2-12.92c-.14-7.44-3.7-16.08-13.3-18-.33-.07-.68-.13-1.09-.18"/><path class="cls-13" d="M-18.89,15.51c.41.05.76.11,1.09.16,9.5,1.75,13.18,10,13.46,17.22A43.71,43.71,0,0,1-6.06,45.18l0,.1c-.11.45-.23.9-.34,1.35-1.53,6.22-2.8,12.45-4.12,20.2l-.12.67-.1.57a32.83,32.83,0,0,0-.7,7.64,12.23,12.23,0,0,0,3.23,8C-4.68,87.21-.15,86.87,3,86a17.68,17.68,0,0,0,3-1.15c8-4,14.11-12.28,18-18.17l2.5-3.82C30.69,56.39,35,49.74,40.92,44.59a34,34,0,0,1,4.67-3.4c7.07-4.26,14.83-5.38,20.77-3a23.64,23.64,0,0,1,8.58,6.29c1.49,1.58,2.9,3.32,4.27,5l.42.52C83.44,54.76,88,60,94.15,61.82a19,19,0,0,0,7.13.65,33.2,33.2,0,0,0,7-1.49c1.38-.44,2.75-.93,4.08-1.41a53.86,53.86,0,0,1,9.27-2.7,32.4,32.4,0,0,1,11,.17,36.53,36.53,0,0,1,10.87,3.76c6.52,3.52,11.23,9,12,13.93l-.24,0c-.76-4.88-5.43-10.28-11.89-13.76a36.62,36.62,0,0,0-10.8-3.73,32.38,32.38,0,0,0-10.87-.17,53.66,53.66,0,0,0-9.23,2.69c-1.33.48-2.71,1-4.08,1.41a33.75,33.75,0,0,1-7.08,1.5,19,19,0,0,1-7.22-.66c-6.19-1.87-10.81-7.11-14.64-11.88L79,49.65c-1.36-1.68-2.77-3.42-4.25-5a23.36,23.36,0,0,0-8.5-6.22c-5.87-2.37-13.55-1.25-20.55,3a32.76,32.76,0,0,0-4.64,3.38C35.18,49.9,30.89,56.54,26.73,63c-.82,1.26-1.66,2.57-2.5,3.83C20.31,72.7,14.16,81,6.12,85a17.33,17.33,0,0,1-3,1.17,15.26,15.26,0,0,1-4.15.61,10.09,10.09,0,0,1-7.35-3,12.46,12.46,0,0,1-3.3-8.13A32.71,32.71,0,0,1-11,68l.1-.57.12-.67C-9.47,59-8.2,52.8-6.66,46.58c.11-.46.22-.91.34-1.36l0-.1A42.91,42.91,0,0,0-4.59,32.9c-.26-7.08-3.89-15.26-13.26-17-.32-.06-.66-.11-1.07-.16"/><path class="cls-14" d="M-19.23,17.77c.41,0,.75.08,1.06.14,9.28,1.52,13,9.35,13.43,16.17a39.69,39.69,0,0,1-1.39,11.6c-.11.46-.21.92-.32,1.37-1.29,5.69-2.36,11.63-3.46,19.28,0,.21-.07.43-.1.65l-.1.69A33.25,33.25,0,0,0-10.64,75a12.5,12.5,0,0,0,3.21,7.87c3.48,3.52,7.91,3.34,11,2.56a16.09,16.09,0,0,0,3-1C12.69,81.61,18.46,76.06,24.69,67c1-1.39,1.92-2.85,2.86-4.25,4.1-6.16,8.34-12.53,14.05-17.51a34.05,34.05,0,0,1,4.62-3.39c7-4.26,14.64-5.48,20.53-3.25a23.28,23.28,0,0,1,8.6,6c1.55,1.58,3,3.33,4.46,5l.27.32c3.88,4.65,8.52,9.75,14.5,11.62a19.18,19.18,0,0,0,7,.75,33.31,33.31,0,0,0,7-1.29c1.37-.4,2.74-.85,4.07-1.28a54.16,54.16,0,0,1,9.14-2.41,33.51,33.51,0,0,1,10.85.31,38.56,38.56,0,0,1,10.8,3.67c6.51,3.39,11.27,8.54,12.13,13.14l-.24,0c-.85-4.53-5.56-9.62-12-13a38.44,38.44,0,0,0-10.74-3.64,33.24,33.24,0,0,0-10.76-.31A54.3,54.3,0,0,0,112.7,60c-1.33.44-2.7.89-4.07,1.28a33.91,33.91,0,0,1-7,1.3,19.5,19.5,0,0,1-7.13-.76c-6-1.89-10.71-7-14.6-11.69l-.27-.32c-1.43-1.7-2.91-3.45-4.45-5a23.24,23.24,0,0,0-8.51-5.93c-5.82-2.2-13.42-1-20.32,3.23a34.48,34.48,0,0,0-4.59,3.37c-5.69,5-9.92,11.32-14,17.47-.93,1.4-1.9,2.85-2.86,4.25C18.63,76.24,12.83,81.81,6.63,84.65a17.34,17.34,0,0,1-3,1A15.05,15.05,0,0,1,0,86.16a10.32,10.32,0,0,1-7.6-3.1,12.75,12.75,0,0,1-3.28-8,33.75,33.75,0,0,1,.53-7.41l.1-.69c0-.21.07-.43.1-.65C-9,58.64-8,52.69-6.68,47c.1-.46.21-.91.32-1.37A39.71,39.71,0,0,0-5,34.09c-.4-6.72-4.09-14.44-13.23-16-.31-.05-.64-.09-1-.13"/><path class="cls-15" d="M-19.57,20c.4,0,.74.07,1,.12,9,1.3,12.85,8.67,13.4,15.13A36.81,36.81,0,0,1-6.19,46.18c-.1.43-.19.86-.28,1.29-1.07,5.2-1.9,10.68-2.8,18.36,0,.21-.05.42-.08.63l-.09.82a33.25,33.25,0,0,0-.36,7.06,12.73,12.73,0,0,0,3.18,7.75c3.41,3.52,7.73,3.5,10.75,2.85a16.36,16.36,0,0,0,2.92-.89c6.14-2.57,12.13-8,18.31-16.73,1.08-1.52,2.17-3.11,3.22-4.65,4-5.89,8.19-12,13.7-16.8a35.09,35.09,0,0,1,4.57-3.39c7-4.32,14.37-5.6,20.3-3.51a23.06,23.06,0,0,1,8.6,5.68c1.63,1.57,3.18,3.34,4.68,5.05l.11.13c4.12,4.75,8.64,9.55,14.46,11.43a19.62,19.62,0,0,0,7,.85A34.1,34.1,0,0,0,108.82,61c1.36-.35,2.74-.76,4.06-1.15a55.68,55.68,0,0,1,9-2.13,34.79,34.79,0,0,1,10.74.45,41.19,41.19,0,0,1,10.73,3.59c6.5,3.27,11.31,8.12,12.25,12.36l-.24,0c-.92-4.17-5.68-9-12.11-12.19a41.3,41.3,0,0,0-10.68-3.57A34.58,34.58,0,0,0,121.92,58a55.44,55.44,0,0,0-9,2.12c-1.33.39-2.7.8-4.07,1.15a33.8,33.8,0,0,1-6.92,1.1,19.81,19.81,0,0,1-7-.86C89,59.59,84.5,54.77,80.35,50l-.11-.13c-1.49-1.71-3-3.47-4.66-5a22.81,22.81,0,0,0-8.51-5.63c-5.86-2.07-13.19-.8-20.09,3.49a34.58,34.58,0,0,0-4.54,3.36C37,50.85,32.8,56.93,28.78,62.81c-1.05,1.54-2.14,3.13-3.23,4.65-6.2,8.73-12.22,14.22-18.41,16.81a16.81,16.81,0,0,1-3,.91,14.77,14.77,0,0,1-3.1.34A10.59,10.59,0,0,1-6.8,82.25,13,13,0,0,1-10,74.36a33.69,33.69,0,0,1,.36-7.11c0-.28.06-.55.1-.82s.05-.42.07-.63c.9-7.68,1.74-13.18,2.81-18.38l.27-1.29A36.41,36.41,0,0,0-5.37,35.29c-.54-6.36-4.3-13.63-13.2-14.91-.29-.05-.62-.08-1-.12"/><path class="cls-16" d="M-19.92,22.28l1,.09c8.8,1.09,12.68,8,13.38,14.09a33.39,33.39,0,0,1-.74,10.22c-.07.41-.15.81-.22,1.21-1,5.45-1.58,10.91-2.15,17.43,0,.21,0,.41,0,.62l-.09,1A33.45,33.45,0,0,0-9,73.65a13,13,0,0,0,3.15,7.63c2.68,2.84,6.21,3.9,10.5,3.15a16.15,16.15,0,0,0,2.88-.77C13.69,81.35,19.9,76,26,67.66c1.21-1.64,2.43-3.38,3.61-5C33.57,57,37.66,51.16,43,46.5a35.38,35.38,0,0,1,4.52-3.37c6.85-4.32,14.16-5.69,20.06-3.78a23.36,23.36,0,0,1,8.62,5.38c1.65,1.52,3.16,3.16,4.83,5C84.52,53.62,89.35,59,95.42,61a20.09,20.09,0,0,0,6.87,1,34.91,34.91,0,0,0,6.78-.9c1.37-.31,2.75-.67,4.08-1A56.22,56.22,0,0,1,122,58.18a36.26,36.26,0,0,1,10.63.59,44.38,44.38,0,0,1,10.67,3.5c6.48,3.14,11.33,7.68,12.36,11.57l-.24.06c-1-3.76-5.91-8.35-12.23-11.41A44,44,0,0,0,132.59,59,36.06,36.06,0,0,0,122,58.42a57.24,57.24,0,0,0-8.83,1.83c-1.33.35-2.71.72-4.08,1a34.77,34.77,0,0,1-6.84.91,20.49,20.49,0,0,1-6.94-1c-6.14-2-11-7.39-14.54-11.3-1.66-1.84-3.17-3.48-4.82-5a23.07,23.07,0,0,0-8.52-5.33c-5.83-1.89-13.07-.52-19.87,3.75a34.67,34.67,0,0,0-4.48,3.36c-5.28,4.64-9.36,10.44-13.3,16.05-1.17,1.68-2.39,3.42-3.6,5.06C20,76.27,13.91,81.53,7.66,83.89a16.72,16.72,0,0,1-2.93.78,15.11,15.11,0,0,1-2.62.24A10.72,10.72,0,0,1-6,81.45,13.29,13.29,0,0,1-9.2,73.67,33.83,33.83,0,0,1-9,66.87l.09-1c0-.21,0-.41.05-.62.57-6.53,1.16-12,2.15-17.45.07-.41.15-.81.22-1.21a33,33,0,0,0,.74-10.15c-.69-6-4.51-12.81-13.16-13.88l-1-.09"/><path class="cls-17" d="M-19.26,24.6c10.74,1.1,12.93,10.27,13.35,13a30.61,30.61,0,0,1-.41,9.53c-.06.38-.13.75-.18,1.13C-7.23,53.07-7.59,57.78-8,64.82c0,.2,0,.4,0,.6,0,.36-.05.73-.07,1.1a35.37,35.37,0,0,0,0,6.44A13.36,13.36,0,0,0-5,80.48,11.11,11.11,0,0,0,5.24,83.92a15.49,15.49,0,0,0,2.85-.65c6.18-2.06,12.44-7.2,18.59-15.27,1.35-1.77,2.7-3.64,4-5.45,3.87-5.36,7.86-10.91,13-15.41a36.23,36.23,0,0,1,4.46-3.37c6.76-4.31,14-5.78,19.83-4a22.94,22.94,0,0,1,8.63,5.08,67.34,67.34,0,0,1,4.88,4.82c3.8,4,8.53,9,14.41,11a21.28,21.28,0,0,0,6.78,1.07,33.69,33.69,0,0,0,6.7-.7c1.37-.27,2.75-.58,4.09-.89a59.47,59.47,0,0,1,8.72-1.56,38.31,38.31,0,0,1,10.51.73,48.36,48.36,0,0,1,10.6,3.42c6.36,3,11.38,7.29,12.47,10.78l-.23.07c-1.08-3.42-6-7.7-12.34-10.63a47.9,47.9,0,0,0-10.55-3.4,37.82,37.82,0,0,0-10.44-.73,59.31,59.31,0,0,0-8.69,1.55c-1.34.31-2.72.63-4.1.9a34.06,34.06,0,0,1-6.74.7,21.23,21.23,0,0,1-6.86-1.08c-5.94-2-10.68-7.07-14.5-11.12-1.53-1.61-3.16-3.31-4.87-4.8a22.61,22.61,0,0,0-8.54-5c-5.77-1.73-12.93-.27-19.63,4a36.78,36.78,0,0,0-4.43,3.35c-5.08,4.48-9.07,10-12.92,15.37-1.31,1.81-2.65,3.68-4,5.45C20.69,76.25,14.4,81.42,8.17,83.5a15.42,15.42,0,0,1-2.9.66,14.14,14.14,0,0,1-2,.14,11,11,0,0,1-8.42-3.65A13.68,13.68,0,0,1-8.37,73a34.91,34.91,0,0,1,0-6.48c0-.38.05-.74.07-1.11,0-.2,0-.4,0-.59.39-7.05.75-11.77,1.48-16.54l.18-1.12a30.2,30.2,0,0,0,.41-9.46C-6.56,35-8.72,25.92-19.28,24.84"/><path class="cls-18" d="M-19.62,26.84c10.42.82,12.83,9.4,13.32,12a27.47,27.47,0,0,1-.09,8.84c0,.35-.09.7-.13,1-.56,4.55-.67,9.18-.82,15.6,0,.18,0,.37,0,.56,0,.41,0,.81,0,1.22a36.74,36.74,0,0,0,.11,6.17A13.79,13.79,0,0,0-4.2,79.68a11.32,11.32,0,0,0,10,3.73,15.71,15.71,0,0,0,2.82-.52c6.14-1.8,12.62-6.83,18.73-14.56,1.48-1.88,3-3.88,4.4-5.82,3.77-5.11,7.68-10.4,12.57-14.73a37.46,37.46,0,0,1,4.41-3.36c6.66-4.32,13.8-5.88,19.6-4.3A22.94,22.94,0,0,1,77,44.9c1.73,1.43,3.39,3.08,4.93,4.64l.2.2c4,4.06,8.51,8.66,14.17,10.67A21.42,21.42,0,0,0,103,61.58a35.55,35.55,0,0,0,6.63-.5c1.38-.22,2.76-.49,4.1-.76a62.58,62.58,0,0,1,8.57-1.27,39.94,39.94,0,0,1,10.4.87,51.82,51.82,0,0,1,10.53,3.33c6.34,2.83,11.4,6.84,12.59,10l-.23.09c-1.16-3.1-6.17-7.06-12.46-9.85a52,52,0,0,0-10.48-3.33,40.35,40.35,0,0,0-10.34-.86,62.22,62.22,0,0,0-8.53,1.27c-1.34.26-2.73.54-4.12.76a36.81,36.81,0,0,1-6.66.51,21.88,21.88,0,0,1-6.77-1.19c-5.72-2-10.26-6.65-14.27-10.73l-.19-.2c-1.54-1.56-3.2-3.2-4.92-4.63a22.67,22.67,0,0,0-8.55-4.73c-5.73-1.56-12.8,0-19.4,4.27A37,37,0,0,0,44.48,48c-4.88,4.32-8.77,9.59-12.54,14.69-1.43,1.94-2.91,3.95-4.4,5.83C21.4,76.25,14.88,81.31,8.68,83.12a16,16,0,0,1-2.86.53,14,14,0,0,1-1.43.07,11.34,11.34,0,0,1-8.77-3.88A14,14,0,0,1-7.53,72.3a36.34,36.34,0,0,1-.11-6.21c0-.41,0-.81,0-1.2,0-.21,0-.39,0-.58.15-6.42.26-11.06.82-15.62,0-.34.09-.69.13-1a27,27,0,0,0,.09-8.76c-.48-2.57-2.85-11-13.1-11.81"/><path class="cls-19" d="M-20,29.07A13.82,13.82,0,0,1-6.7,40a24.63,24.63,0,0,1,.25,8.15l0,.17c0,.26,0,.53-.07.79-.3,3.54-.25,7.15-.19,12.15,0,.8,0,1.64,0,2.53v1.93a37.77,37.77,0,0,0,.25,5.83,13.93,13.93,0,0,0,3.06,7.3,11.55,11.55,0,0,0,9.75,4,14.77,14.77,0,0,0,2.78-.4C17,80.56,23.72,73.9,28,68.67c1.63-2,3.25-4.13,4.82-6.2,3.68-4.86,7.48-9.89,12.16-14a37.89,37.89,0,0,1,4.37-3.36c6.55-4.31,13.61-6,19.36-4.55A22.57,22.57,0,0,1,77.37,45a58.62,58.62,0,0,1,5,4.47l.52.5c3.92,3.83,8.37,8.18,13.83,10.18a22.36,22.36,0,0,0,6.6,1.28,36.81,36.81,0,0,0,6.54-.31c1.39-.17,2.79-.4,4.14-.62a65.93,65.93,0,0,1,8.4-1,43.53,43.53,0,0,1,10.3,1,57.75,57.75,0,0,1,10.46,3.26c6.3,2.68,11.41,6.38,12.7,9.19l-.22.1C154.35,70.28,149.3,66.63,143,64a56.19,56.19,0,0,0-10.41-3.24,42.5,42.5,0,0,0-10.24-1,65.74,65.74,0,0,0-8.37,1c-1.35.23-2.75.45-4.15.63a37.25,37.25,0,0,1-6.58.31,22.27,22.27,0,0,1-6.68-1.3c-5.5-2-10-6.38-13.91-10.23l-.51-.5a59.87,59.87,0,0,0-5-4.45,22.4,22.4,0,0,0-8.56-4.43C63,39.34,56,41,49.49,45.26a38.54,38.54,0,0,0-4.34,3.34c-4.66,4.15-8.46,9.16-12.13,14-1.57,2.07-3.19,4.21-4.82,6.2-4.32,5.27-11.12,12-19,13.92a15.32,15.32,0,0,1-2.83.4c-.27,0-.54,0-.8,0A11.66,11.66,0,0,1-3.57,79a14.26,14.26,0,0,1-3.12-7.43,40.09,40.09,0,0,1-.26-5.86c0-.47,0-.92,0-1.37v-.56c0-.88,0-1.72,0-2.53-.07-5-.11-8.61.19-12.17,0-.26,0-.53.07-.8l0-.16a24.65,24.65,0,0,0-.24-8.07A13.6,13.6,0,0,0-20,29.31"/><path class="cls-20" d="M-7.09,41.22a22,22,0,0,1,.57,7.46v.14c0,.24,0,.49,0,.74-.11,2.73,0,5.44.26,9.19.07,1.35.16,2.88.24,4.56l0,.55c0,.5,0,1,0,1.56a42.47,42.47,0,0,0,.37,5.47,14.58,14.58,0,0,0,3,7.19,12.06,12.06,0,0,0,9.5,4.31,13.24,13.24,0,0,0,2.74-.27c6.15-1.26,12.9-5.92,19-13.12,1.78-2.09,3.46-4.26,5.24-6.56,3.58-4.61,7.27-9.38,11.75-13.39A40.6,40.6,0,0,1,50,45.7c6.45-4.3,13.43-6.06,19.12-4.81a22.43,22.43,0,0,1,8.66,4.17,58.25,58.25,0,0,1,5,4.29l.86.8c3.85,3.62,8.21,7.72,13.45,9.69a22.83,22.83,0,0,0,6.52,1.39,38.39,38.39,0,0,0,6.46-.11c1.4-.13,2.82-.31,4.18-.48a68.31,68.31,0,0,1,8.22-.72,46.62,46.62,0,0,1,10.19,1.14,64.24,64.24,0,0,1,10.39,3.18c6.16,2.5,11.43,6,12.81,8.4l-.21.12c-1.35-2.4-6.57-5.81-12.69-8.3a63.74,63.74,0,0,0-10.35-3.16,46.17,46.17,0,0,0-10.13-1.14,67.79,67.79,0,0,0-8.2.72c-1.37.17-2.78.35-4.19.48a38.87,38.87,0,0,1-6.5.11A23.17,23.17,0,0,1,97,60.07c-5.29-2-9.67-6.11-13.54-9.74l-.86-.8a57.61,57.61,0,0,0-5-4.28,22.24,22.24,0,0,0-8.57-4.12c-5.63-1.24-12.54.5-18.94,4.77a40.07,40.07,0,0,0-4.29,3.33c-4.46,4-8.15,8.75-11.72,13.36-1.7,2.2-3.47,4.47-5.25,6.57C22.71,76.4,15.91,81.08,9.71,82.35a12.89,12.89,0,0,1-2.64.28H6.91a12.25,12.25,0,0,1-9.67-4.39,14.78,14.78,0,0,1-3.09-7.31,39.18,39.18,0,0,1-.38-5.51c0-.53,0-1,0-1.55,0-.19,0-.37,0-.55-.08-1.67-.17-3.2-.24-4.55-.22-3.76-.37-6.48-.26-9.22,0-.25,0-.5,0-.75v-.13a22,22,0,0,0-.56-7.38"/><path class="cls-21" d="M-7.48,42.41a19.65,19.65,0,0,1,.9,6.77V50c0,2.08.26,4.2.56,6.88.19,1.71.4,3.64.61,6,0,.17,0,.35,0,.53,0,.57.07,1.16.11,1.78a43.14,43.14,0,0,0,.48,5.08,15.22,15.22,0,0,0,3,7.08,12,12,0,0,0,9.24,4.6,14.67,14.67,0,0,0,2.71-.15c6.18-1,13-5.39,19.16-12.39,1.94-2.19,3.76-4.49,5.68-6.92A102.08,102.08,0,0,1,46.35,49.69a40.57,40.57,0,0,1,4.26-3.34C57,42,63.86,40.19,69.51,41.27a22.36,22.36,0,0,1,8.67,3.87,55.13,55.13,0,0,1,5.08,4.11l1.22,1.1c3.77,3.4,8,7.26,13.07,9.21a24.31,24.31,0,0,0,6.43,1.5,41.47,41.47,0,0,0,6.38.09c1.42-.09,2.85-.22,4.24-.35a73.25,73.25,0,0,1,8-.44,49,49,0,0,1,10.07,1.28A71.83,71.83,0,0,1,143,64.73c6.1,2.36,11.42,5.49,12.92,7.61l-.19.14c-1.25-1.76-6.06-4.91-12.82-7.53a73.49,73.49,0,0,0-10.28-3.08,49.33,49.33,0,0,0-10-1.27,72.83,72.83,0,0,0-8,.44c-1.39.13-2.82.26-4.25.35A42,42,0,0,1,104,61.3a24.46,24.46,0,0,1-6.49-1.51c-5.06-2-9.36-5.85-13.14-9.26l-1.22-1.1A56.08,56.08,0,0,0,78,45.34a22.2,22.2,0,0,0-8.58-3.83c-5.59-1.07-12.4.77-18.71,5a39.15,39.15,0,0,0-4.24,3.32,100.87,100.87,0,0,0-11.3,12.7C33.28,65,31.46,67.3,29.52,69.5,23.31,76.54,16.46,81,10.22,82a13.49,13.49,0,0,1-2.17.16H7.46a12.21,12.21,0,0,1-9.41-4.69A15.3,15.3,0,0,1-5,70.24a42.87,42.87,0,0,1-.48-5.11c0-.62-.07-1.2-.11-1.78,0-.17,0-.35,0-.52-.2-2.31-.41-4.25-.6-5.95-.3-2.69-.53-4.81-.56-6.91,0-.22,0-.45,0-.68v-.11a19.37,19.37,0,0,0-.89-6.69"/><path class="cls-22" d="M-7.88,43.6a17.34,17.34,0,0,1,1.23,6.08v.06c0,.22,0,.43,0,.64.13,1.55.4,3.1.75,5.06s.71,4,1.08,6.86l.06.51c.07.65.13,1.32.2,2a47,47,0,0,0,.57,4.67,15.88,15.88,0,0,0,3,7,12.44,12.44,0,0,0,9,4.89,14,14,0,0,0,2.68,0c6.2-.72,13.06-4.86,19.3-11.68,2.09-2.28,4.05-4.7,6.13-7.26A104,104,0,0,1,47,50.33,42.82,42.82,0,0,1,51.24,47c6.27-4.31,13.07-6.25,18.66-5.33a22.26,22.26,0,0,1,8.68,3.56,48.92,48.92,0,0,1,5.14,3.94l1.6,1.38C89,53.73,93.17,57.35,98,59.28a25.51,25.51,0,0,0,6.34,1.6,43.93,43.93,0,0,0,6.3.29c1.45,0,2.91-.12,4.32-.2,2.49-.14,5.07-.28,7.82-.18a54.58,54.58,0,0,1,10,1.42,84.86,84.86,0,0,1,10.25,3c6.69,2.45,11.62,5.28,13,6.81l-.18.17c-1.39-1.51-6.28-4.32-12.93-6.75a84.9,84.9,0,0,0-10.22-3A55.18,55.18,0,0,0,122.74,61c-2.74-.1-5.31,0-7.79.18-1.42.08-2.88.17-4.33.2a41.75,41.75,0,0,1-6.34-.29,26,26,0,0,1-6.4-1.61c-4.84-1.95-9-5.58-12.72-8.79l-1.6-1.38a46.86,46.86,0,0,0-5.11-3.91,21.82,21.82,0,0,0-8.59-3.53c-5.53-.91-12.27,1-18.48,5.29a40.94,40.94,0,0,0-4.19,3.32A104.5,104.5,0,0,0,36.32,62.56c-2.07,2.56-4,5-6.14,7.28C23.91,76.7,17,80.87,10.73,81.59a13.23,13.23,0,0,1-1.44.07c-.41,0-.84,0-1.28,0a12.64,12.64,0,0,1-9.16-5,16.21,16.21,0,0,1-3-7.07c-.31-1.66-.44-3.2-.58-4.69-.06-.71-.12-1.38-.19-2l-.06-.5c-.37-2.82-.75-5-1.08-6.86S-6.71,52-6.84,50.4c0-.21,0-.43,0-.65v-.06a17.29,17.29,0,0,0-1.21-6"/><path class="cls-23" d="M-8.27,44.78a15.76,15.76,0,0,1,1.56,5.39v.06c0,.19,0,.38.08.56.19,1.13.49,2.3.84,3.64.48,1.85,1.08,4.15,1.65,7.37,0,.16,0,.33.08.49.12.73.21,1.49.31,2.3.16,1.35.33,2.74.63,4.24a16.67,16.67,0,0,0,3,6.85,12.87,12.87,0,0,0,8.73,5.18,13.38,13.38,0,0,0,2.65.1c6.14-.42,13.22-4.41,19.44-10.95,2.26-2.38,4.36-4.92,6.59-7.6A108.13,108.13,0,0,1,47.71,51a43.22,43.22,0,0,1,4.16-3.32C58,43.33,64.75,41.29,70.29,42A22.2,22.2,0,0,1,79,45.3a46.67,46.67,0,0,1,5.19,3.76l2,1.67c3.58,3,7.64,6.37,12.21,8.27a27.76,27.76,0,0,0,6.26,1.71,45.25,45.25,0,0,0,6.22.48c1.48,0,3,0,4.42,0,2.42,0,4.92-.09,7.58.08a60.09,60.09,0,0,1,9.85,1.56,102.08,102.08,0,0,1,10.19,2.92c6.15,2.13,11.5,4.74,13.13,6l-.15.19c-1.61-1.27-6.94-3.86-13.06-6A103,103,0,0,0,132.67,63a60.82,60.82,0,0,0-9.81-1.55c-2.65-.17-5.15-.12-7.56-.08-1.45,0-3,.06-4.43,0a44.22,44.22,0,0,1-6.26-.49,26.69,26.69,0,0,1-6.31-1.72c-4.61-1.91-8.68-5.31-12.27-8.31l-2-1.66a46.73,46.73,0,0,0-5.16-3.74,21.92,21.92,0,0,0-8.6-3.23c-5.48-.75-12.13,1.28-18.25,5.56a41.28,41.28,0,0,0-4.14,3.3A108.62,108.62,0,0,0,37.45,62.56c-2.23,2.69-4.34,5.23-6.6,7.62-6.26,6.58-13.41,10.6-19.6,11-.26,0-.53,0-.8,0a14,14,0,0,1-1.9-.13A13.12,13.12,0,0,1-.34,75.83a16.87,16.87,0,0,1-3-7c-.31-1.5-.48-2.9-.64-4.25-.1-.81-.19-1.57-.31-2.29,0-.16,0-.33-.08-.49-.57-3.21-1.17-5.51-1.64-7.35-.35-1.35-.66-2.52-.85-3.66,0-.18-.06-.37-.08-.56V50.2a15.36,15.36,0,0,0-1.54-5.3"/><path class="cls-24" d="M-8.67,46a14.32,14.32,0,0,1,1.89,4.69v.06c0,.16.08.32.13.48.22.8.52,1.6.86,2.53A55,55,0,0,1-3.49,61.3c0,.15.07.31.1.47.17.81.3,1.68.45,2.6.18,1.2.38,2.44.67,3.77A17.63,17.63,0,0,0,.66,74.87a13.38,13.38,0,0,0,8.48,5.48,13.57,13.57,0,0,0,2.61.23c6.16-.14,13.29-3.87,19.59-10.23,2.43-2.47,4.68-5.13,7.06-7.94a112.7,112.7,0,0,1,10-10.81,43.9,43.9,0,0,1,4.11-3.32c6.16-4.37,12.62-6.45,18.18-5.85a21.8,21.8,0,0,1,8.71,3A41.76,41.76,0,0,1,84.62,49c.81.62,1.61,1.26,2.46,1.94,3.63,2.93,7.39,6,11.74,7.81A28.64,28.64,0,0,0,105,60.53a47,47,0,0,0,6.14.68c1.52.08,3.07.11,4.56.13,2.33,0,4.74.09,7.3.32a68.79,68.79,0,0,1,9.74,1.7c3.5.84,7,1.82,10.12,2.84a105.16,105.16,0,0,1,13.23,5.23l-.11.21a104.14,104.14,0,0,0-13.2-5.21c-3.11-1-6.6-2-10.09-2.83A68.68,68.68,0,0,0,123,61.9c-2.55-.23-5-.27-7.28-.31-1.5,0-3-.06-4.58-.14a47.09,47.09,0,0,1-6.16-.68,29.79,29.79,0,0,1-6.23-1.83c-4.37-1.87-8.15-4.9-11.79-7.84-.85-.68-1.65-1.32-2.45-1.94a43.19,43.19,0,0,0-5.21-3.56,21.68,21.68,0,0,0-8.61-2.93c-5.51-.6-11.91,1.47-18,5.81a43.43,43.43,0,0,0-4.09,3.3,113.46,113.46,0,0,0-10,10.78c-2.38,2.82-4.63,5.49-7.07,8C25.17,76.93,18,80.68,11.76,80.82h-.24a14.09,14.09,0,0,1-2.42-.23A13.67,13.67,0,0,1,.47,75a17.85,17.85,0,0,1-3-6.83c-.29-1.33-.48-2.58-.67-3.79-.14-.91-.28-1.78-.44-2.58,0-.16-.07-.32-.11-.47A53,53,0,0,0-6,53.82c-.34-.94-.64-1.75-.87-2.55l-.12-.5v-.05A14.16,14.16,0,0,0-8.87,46.1"/><path class="cls-25" d="M-9.07,47.15a13.51,13.51,0,0,1,2.22,4l0,.07.15.39c.23.53.51,1.07.83,1.68a34.77,34.77,0,0,1,3,7.5l.12.46c.23.9.42,1.88.62,2.92s.4,2.13.68,3.28a18.59,18.59,0,0,0,2.9,6.62A13.85,13.85,0,0,0,9.7,79.84a13,13,0,0,0,2.58.35c6.08.16,13.44-3.4,19.72-9.51,2.61-2.54,5-5.32,7.55-8.26a118.12,118.12,0,0,1,9.52-10.18,44.42,44.42,0,0,1,4-3.31c6.07-4.38,12.45-6.55,18-6.12a21.92,21.92,0,0,1,8.71,2.66,40.25,40.25,0,0,1,5.29,3.4C86,49.58,87,50.32,88,51.1c3.51,2.72,7.13,5.52,11.24,7.34a31.23,31.23,0,0,0,6.09,1.91,50.59,50.59,0,0,0,6,.88c1.59.14,3.12.23,4.75.32,2.23.13,4.54.26,7,.55a83.07,83.07,0,0,1,9.63,1.83c3.48.86,7,1.82,10,2.76,3.91,1.2,7.36,2.4,9.88,3.28,1.62.56,2.79,1,3.44,1.15l-.06.24c-.66-.19-1.84-.6-3.46-1.16-2.52-.88-6-2.08-9.87-3.28-3.08-.94-6.55-1.89-10-2.75a80.61,80.61,0,0,0-9.6-1.83c-2.44-.29-4.75-.42-7-.54-1.62-.1-3.16-.18-4.75-.33a51.15,51.15,0,0,1-6.08-.88,31.21,31.21,0,0,1-6.13-1.93C95,56.83,91.37,54,87.85,51.29c-1-.78-2-1.52-2.92-2.23a41.49,41.49,0,0,0-5.25-3.38,21.79,21.79,0,0,0-8.62-2.63c-5.45-.43-11.77,1.73-17.79,6.07a45.9,45.9,0,0,0-4,3.3,119.11,119.11,0,0,0-9.5,10.15c-2.54,2.95-4.95,5.74-7.56,8.28-6.19,6-13.45,9.59-19.5,9.59h-.4a13.51,13.51,0,0,1-2.63-.35,14.16,14.16,0,0,1-8.37-5.86A19.07,19.07,0,0,1-1.67,67.5c-.28-1.15-.48-2.24-.68-3.29s-.38-2-.61-2.9l-.12-.45a34.77,34.77,0,0,0-3-7.46c-.32-.62-.6-1.15-.83-1.7-.06-.13-.11-.26-.16-.4l0-.06a13.27,13.27,0,0,0-2.19-3.93"/><path class="cls-26" d="M-9.47,48.34a13.85,13.85,0,0,1,2.55,3.3l0,0A3.37,3.37,0,0,0-6.7,52c.22.34.48.68.74,1.05a23.58,23.58,0,0,1,3.75,7.23c0,.14.1.29.14.44.31,1,.56,2.09.82,3.27.2.88.4,1.8.65,2.76a20.15,20.15,0,0,0,2.88,6.51c2.33,3.25,4.86,5.17,8,6.06a12.4,12.4,0,0,0,2.54.48C18.87,80.26,26.3,77,32.66,71c2.8-2.62,5.35-5.52,8.05-8.59a122.68,122.68,0,0,1,9-9.55,46.86,46.86,0,0,1,4-3.31c6-4.38,12.27-6.65,17.72-6.37a21.77,21.77,0,0,1,8.72,2.35,38.21,38.21,0,0,1,5.34,3.22c1.13.79,2.25,1.63,3.43,2.52a59.1,59.1,0,0,0,10.71,6.86,32.75,32.75,0,0,0,6,2,53.07,53.07,0,0,0,6,1.07c1.67.22,3.28.37,5,.54,2.12.2,4.3.41,6.61.74a96.17,96.17,0,0,1,9.52,2c3.53.89,7,1.81,10,2.67l4.79,1.4a65,65,0,0,0,8.63,2.25l0,.24a63.65,63.65,0,0,1-8.68-2.26l-4.78-1.4c-3-.85-6.45-1.78-10-2.67s-6.72-1.56-9.5-2c-2.3-.33-4.48-.54-6.59-.74-1.71-.17-3.33-.32-5-.54a53.55,53.55,0,0,1-6-1.08,33.44,33.44,0,0,1-6-2,59.76,59.76,0,0,1-10.75-6.89c-1.19-.89-2.31-1.72-3.43-2.51a37.31,37.31,0,0,0-5.3-3.2,21.49,21.49,0,0,0-8.63-2.33c-5.39-.27-11.63,2-17.56,6.33a46.54,46.54,0,0,0-4,3.28,124.23,124.23,0,0,0-9,9.54c-2.7,3.08-5.26,6-8.06,8.6-6,5.64-13,8.9-18.9,8.9-.39,0-.77,0-1.15,0a13.73,13.73,0,0,1-2.59-.48C7,78.66,4.44,76.7,2.08,73.41A20.28,20.28,0,0,1-.83,66.82c-.25-1-.46-1.88-.66-2.77-.26-1.17-.5-2.27-.81-3.25,0-.15-.09-.29-.14-.44A23.5,23.5,0,0,0-6.15,53.2c-.27-.37-.53-.71-.75-1.06l-.2-.33,0-.05a13.68,13.68,0,0,0-2.51-3.25"/><path class="cls-27" d="M-9.88,49.52A16.12,16.12,0,0,1-7,52.12l0,.05.23.24.62.59a16.48,16.48,0,0,1,4.54,6.78c.06.14.11.28.16.42.4,1.09.72,2.33,1.06,3.65.19.72.37,1.45.59,2.22a22.15,22.15,0,0,0,2.84,6.4c2.31,3.32,4.77,5.34,7.73,6.36a13.49,13.49,0,0,0,2.51.59c6,.74,13.65-2.35,20-8.07a115.63,115.63,0,0,0,8.56-8.9c2.69-3,5.48-6.13,8.53-8.94,1.29-1.18,2.62-2.29,4-3.29,5.89-4.39,12.09-6.75,17.48-6.64a22.28,22.28,0,0,1,8.74,2.05,36.91,36.91,0,0,1,5.39,3c1.3.87,2.6,1.8,4,2.8a64,64,0,0,0,10.13,6.39A36.59,36.59,0,0,0,106,60c1.79.49,3.66.89,5.9,1.28,1.78.3,3.5.53,5.33.78s4,.54,6.13.91c2.69.47,5.68,1.14,9.41,2.11l9.9,2.59c6.28,1.67,11.69,3.12,13.51,2.87l0,.24c-1.87.25-7.31-1.2-13.61-2.87-3.29-.88-6.85-1.81-9.9-2.59-3.72-1-6.71-1.64-9.39-2.11-2.13-.37-4.16-.64-6.13-.91-1.82-.25-3.55-.48-5.33-.78-2.25-.39-4.13-.8-5.92-1.28a37.72,37.72,0,0,1-6-2.15,64.1,64.1,0,0,1-10.17-6.42c-1.37-1-2.67-1.93-4-2.79a36.8,36.8,0,0,0-5.35-3,22,22,0,0,0-8.64-2c-5.34-.11-11.49,2.23-17.34,6.59a49.12,49.12,0,0,0-3.93,3.28c-3,2.8-5.83,5.91-8.52,8.92a114.29,114.29,0,0,1-8.58,8.92C27.64,76.79,21,79.78,15.2,79.78a15.07,15.07,0,0,1-1.91-.12,12.21,12.21,0,0,1-2.55-.61c-3-1-5.51-3.08-7.85-6.44A22.3,22.3,0,0,1,0,66.13c-.22-.76-.41-1.5-.59-2.22-.34-1.31-.66-2.55-1-3.62-.06-.14-.11-.28-.16-.42a16.31,16.31,0,0,0-4.49-6.69c-.22-.21-.43-.4-.62-.6s-.16-.17-.24-.25l0,0A16.81,16.81,0,0,0-10,49.72"/><path class="cls-28" d="M-10.28,50.71A26,26,0,0,1-7.09,52.6l.07,0,.25.17.46.28c1.45.87,3.45,2.06,5.38,6.18l.18.4A33.91,33.91,0,0,1,.59,63.74l.49,1.64a24.21,24.21,0,0,0,2.81,6.29c2.33,3.46,4.63,5.51,7.48,6.65a12.7,12.7,0,0,0,2.48.72c6,1,13.68-1.78,20.14-7.35a108.77,108.77,0,0,0,9.09-9.22c2.54-2.79,5.18-5.68,8-8.32C52.38,53,53.69,51.86,55,50.86,60.81,46.47,66.93,44,72.25,44A22.28,22.28,0,0,1,81,45.71a35.3,35.3,0,0,1,5.44,2.87c1.5,1,3,2,4.57,3.09a70.33,70.33,0,0,0,9.51,5.92,40.32,40.32,0,0,0,5.82,2.24c1.76.53,3.61,1,5.81,1.47,1.94.41,3.82.74,5.82,1.09,1.77.31,3.6.63,5.51,1,3.24.66,6.67,1.55,9.3,2.25,3,.8,6.35,1.65,9.84,2.51,5.91,1.45,11.65,2.71,13.6,2.08l.08.23c-2,.65-7.79-.62-13.74-2.08-3.49-.86-6.8-1.7-9.84-2.51-2.63-.7-6-1.59-9.28-2.25-1.91-.38-3.75-.7-5.52-1-2-.36-3.87-.69-5.81-1.09-2.22-.47-4.07-.94-5.84-1.48a41.34,41.34,0,0,1-5.86-2.25,70.79,70.79,0,0,1-9.54-5.94c-1.58-1.1-3.07-2.14-4.56-3.08a34,34,0,0,0-5.4-2.85,21.84,21.84,0,0,0-8.66-1.73c-5.27,0-11.34,2.48-17.1,6.84-1.31,1-2.61,2.1-3.88,3.28-2.84,2.63-5.47,5.51-8,8.3a107.69,107.69,0,0,1-9.1,9.24C28.54,76.72,22,79.49,16.39,79.49a15.49,15.49,0,0,1-2.58-.21,12.56,12.56,0,0,1-2.53-.74C8.38,77.38,6,75.3,3.69,71.81A24.56,24.56,0,0,1,.85,65.45c-.18-.56-.33-1.11-.49-1.64a34,34,0,0,0-1.33-4l-.18-.4C-3,55.32-5,54.16-6.44,53.3L-6.9,53l-.26-.17-.07-.05a26.16,26.16,0,0,0-3.16-1.88"/><path class="cls-29" d="M-10.75,51.88l.06,0c1.45.46,2.5.82,3.51,1.19l.09,0,.27.1.27.09c1.69.55,4,1.3,6.26,5.45.07.13.14.26.2.39a31.34,31.34,0,0,1,1.67,4.5l.33,1A26.78,26.78,0,0,0,4.7,70.87c2.31,3.56,4.54,5.7,7.23,6.94a12.69,12.69,0,0,0,2.44.85C20.32,80,28.1,77.45,34.66,72a102.57,102.57,0,0,0,9.62-9.52c2.39-2.59,4.86-5.26,7.5-7.71,1.27-1.18,2.56-2.29,3.86-3.29,5.71-4.4,11.75-6.94,17-7.15A22.05,22.05,0,0,1,81.4,45.8a32.47,32.47,0,0,1,5.49,2.69c1.71,1,3.42,2.17,5.22,3.39a78.53,78.53,0,0,0,8.83,5.43,45.7,45.7,0,0,0,5.74,2.34c1.74.59,3.56,1.12,5.73,1.67s4.28,1,6.52,1.49c1.51.32,3.07.66,4.68,1,2.85.67,5.84,1.48,9.18,2.39,3.14.85,6.51,1.69,9.77,2.43,7.66,1.73,12,2.14,13.7,1.3l.11.22c-1.74.86-6.14.45-13.86-1.29-3.26-.73-6.64-1.57-9.78-2.43-3.34-.91-6.33-1.72-9.18-2.38-1.61-.37-3.16-.71-4.67-1-2.24-.49-4.36-.94-6.53-1.49s-4-1.09-5.75-1.68a45.3,45.3,0,0,1-5.77-2.36A77.56,77.56,0,0,1,92,52.08c-1.8-1.22-3.5-2.37-5.2-3.39A32.76,32.76,0,0,0,81.32,46a22.16,22.16,0,0,0-8.67-1.43c-5.2.21-11.2,2.74-16.87,7.11-1.28,1-2.57,2.09-3.84,3.26-2.63,2.45-5.1,5.12-7.49,7.7a101.93,101.93,0,0,1-9.64,9.55c-5.44,4.51-11.73,7-17.14,7a15.22,15.22,0,0,1-3.35-.36A12.5,12.5,0,0,1,11.83,78c-2.73-1.26-5-3.43-7.33-7a26.59,26.59,0,0,1-2.82-6.23l-.33-1A33.37,33.37,0,0,0-.3,59.27c-.07-.13-.13-.26-.2-.38C-2.72,54.82-5,54.08-6.62,53.55l-.28-.09-.28-.11-.08,0c-1-.37-2.05-.73-3.51-1.19l-.05,0"/><path class="cls-30" d="M-11.73,53l.63.1c1.22.18,2.22.3,3.1.41l.86.11.28,0h.05c1.93.2,4.56.48,7.16,4.61l.22.38a29.18,29.18,0,0,1,2,5l.14.4a30.44,30.44,0,0,0,2.76,6.07c2.33,3.73,4.42,5.89,7,7.23a11.61,11.61,0,0,0,2.4,1c5.84,1.62,13.86-.7,20.43-5.91a97.45,97.45,0,0,0,10.17-9.83c2.23-2.38,4.54-4.83,7-7.11,1.26-1.17,2.54-2.28,3.8-3.27,4-3.12,10.13-6.94,16.78-7.41a22.13,22.13,0,0,1,8.77,1.14,31.93,31.93,0,0,1,5.54,2.51c1.94,1.09,3.87,2.37,5.92,3.71A87.24,87.24,0,0,0,101.36,57,52.82,52.82,0,0,0,107,59.48c1.72.64,3.52,1.23,5.65,1.87,2.54.75,5,1.38,7.66,2.06l3.4.87c2,.54,4.12,1.13,6.33,1.75l2.75.78c3.14.87,6.49,1.68,9.69,2.34,7.39,1.51,12,1.69,13.81.53l.13.2c-1.85,1.22-6.43,1.05-14-.5-3.21-.65-6.56-1.47-9.71-2.34L130,66.27c-2.21-.63-4.3-1.22-6.33-1.76l-3.4-.87c-2.64-.67-5.13-1.31-7.67-2.06-2.13-.64-3.93-1.23-5.67-1.87a54.07,54.07,0,0,1-5.68-2.47,87.82,87.82,0,0,1-8.12-4.94c-2-1.34-4-2.61-5.9-3.7a31.46,31.46,0,0,0-5.5-2.49A22,22,0,0,0,73.05,45c-6.59.47-12.68,4.26-16.64,7.36-1.26,1-2.53,2.09-3.79,3.26-2.42,2.27-4.73,4.72-7,7.09a97,97,0,0,1-10.19,9.86C30.25,76.69,24.11,79,18.85,79a15.32,15.32,0,0,1-4-.51,13.47,13.47,0,0,1-2.46-1C9.78,76.15,7.66,74,5.31,70.2a30.62,30.62,0,0,1-2.79-6.12l-.14-.4a29.55,29.55,0,0,0-2-4.92c-.07-.13-.14-.25-.22-.37-2.53-4-5.1-4.31-7-4.5h-.06l-.28,0L-8,53.74c-.88-.11-1.88-.23-3.11-.42l-.63-.09"/><path class="cls-31" d="M-13,54.27c.53,0,1,0,1.48,0,1.77,0,3.1-.11,4.16-.19h.19l.26,0c1.86-.14,5-.39,7.9,3.7l.24.35a26,26,0,0,1,2.35,5.2,37,37,0,0,0,2.74,6C8.05,72.14,10.06,75,13,76.79a12,12,0,0,0,2.38,1.1C21.23,79.8,29.31,77.77,36,72.7A93,93,0,0,0,46.71,62.56c2.07-2.17,4.2-4.41,6.43-6.5,1.25-1.17,2.51-2.27,3.75-3.27,3.92-3.12,10-7,16.54-7.67a22.46,22.46,0,0,1,8.78.84,30.18,30.18,0,0,1,5.59,2.33c2.2,1.17,4.39,2.57,6.7,4.05s4.79,3.08,7.29,4.4a59.88,59.88,0,0,0,5.57,2.56c1.69.69,3.51,1.37,5.57,2.07,3.19,1.08,6.37,2,9.73,3l1.19.35c1.06.31,2.14.63,3.24,1,1.85.55,3.77,1.13,5.73,1.69,3.12.89,6.45,1.67,9.62,2.26,7.24,1.33,12.06,1.25,13.92-.25l.15.19c-1.95,1.57-6.7,1.66-14.11.3-3.18-.59-6.52-1.37-9.65-2.27-2-.56-3.88-1.14-5.73-1.69l-3.23-1-1.2-.35c-3.37-1-6.55-1.92-9.74-3-2.06-.71-3.89-1.38-5.59-2.07-2.06-.84-3.88-1.68-5.58-2.57-2.51-1.33-5-2.9-7.32-4.41s-4.48-2.88-6.67-4a30.49,30.49,0,0,0-5.55-2.32,22.18,22.18,0,0,0-8.69-.83C67,46,60.94,49.87,57,53c-1.24,1-2.49,2.09-3.74,3.26-2.22,2.09-4.35,4.32-6.41,6.48A92.81,92.81,0,0,1,36.13,72.89c-5.05,3.84-10.9,6-16,6a15.5,15.5,0,0,1-4.79-.72A12.15,12.15,0,0,1,12.92,77c-3-1.79-5.06-4.71-6.81-7.61a36.87,36.87,0,0,1-2.75-6A26.11,26.11,0,0,0,1,58.25L.79,57.9c-2.86-4-5.76-3.75-7.68-3.6l-.27,0h-.18c-1.07.08-2.4.16-4.17.19-.46,0-1,0-1.49,0"/><path class="cls-32" d="M-13.8,55.69l1.88-.21c1.74-.24,3.13-.57,4.48-.88l.27-.06.23,0a7.57,7.57,0,0,1,8.56,2.76l.27.34a22.55,22.55,0,0,1,2.53,5,46,46,0,0,0,2.71,5.85C9.18,72,11,74.56,13.6,76.29a12.19,12.19,0,0,0,2.34,1.22C21.73,79.72,29.86,78,36.65,73A88.66,88.66,0,0,0,48,62.58c1.88-1.95,3.84-4,5.86-5.88,1.24-1.18,2.48-2.27,3.7-3.26,3.86-3.14,9.83-7.06,16.3-7.93a22.51,22.51,0,0,1,8.79.53,28.8,28.8,0,0,1,5.64,2.16,86.7,86.7,0,0,1,7.56,4.42c2.08,1.31,4.23,2.66,6.4,3.84,1.66.9,3.45,1.77,5.48,2.67,1.69.75,3.49,1.49,5.49,2.26,3.68,1.42,7.36,2.65,10.8,3.76l.49.17c2.68.87,5.45,1.78,8.36,2.63a81.5,81.5,0,0,0,9.56,2.18c5,.82,11.53,1.32,14-1l.17.17c-2.56,2.41-9.15,1.92-14.23,1.09a82,82,0,0,1-9.59-2.18c-2.91-.86-5.68-1.77-8.36-2.64l-.5-.17c-3.44-1.11-7.13-2.34-10.8-3.76-2-.78-3.81-1.52-5.5-2.27-2-.9-3.84-1.77-5.5-2.68-2.19-1.18-4.34-2.54-6.42-3.85-2.6-1.63-5.05-3.17-7.53-4.41a28.3,28.3,0,0,0-5.6-2.13,22.05,22.05,0,0,0-8.7-.53c-6.41.86-12.34,4.76-16.18,7.88-1.21,1-2.45,2.07-3.69,3.24-2,1.91-4,3.93-5.85,5.88A89.21,89.21,0,0,1,36.79,73.23a27.07,27.07,0,0,1-15.38,5.46,15.47,15.47,0,0,1-5.56-1,12,12,0,0,1-2.38-1.24c-2.66-1.75-4.48-4.32-6.55-7.9A46.33,46.33,0,0,1,4.2,62.71a22.46,22.46,0,0,0-2.51-5c-.08-.12-.17-.23-.25-.33-2.93-3.57-5.84-3.26-8.33-2.69l-.23.05-.27.07a45.19,45.19,0,0,1-4.5.87c-.58.08-1.21.15-1.89.22"/><path class="cls-33" d="M-14.88,57.25c.91-.19,1.77-.37,2.55-.58a49.88,49.88,0,0,0,4.81-1.56l.39-.15.15-.05c2.79-1,6.07-1.55,9.24,1.84.1.1.19.21.28.32a19.67,19.67,0,0,1,2.72,4.86l0,.07a60.59,60.59,0,0,0,2.65,5.67c1.82,3.28,3.55,6.16,6.22,8.11a12,12,0,0,0,2.3,1.34c5.67,2.48,14.05,1,20.86-3.75,4.29-3,8-6.76,11.89-10.76,1.71-1.75,3.48-3.56,5.28-5.27,1.24-1.18,2.47-2.27,3.66-3.26C62,50.93,67.84,47,74.21,45.89a22.45,22.45,0,0,1,8.8.24,27.64,27.64,0,0,1,5.7,2,83.88,83.88,0,0,1,8.51,4.83c1.76,1.1,3.59,2.23,5.42,3.25C104.26,57.09,106,58,108,59c1.71.82,3.47,1.63,5.41,2.47,3.3,1.42,6.68,2.75,10.66,4.17,2.7,1,5.63,2,8.74,2.94a66.49,66.49,0,0,0,9.49,2.09c7.08,1,12.1.37,14.14-1.8l.17.16c-2.09,2.24-7.19,2.91-14.35,1.88a66.92,66.92,0,0,1-9.52-2.1c-3.11-.94-6.05-2-8.75-2.94-4-1.43-7.37-2.76-10.68-4.18-1.93-.84-3.71-1.65-5.41-2.47-2-1-3.79-1.87-5.41-2.78-1.83-1-3.66-2.16-5.43-3.25a82.58,82.58,0,0,0-8.48-4.82,27.4,27.4,0,0,0-5.65-2,22.19,22.19,0,0,0-8.71-.23c-6.32,1.06-12.16,5-16,8.14-1.18,1-2.41,2.07-3.64,3.24-1.8,1.72-3.57,3.52-5.28,5.27-3.92,4-7.61,7.8-11.92,10.79a26.92,26.92,0,0,1-14.86,5,15.66,15.66,0,0,1-6.23-1.19A12.65,12.65,0,0,1,14,76c-2.7-2-4.44-4.89-6.28-8.2-1-1.78-1.88-3.85-2.67-5.68L5,62a19.36,19.36,0,0,0-2.67-4.81c-.09-.1-.18-.21-.28-.31C-1,53.63-4,54.12-6.89,55.14l-.16,0-.39.14a49.14,49.14,0,0,1-4.83,1.58c-.78.2-1.65.39-2.56.58"/><path class="cls-34" d="M-16,59c1.17-.37,2.27-.72,3.26-1.09,2-.74,3.72-1.58,5.13-2.25.19-.1.39-.19.6-.28C-4,54-.55,53,2.9,56.25l.3.3a16.88,16.88,0,0,1,2.89,4.69l.54,1.2c.68,1.49,1.37,3,2.12,4.43,1.72,3.23,3.34,6.29,6,8.4A12.08,12.08,0,0,0,17,76.74c5.62,2.77,14.06,1.55,21-3,4.54-3,8.41-6.92,12.5-11.06C52,61.1,53.58,59.5,55.17,58c1.23-1.17,2.45-2.27,3.6-3.24,5.41-4.55,10.89-7.47,15.84-8.45a22.34,22.34,0,0,1,8.81-.07A26.23,26.23,0,0,1,89.16,48a80.53,80.53,0,0,1,9.59,5.29c1.41.87,2.87,1.76,4.31,2.6,1.6.92,3.28,1.83,5.31,2.88,1.74.9,3.48,1.77,5.33,2.66,3.58,1.72,6.92,3.18,10.52,4.59,2.09.82,5.25,2,8.63,3.07a54.9,54.9,0,0,0,9.42,2c7.06.87,12.12,0,14.25-2.58l.19.16c-2.19,2.59-7.32,3.54-14.47,2.66a55.17,55.17,0,0,1-9.46-2c-3.39-1-6.56-2.25-8.65-3.08-3.6-1.41-6.95-2.87-10.54-4.59-1.85-.89-3.59-1.77-5.33-2.66-2-1.06-3.72-2-5.32-2.89-1.45-.84-2.91-1.73-4.32-2.6a78.71,78.71,0,0,0-9.56-5.28,26.12,26.12,0,0,0-5.69-1.78,22.26,22.26,0,0,0-8.72.06c-4.91,1-10.34,3.88-15.72,8.4q-1.74,1.47-3.59,3.24c-1.6,1.52-3.17,3.12-4.69,4.66-3.92,4-8,8.08-12.53,11.1a26.5,26.5,0,0,1-14.23,4.54,15.92,15.92,0,0,1-7-1.49,12.21,12.21,0,0,1-2.32-1.5c-2.66-2.14-4.29-5.22-6-8.48-.74-1.4-1.44-3-2.12-4.44q-.27-.61-.54-1.2A17.13,17.13,0,0,0,3,56.71l-.3-.29C-.61,53.27-4,54.22-6.9,55.56l-.59.27c-1.42.68-3.17,1.53-5.16,2.27-1,.37-2.1.72-3.26,1.09"/><path class="cls-35" d="M-17.12,60.8c1.42-.59,2.77-1.15,4-1.73,1.92-.92,3.61-1.88,5.46-3l.64-.36c3-1.64,6.82-3.13,10.57,0l.32.28a15,15,0,0,1,3.07,4.53c.35.72.71,1.5,1.06,2.24.51,1.1,1,2.23,1.57,3.28l.26.51c1.65,3.27,3.09,6.09,5.45,8.19a12.39,12.39,0,0,0,2.24,1.59c5.58,3.07,14.08,2.13,21.14-2.32,4.8-3,9-7.27,13.11-11.38,1.33-1.34,2.71-2.72,4.09-4s2.41-2.26,3.55-3.24c5.41-4.64,10.66-7.57,15.6-8.71a22.86,22.86,0,0,1,8.82-.37,25.84,25.84,0,0,1,5.79,1.62,75.49,75.49,0,0,1,10.84,5.87l3,1.84c1.53.91,3.14,1.83,5.22,3,1.79,1,3.55,2,5.24,2.85,3.78,2,7.08,3.59,10.39,5s5.88,2.37,8.52,3.21a48.35,48.35,0,0,0,9.35,1.92c7.06.71,12.16-.49,14.37-3.36l.19.15c-2.26,2.94-7.44,4.17-14.58,3.45a48,48,0,0,1-9.4-1.93c-2.65-.84-5.36-1.86-8.54-3.22s-6.63-3-10.41-5c-1.69-.9-3.46-1.86-5.25-2.86-2.08-1.16-3.69-2.08-5.23-3-1-.6-2-1.23-3-1.84a76,76,0,0,0-10.81-5.84,25.41,25.41,0,0,0-5.74-1.61,22.41,22.41,0,0,0-8.73.37c-4.9,1.13-10.11,4-15.49,8.66-1.14,1-2.3,2-3.54,3.22-1.39,1.33-2.76,2.72-4.09,4C47.83,67,43.6,71.2,38.78,74.24a26,26,0,0,1-13.61,4.15,16.19,16.19,0,0,1-7.78-1.82A12.35,12.35,0,0,1,15.11,75c-2.4-2.13-3.84-5-5.51-8.26l-.26-.51C8.81,65.13,8.28,64,7.77,62.9c-.35-.75-.71-1.52-1.06-2.24a14.81,14.81,0,0,0-3-4.46l-.31-.27c-3.61-3-7.23-1.66-10.29,0l-.64.36c-1.86,1.08-3.55,2-5.48,3-1.22.58-2.57,1.14-4,1.73"/><path class="cls-36" d="M-18.28,62.77c1.69-.85,3.29-1.66,4.75-2.5,2.08-1.19,4-2.45,5.79-3.64l.68-.44c3.11-2,7.2-3.89,11.23-.95.12.08.23.17.34.26a13.48,13.48,0,0,1,3.25,4.36C8.34,61,8.9,62.17,9.45,63.33l.91,1.94c.19.39.38.77.56,1.16,1.42,2.95,2.75,5.74,4.9,7.83A12.3,12.3,0,0,0,18,76c5.54,3.36,14.09,2.71,21.28-1.6,5.08-3,9.48-7.45,13.75-11.7,1.13-1.13,2.3-2.3,3.47-3.43S58.92,57,60,56c5.34-4.67,10.51-7.69,15.36-9a22.91,22.91,0,0,1,8.83-.68,25.77,25.77,0,0,1,5.85,1.45,72.14,72.14,0,0,1,12.27,6.55l1.57,1L109,58.43c1.77,1.06,3.51,2.09,5.17,3.06,4,2.29,7.11,4,10.26,5.41a73.68,73.68,0,0,0,8.41,3.35,42.09,42.09,0,0,0,9.27,1.85c6.95.54,12.22-1,14.48-4.14l.2.14c-2.31,3.24-7.67,4.79-14.7,4.24a42.17,42.17,0,0,1-9.33-1.86,73,73,0,0,1-8.43-3.36C121.21,65.66,118,64,114.09,61.7c-1.67-1-3.41-2-5.17-3.06s-3.56-2.13-5.13-3.1l-1.58-1A72.05,72.05,0,0,0,90,48a25.22,25.22,0,0,0-5.79-1.43,22.85,22.85,0,0,0-8.74.67c-4.81,1.28-10,4.28-15.26,8.92-1.11,1-2.25,2-3.49,3.22s-2.34,2.3-3.47,3.43C49,67.11,44.54,71.52,39.44,74.58a25.68,25.68,0,0,1-13,3.78,16.34,16.34,0,0,1-8.52-2.18,12.45,12.45,0,0,1-2.26-1.75c-2.18-2.11-3.52-4.92-5-7.9-.18-.38-.36-.77-.55-1.16-.31-.63-.61-1.28-.92-1.93C8.68,62.27,8.12,61.07,7.55,60a13.35,13.35,0,0,0-3.19-4.28L4,55.43c-3.92-2.85-7.91-1-11,1l-.68.44c-1.79,1.19-3.71,2.45-5.8,3.65-1.46.84-3.06,1.65-4.76,2.51"/><path class="cls-37" d="M-19.4,64.84c1.94-1.16,3.77-2.25,5.47-3.37,2.23-1.48,4.33-3,6.12-4.33.23-.18.48-.35.73-.53C-3.81,54.29.5,52,4.81,54.74l.36.24A12.55,12.55,0,0,1,8.6,59.17c.83,1.51,1.6,3.17,2.34,4.78l.23.52c.26.56.51,1.12.76,1.67,1.27,2.84,2.47,5.52,4.45,7.61a13,13,0,0,0,2.17,1.85C24,79.19,32.77,78.83,40,74.71c5.36-3,10-7.61,14.39-12,.93-.93,1.88-1.88,2.84-2.81,1.24-1.21,2.37-2.26,3.45-3.22C65.93,52,71,48.86,75.78,47.43a23.22,23.22,0,0,1,8.84-1,24.77,24.77,0,0,1,5.9,1.26c4.77,1.62,9.37,4.53,13.82,7.33l5,3.21c1.81,1.16,3.44,2.21,5.09,3.25a115.27,115.27,0,0,0,10.12,5.83,63.17,63.17,0,0,0,8.3,3.49,37.15,37.15,0,0,0,9.21,1.76c6.93.4,12.25-1.4,14.59-4.92l.2.13c-2.39,3.6-7.79,5.43-14.81,5a37.26,37.26,0,0,1-9.27-1.77,64.17,64.17,0,0,1-8.33-3.5c-3.79-1.9-7.26-4-10.14-5.84l-5.09-3.26c-1.69-1.08-3.38-2.16-5-3.2-4.44-2.8-9-5.7-13.77-7.31A24.77,24.77,0,0,0,84.6,46.7a23,23,0,0,0-8.75,1c-4.72,1.41-9.78,4.5-15,9.17-1.07,1-2.2,2-3.44,3.22-1,.92-1.92,1.88-2.84,2.8-4.45,4.42-9.06,9-14.44,12.06-7.29,4.16-16.21,4.52-21.68.88a13.09,13.09,0,0,1-2.22-1.88c-2-2.13-3.21-4.82-4.49-7.68-.25-.55-.5-1.11-.76-1.67l-.23-.52c-.74-1.6-1.5-3.26-2.33-4.76A12.19,12.19,0,0,0,5,55.18c-.12-.08-.23-.17-.35-.24C.5,52.26-3.73,54.53-6.94,56.81l-.73.52c-1.79,1.32-3.89,2.85-6.13,4.34-1.7,1.12-3.53,2.22-5.47,3.38"/><path class="cls-38" d="M-14.33,62.67c2.32-1.73,4.54-3.5,6.45-5l.77-.61c3.18-2.44,7.93-5.39,12.55-2.8l.39.23a11.77,11.77,0,0,1,3.6,4A47.08,47.08,0,0,1,12,63.67c.31.7.6,1.41.89,2.09a26.45,26.45,0,0,0,4.06,7.49,13.17,13.17,0,0,0,2.14,2c5.34,3.87,14.21,3.81,21.57-.16C46.31,72,51.1,67.22,55.74,62.64l2.15-2.12c1.25-1.23,2.37-2.28,3.39-3.21,5.29-4.8,10.17-7.91,14.89-9.49A23.18,23.18,0,0,1,91,47.63c4.93,1.52,9.71,4.48,13.79,7.14,1.59,1,3.21,2.12,5,3.31l2.43,1.68,2.57,1.78a110.22,110.22,0,0,0,10,6.24,53.73,53.73,0,0,0,8.19,3.62A32.8,32.8,0,0,0,142,73.08c6.92.25,12.28-1.83,14.71-5.7l.2.13c-2.47,3.95-7.91,6.07-14.92,5.81a32.94,32.94,0,0,1-9.21-1.69A53.76,53.76,0,0,1,124.6,68a110.09,110.09,0,0,1-10-6.25L112,60l-2.43-1.68c-1.74-1.19-3.36-2.27-5-3.31-4.07-2.64-8.83-5.6-13.73-7.11A23.84,23.84,0,0,0,85,46.78a23.21,23.21,0,0,0-8.77,1.27c-4.7,1.57-9.54,4.66-14.8,9.43-1,.94-2.14,2-3.39,3.21l-2.15,2.12c-4.65,4.6-9.45,9.35-15.15,12.45-7.44,4-16.42,4.07-21.83.15a13.27,13.27,0,0,1-2.18-2,26.8,26.8,0,0,1-4.11-7.55c-.28-.69-.57-1.4-.88-2.1a48.17,48.17,0,0,0-2.53-5.15A11.32,11.32,0,0,0,5.7,54.67l-.37-.23C.88,52-3.58,54.62-7,57.23l-.77.6c-1.91,1.53-4.13,3.3-6.45,5"/><path class="cls-39" d="M-14.72,63.87c2.4-2,4.75-4,6.77-5.72l.82-.69c3.33-2.75,8.32-6.12,13.21-3.73l.4.21a10.91,10.91,0,0,1,3.79,3.85,32.84,32.84,0,0,1,2.52,5.08c.34.81.65,1.64,1,2.44a26.32,26.32,0,0,0,3.74,7.43,12.64,12.64,0,0,0,2.11,2.09c5.3,4.15,14.22,4.38,21.71.55,6-3.07,10.95-8,15.77-12.75l1.48-1.47c1.3-1.28,2.37-2.3,3.35-3.21,5.24-4.84,10-8,14.66-9.74a23.91,23.91,0,0,1,8.86-1.59,24.2,24.2,0,0,1,6,.91c5.13,1.44,10,4.47,13.76,7,1.55,1,3.15,2.16,4.87,3.42,1.1.8,2.18,1.61,3.27,2.42L115,61.56a102.26,102.26,0,0,0,9.86,6.65A46.93,46.93,0,0,0,132.91,72a29.27,29.27,0,0,0,9.07,1.6c6.91.11,12.32-2.25,14.83-6.48l.2.12c-2.55,4.31-8,6.71-15,6.6a29.78,29.78,0,0,1-9.15-1.61,46.66,46.66,0,0,1-8.11-3.78,102,102,0,0,1-9.88-6.66l-1.66-1.23-3.26-2.43c-1.72-1.25-3.31-2.37-4.87-3.41-3.7-2.48-8.59-5.5-13.69-6.93a23.07,23.07,0,0,0-14.71.67c-4.6,1.71-9.36,4.88-14.57,9.7-1,.91-2,1.93-3.35,3.2L57.25,62.8c-4.83,4.77-9.82,9.71-15.83,12.8-7.57,3.87-16.6,3.63-22-.58a13.13,13.13,0,0,1-2.15-2.13,27,27,0,0,1-3.78-7.49c-.3-.8-.62-1.63-.95-2.44a33.7,33.7,0,0,0-2.5-5,10.71,10.71,0,0,0-3.71-3.77A3.55,3.55,0,0,0,6,54C1.21,51.62-3.7,54.94-7,57.64c-.28.23-.56.46-.82.69-2,1.74-4.37,3.75-6.78,5.72"/><path class="cls-40" d="M-15.12,65.06c2.49-2.22,5-4.47,7.1-6.4l.87-.78c3.48-3,8.7-6.84,13.87-4.65l.42.19a10.39,10.39,0,0,1,4,3.68,24.69,24.69,0,0,1,2.5,5c.35.9.68,1.84,1,2.74A26.9,26.9,0,0,0,18,72.24a13.17,13.17,0,0,0,2.08,2.21c5.24,4.44,14.23,5,21.85,1.27,6.31-3.06,11.46-8.17,16.45-13.11l.82-.81c1-1,2.13-2.1,3.3-3.2,5.18-4.9,9.9-8.17,14.42-10a24.45,24.45,0,0,1,8.87-1.88,23.6,23.6,0,0,1,6,.73c4.19,1.05,8.56,3.2,13.73,6.77,1.53,1.06,3.1,2.21,4.79,3.53,1.21.94,2.43,1.92,3.6,2.86l1.24,1A98.2,98.2,0,0,0,125,68.65a41.92,41.92,0,0,0,8,3.9,26.74,26.74,0,0,0,9,1.51c6.91,0,12.36-2.68,14.94-7.26l.21.12c-2.62,4.65-8.15,7.35-15.15,7.38h-.12a27.07,27.07,0,0,1-9-1.52,43,43,0,0,1-8-3.92,98.7,98.7,0,0,1-9.74-7.09l-1.24-1c-1.18-.94-2.39-1.92-3.6-2.86-1.69-1.32-3.25-2.47-4.78-3.52-5.15-3.56-9.48-5.7-13.65-6.74a23.11,23.11,0,0,0-6-.72,24.19,24.19,0,0,0-8.79,1.87c-4.49,1.82-9.18,5.08-14.34,10-1.17,1.1-2.32,2.23-3.3,3.2l-.82.81c-5,5-10.17,10.08-16.51,13.16-7.71,3.73-16.8,3.19-22.12-1.3a14.07,14.07,0,0,1-2.11-2.26,27.13,27.13,0,0,1-3.49-7.5c-.31-.89-.64-1.82-1-2.73a24.1,24.1,0,0,0-2.47-4.91A10.09,10.09,0,0,0,7,53.64l-.41-.19C1.58,51.32-3.56,55.06-7,58.06l-.87.77C-10,60.77-12.46,63-15,65.24"/><path class="cls-41" d="M-8.09,59.16c4.26-4.06,9.85-8.47,15.44-6.43,3,1.1,5.4,4,7.06,8.54.35,1,.67,2,1,3a27.79,27.79,0,0,0,3.21,7.49c5,7.3,16.16,7.93,24,4.33,6.64-3,12-8.34,17.13-13.48,1.11-1.1,2.26-2.24,3.4-3.34,5.78-5.57,13.63-12,23.07-12.45,9.79-.44,18.66,5.94,24.49,10.77,1.26,1,2.52,2.13,3.75,3.18,5.63,4.84,11.45,9.83,18.46,12.38,8.38,3.06,19.64,1.42,24-6.61l.22.11c-4.41,8.15-15.81,9.82-24.29,6.73-7-2.56-12.88-7.58-18.53-12.43-1.22-1.05-2.49-2.13-3.74-3.17C104.78,52.94,96,46.59,86.25,47c-9.36.43-17.16,6.84-22.92,12.38-1.13,1.1-2.28,2.24-3.39,3.35-5.17,5.14-10.52,10.46-17.2,13.52a24.43,24.43,0,0,1-13.31,2,15.74,15.74,0,0,1-11-6.37,27.81,27.81,0,0,1-3.24-7.56c-.31-1-.63-2-1-3C12.55,56.85,10.23,54,7.27,53c-5.47-2-11,2.37-15.19,6.39"/></g></g><g id="BACKGROUND_1" data-name="BACKGROUND 1"><g class="cls-42"><g class="cls-43"><path class="cls-44" d="M-178.88,59.9l.51,45.42s33.24,8,114.79-23S13,98.26,13,98.26l.13-53.39S-41.59,24.48-87.4,60.21-179,52.43-179,52.43Z"/><path class="cls-45" d="M-166.75,8.5l.5,45.43s33.25,8,114.79-23,76.56,16,76.56,16l.12-53.39S-29.46-26.91-75.28,8.82-166.84,1-166.84,1Z"/><path class="cls-46" d="M-174.1,25.57s130.53,47.19,190.4-.5l-.67,17.36S-19.47,56.22-37.63,64.8c-11,5.17-90.88,41-140.17-15.68Z"/><path class="cls-47" d="M-84.11,51.93C-32.48,78.26,4,31.64,4,31.64l1.35,6.89,8.15,41.89s-31,12.16-116.68-4.74-71.86,25.67-71.86,25.67V40.68s47.87-10.67,91,11.25"/></g></g></g></g></svg>