<svg width="240" height="240" xmlns="http://www.w3.org/2000/svg" style="vector-effect: non-scaling-stroke;" stroke="null">
 <!-- Created with Method Draw - http://github.com/duopixel/Method-Draw/ -->

 <g stroke="null">
  <title stroke="null">background</title>
 </g>
 <g stroke="null">
  <title stroke="null">Layer 1</title>
  <!-- Generator: Sketch 53 (72520) - https://sketchapp.com -->
  <desc style="vector-effect: non-scaling-stroke;" stroke="null" transform="matrix(7.015340141870411,0,0,7.015340141870411,0,0) ">Created with Sketch.</desc>
  <!-- Generator: Sketch 53 (72520) - https://sketchapp.com -->
  <desc style="vector-effect: non-scaling-stroke;" stroke="null" transform="matrix(4.674944797513092,0,0,4.674944797513092,0,0) ">Created with Sketch.</desc>
  <g stroke="null" id="svg_28">
   <g transform="matrix(25.331495064710538,0,0,25.331495064710538,-533.6871577409336,-533.2858121657778) " fill-rule="evenodd" fill="none" id="svg_22">
    <g stroke="null" fill-rule="nonzero" fill="#efbc86" id="svg_23">
     <g stroke="null" id="svg_24">
      <g stroke="null" id="svg_25">
       <path stroke="null" id="svg_26" d="m28.62767,23.54075c0.81081,0.81081 1.18379,1.71892 1.18379,2.88648c0,2.27027 -1.64865,3.84865 -4.01081,3.84865l-2.31351,0l-1.34595,-1.34595l0,-7.67567l2.35676,0c1.26486,0 2.32972,0.45406 3.05405,1.21622l1.07567,1.07027zm-5.2108,-1.07568l-0.01622,0l0,0.27027l1.15135,1.14054l0,-0.27567l-1.13513,-1.13514zm1.32973,1.0973l-1.0973,-1.0973l-0.15676,0l1.0973,1.0973l0.15676,0zm0.38378,0l-1.0973,-1.0973l-0.3081,0l1.09729,1.0973l0.30811,0zm-0.61622,-1.0973l-0.4054,0l1.09729,1.0973l0.40541,0l-1.0973,-1.0973zm1.49189,1.10271l-1.07567,-1.07568c-0.11351,-0.01622 -0.22162,-0.02162 -0.34054,-0.02703l1.0973,1.0973l0.11351,0c0.07027,0 0.14054,0 0.2054,0.00541zm0.34595,0.03783l-1.04865,-1.04864c-0.09189,-0.02163 -0.18919,-0.03784 -0.28648,-0.05406l1.07026,1.07027c0.0919,0.00541 0.18379,0.02162 0.26487,0.03243zm0.31351,0.07568l-1.02162,-1.02162c-0.07567,-0.02703 -0.15675,-0.05406 -0.23784,-0.07568l1.04325,1.04325c0.07567,0.01621 0.14594,0.03243 0.21621,0.05405zm0.11892,0.03784c0.07027,0.03243 0.14595,0.06486 0.21081,0.09729l-0.99459,-0.99459c-0.07027,-0.03784 -0.14595,-0.07568 -0.22162,-0.10811l1.0054,1.00541zm-3.38378,1.15135l0.1946,0.19459l-0.04325,0.04324l-0.15135,-0.15135l0,2.83243l1.15135,0l0,-3.83783l-1.15135,-1.12973l0,0.26487l1.09189,1.08648l-0.04324,0.03784l-1.04865,-1.04324l0,0.27027l0.90811,0.91351l-0.03784,0.04324l-0.87027,-0.87567l0,0.27567l0.72973,0.73514l-0.03784,0.04324l-0.69189,-0.6973l0,0.27568l0.55135,0.55675l-0.03784,0.04325l-0.51351,-0.51892l0,0.28108l0.37297,0.37297l-0.04324,0.04325l-0.32973,-0.33514l0,0.27568zm3.50811,-1.21622c-0.18379,-0.28648 -0.42703,-0.52973 -0.71892,-0.71892l0.71892,0.71892zm1.6108,-0.0054l-0.43783,-0.44865c0.29189,0.54594 0.48108,1.22162 0.48108,1.92432c0,0.07568 0,0.15135 -0.00541,0.22162l1.1027,1.10811l0,-0.02703c0,-1.12973 -0.36756,-1.98378 -1.14054,-2.77837zm-3.81621,4.13513c1.57297,-0.08649 2.58919,-1.11892 2.58919,-2.65946c0,-0.4 -0.07027,-0.76757 -0.2,-1.09189c-0.32973,-0.22703 -0.70811,-0.31892 -1.29189,-0.31892l-1.0973,0l0,4.07027zm3.62703,-1.27027l1.14594,1.14594c0.10811,-0.35135 0.17297,-0.72973 0.18378,-1.12973l-1.1081,-1.1081c-0.02703,0.38919 -0.10271,0.75135 -0.22162,1.09189zm1.12432,1.2l-1.14595,-1.14595c-0.1027,0.27027 -0.23243,0.52433 -0.38918,0.75135l1.16756,1.16757c0.15135,-0.23784 0.27568,-0.4973 0.36757,-0.77297zm-0.84324,1.35675c0.16756,-0.16216 0.31351,-0.34594 0.44324,-0.54054l-1.16216,-1.16216c-0.13514,0.18919 -0.28649,0.36757 -0.45946,0.52433l1.17838,1.17837zm-1.69189,-0.77297l1.18378,1.18378c0.16757,-0.11351 0.32432,-0.23783 0.47027,-0.37297l-1.17838,-1.17838c-0.14594,0.13514 -0.3027,0.25946 -0.47567,0.36757zm-0.51892,0.28649l1.18378,1.18378c0.16216,-0.07568 0.31892,-0.16216 0.47027,-0.25405l-1.18378,-1.18379c-0.14595,0.0973 -0.3027,0.17838 -0.47027,0.25406zm-0.50811,0.18919l1.17838,1.17837c0.15675,-0.04324 0.31351,-0.1027 0.45946,-0.16216l-1.18379,-1.18378c-0.14594,0.06486 -0.29729,0.12432 -0.45405,0.16757zm-0.49189,0.11891l1.17297,1.17298c0.15135,-0.02703 0.2973,-0.05946 0.43784,-0.0973l-1.17297,-1.17297c-0.14054,0.03784 -0.28649,0.07027 -0.43784,0.09729zm-0.07027,0.01082c-0.12973,0.02702 -0.26487,0.04324 -0.4,0.05405l1.16216,1.15675c0.14054,-0.0054 0.27568,-0.02162 0.41081,-0.03783l-1.17297,-1.17297zm0.31351,1.22162l0.15676,0c0.07567,0 0.14594,0 0.21621,-0.00541l-1.15675,-1.15676c-0.11892,0.00541 -0.23784,0.01082 -0.36216,0.01082l-0.00541,0l1.15135,1.15135zm-3.24324,-1.15135l1.15135,1.15135l0.07568,0l-1.14595,-1.15135l-0.08108,0zm0.15676,0l1.15135,1.15135l0.0973,0l-1.15135,-1.15135l-0.0973,0zm0.17297,0l1.15135,1.15135l0.12433,0l-1.15135,-1.15135l-0.12433,0zm0.2,0l1.15135,1.15135l0.15676,0l-1.15135,-1.15135l-0.15676,0zm0.23243,0l1.15135,1.15135l0.18919,0l-1.15135,-1.15135l-0.18919,0zm0.26487,0l1.15135,1.15135l0.22703,0l-1.15136,-1.15135l-0.22702,0zm0.30811,0l1.15135,1.15135l0.27567,0l-1.15135,-1.15135l-0.27567,0zm0.35135,0l1.15135,1.15135l0.32973,0l-1.15676,-1.15135l-0.32432,0zm11.67567,-1.17298l1.34594,1.34595l0,1.12973l-5.19999,0l-1.34595,-1.34595l0,-7.67567l5.04324,0l1.34595,1.34595l0,1.06486l-3.83243,0l-0.00541,0.77297l1.87568,0l1.34594,1.34595l0,1.08648l-3.22162,0l0,0.92973l2.64865,0zm1.03784,-5.13513l-1.15135,-1.15135l0,0.90271l1.15135,1.09729l0,-0.84865zm-3.72432,0.84865l-1.14595,-1.09729l-0.08108,0l1.14594,1.09729l0.08109,0zm0.21621,0l-1.15135,-1.09729l-0.12973,0l1.14595,1.09729l0.13513,0zm0.27027,0l-1.15135,-1.09729l-0.18919,0l1.15135,1.09729l0.18919,0zm0.32433,0l-1.14595,-1.09729l-0.24865,0l1.15135,1.09729l0.24325,0zm0.43243,0l-1.15676,-1.09729l-0.34054,0l1.14595,1.09729l0.35135,0zm0.43243,0l-1.15676,-1.09729l-0.34594,0l1.15135,1.09729l0.35135,0zm0.44865,0l-1.15135,-1.09729l-0.36757,0l1.15135,1.09729l0.36757,0zm0.43243,0l-1.14054,-1.09729l-0.36216,0l1.15135,1.09729l0.35135,0zm0.37838,0l-1.14595,-1.09729l-0.29729,0l1.15135,1.09729l0.29189,0zm0.32432,0l-1.14594,-1.09729l-0.24865,0l1.15675,1.09729l0.23784,0zm0.21622,0l-1.14054,-1.09729l-0.14595,0l1.15676,1.09729l0.12973,0zm0.16216,0l-1.14054,-1.09729l-0.08649,0l1.15135,1.09729l0.07568,0zm-4.9027,0.48108l0.26487,0.25406l-0.04325,0.03783l-0.22162,-0.21081l0,0.36216l1.15135,0l0,-0.88108l-1.15135,-1.09729l0,0.22703l1,0.95675l-0.04865,0.03243l-0.95135,-0.9081l0,0.24864l0.81622,0.77838l-0.04865,0.03784l-0.76757,-0.74054l0,0.24865l0.63243,0.6054l-0.04864,0.03784l-0.58379,-0.56216l0,0.24865l0.44865,0.42702l-0.04324,0.03784l-0.40541,-0.38919l0,0.24865zm3.22162,0.7027l0,0.92433l-0.00541,0l1.15676,1.09729l0,-0.87027l-1.15135,-1.15135zm-2.03243,2.02162l0.0973,0l-1.15135,-1.09729l-0.0973,0l1.15135,1.09729zm-0.97297,-1.09729l1.15135,1.09729l0.18919,0l-1.14595,-1.09729l-0.19459,0zm0.27567,0l1.14595,1.09729l0.2973,0l-1.15676,-1.09729l-0.28649,0zm0.37298,0l1.15135,1.09729l0.4054,0l-1.14594,-1.09729l-0.41081,0zm2.07567,1.09729l-1.14054,-1.09729l-0.44324,0l1.14594,1.09729l0.43784,0zm0.51892,0l-1.15135,-1.09729l-0.43243,0l1.15135,1.09729l0.43243,0zm0.37297,0l-1.14054,-1.09729l-0.3027,0l1.15135,1.09729l0.29189,0zm0.27027,0l-1.14594,-1.09729l-0.18919,0l1.15135,1.09729l0.18378,0zm-1.07027,-1.09729l1.15676,1.09729l0.09729,0l-1.14594,-1.09729l-0.10811,0zm-3.03243,1.91891l0.14054,0.13514l-0.04324,0.04324l-0.0973,-0.09189l0,0.17297l1.15135,0l0,-1.04324l-1.15135,-1.09729l0,0.23783l1,0.96216l-0.03784,0.03784l-0.96216,-0.91892l0,0.25406l0.83243,0.79459l-0.04324,0.03784l-0.78919,-0.75676l0,0.24865l0.65946,0.63243l-0.04324,0.03784l-0.61622,-0.58919l0,0.24865l0.48649,0.46487l-0.04325,0.03783l-0.44324,-0.42162l0,0.24865l0.31352,0.2973l-0.04325,0.03784l-0.27027,-0.25946l0,0.24864zm3.99459,0.51892l0,0.91352l1.15135,1.15135l0,-0.91352l-1.15135,-1.15135zm-4.45945,0.91352l-0.52433,0l1.15135,1.15135l0.52433,0l-1.15135,-1.15135zm0.54594,0l-0.47027,0l1.15135,1.15135l0.47568,0l-1.15676,-1.15135zm0.07568,0l1.15675,1.15135l0.42163,0l-1.15676,-1.15135l-0.42162,0zm0.4973,0l1.15675,1.15135l0.37297,0l-1.15135,-1.15135l-0.37837,0zm0.78378,0l-0.32973,0l1.15135,1.15135l0.33513,0l-1.15675,-1.15135zm1.52432,1.15135l-1.15135,-1.15135l-0.2973,0l1.15676,1.15135l0.29189,0zm-1.07567,-1.15135l1.15135,1.15135l0.25946,0l-1.15135,-1.15135l-0.25946,0zm0.33513,0l1.15135,1.15135l0.23243,0l-1.15675,-1.15135l-0.22703,0zm0.3027,0l1.15676,1.15135l0.2,0l-1.15676,-1.15135l-0.2,0zm0.27568,0l1.15675,1.15135l0.17298,0l-1.15676,-1.15135l-0.17297,0zm0.24865,0l1.15675,1.15135l0.15135,0l-1.15675,-1.15135l-0.15135,0zm0.22702,0l1.15676,1.15135l0.12973,0l-1.15676,-1.15135l-0.12973,0zm0.20541,0l1.15676,1.15135l0.1081,0l-1.15135,-1.15135l-0.11351,0zm0.18919,0l1.15135,1.15135l0.0973,0l-1.15676,-1.15135l-0.09189,0zm0.16757,0l1.15675,1.15135l0.07568,0l-1.15676,-1.15135l-0.07567,0zm8.67567,-5.26486l-3.98378,0l0,0.98918l1.96757,0l1.34594,1.34595l0,1.1027l-3.31351,0l0,3.12973l-1.2,0l-1.34594,-1.34595l0,-7.67567l5.18378,0l1.34594,1.34595l0,1.10811zm-1.3027,-2.1946l0,0.94595l1.14594,1.09729l0.00541,0l0,-0.89189l-1.15135,-1.15135zm-2.8,2.04324l0.08649,0l-1.15135,-1.09729l-0.07568,0l1.14054,1.09729zm0.2973,0l-1.15676,-1.09729l-0.11892,0l1.14054,1.09729l0.13514,0zm0.27567,0l-1.15675,-1.09729l-0.18919,0l1.14594,1.09729l0.2,0zm0.35136,0l-1.15136,-1.09729l-0.27027,0l1.14595,1.09729l0.27568,0zm0.48648,0l-1.15135,-1.09729l-0.4,0l1.14054,1.09729l0.41081,0zm0.46487,0l-1.15135,-1.09729l-0.38379,0l1.15135,1.09729l0.38379,0zm0.5081,0l-1.15135,-1.09729l-0.42702,0l1.15135,1.09729l0.42702,0zm0.48108,0l-1.14594,-1.09729l-0.41081,0l1.15675,1.09729l0.4,0zm0.35676,0l-1.15135,-1.09729l-0.27027,0l1.14594,1.09729l0.27568,0zm0.27568,0l-1.15135,-1.09729l-0.1946,0l1.15135,1.09729l0.1946,0zm0.2054,0l-1.14594,-1.09729l-0.12973,0l1.15135,1.09729l0.12432,0zm-1.06486,-1.09729l1.14594,1.09729l0.08108,0l-1.14594,-1.09729l-0.08108,0zm-3.82162,2.23783l1.15135,0l0,-1.09729l-1.15135,-1.1027l0,0.18378l1.02703,0.98919l-0.03784,0.03784l-0.98919,-0.94595l0,0.24865l0.85946,0.82703l-0.04325,0.04324l-0.81621,-0.78919l0,0.24865l0.69189,0.66486l-0.04324,0.04325l-0.64865,-0.62703l0,0.24865l0.52432,0.5027l-0.03783,0.03784l-0.48649,-0.46487l0,0.25406l0.35676,0.34054l-0.03784,0.03784l-0.31892,-0.30271l0,0.24865l0.18919,0.18379l-0.03784,0.03783l-0.15135,-0.14594l0,0.29729zm3.31351,0.25946l0,0.94054l1.15135,1.0973l0,-0.88649l-1.15135,-1.15135zm-3.28108,0.94054l1.14595,1.0973l0.1081,0l-1.15135,-1.0973l-0.1027,0zm0.18378,0l1.14595,1.0973l0.18378,0l-1.14594,-1.0973l-0.18379,0zm0.26487,0l1.14054,1.0973l0.34054,0l-1.15676,-1.0973l-0.32432,0zm0.4054,0l1.15135,1.0973l0.42163,0l-1.14595,-1.0973l-0.42703,0zm0.50811,0l1.14054,1.0973l0.48649,0l-1.14054,-1.0973l-0.48649,0zm0.56216,0l1.14595,1.0973l0.42703,0l-1.15136,-1.0973l-0.42162,0zm0.4973,0l1.15676,1.0973l0.32432,0l-1.14054,-1.0973l-0.34054,0zm0.41622,0l1.14594,1.0973l0.18378,0l-1.14594,-1.0973l-0.18378,0zm0.25946,0l1.15135,1.0973l0.1027,0l-1.14595,-1.0973l-0.1081,0zm-3.12973,3.07568l1.15135,1.15135l0,-3.1027l-0.01081,0.01081l-1.14054,-1.08649l0,0.17838l1.03243,0.99459l-0.03784,0.03784l-0.99459,-0.95135l0,0.24865l0.86486,0.83243l-0.04324,0.04324l-0.82162,-0.79459l0,0.24865l0.6973,0.67027l-0.04325,0.04324l-0.65405,-0.63243l0,0.24865l0.52973,0.50811l-0.03784,0.03783l-0.49189,-0.47027l0,0.25406l0.36216,0.34594l-0.03784,0.03784l-0.32432,-0.30811l0,0.25406l0.19459,0.18378l-0.03783,0.03784l-0.15676,-0.15135l0,1.12973zm-0.98378,0l1.15135,1.15135l0.22162,0l-1.14595,-1.15135l-0.22702,0zm0.49729,0l-0.19459,0l1.15135,1.15135l0.19459,0l-1.15135,-1.15135zm0.07568,0l1.15675,1.15135l0.14054,0l-1.14594,-1.15135l-0.15135,0zm0.22703,0l1.15135,1.15135l0.1027,0l-1.14595,-1.15135l-0.1081,0zm7.27567,-7.71892l1.34595,1.34595l0,7.67567l-1.22162,0l-1.34595,-1.34595l0,-7.67567l1.22162,0zm0.04324,0.34595l1.15135,1.15135l0,-0.08649l-1.15135,-1.15135l0,0.08649zm0,0.23243l1.15135,1.15135l0,-0.15135l-1.15135,-1.15135l0,0.15135zm0,0.31892l1.15135,1.15135l0,-0.24324l-1.15135,-1.15135l0,0.24324zm0,0.44865l1.15135,1.15135l0,-0.36757l-1.15135,-1.15135l0,0.36757zm0,0.61081l1.15135,1.15135l0,-0.53514l-1.15135,-1.15135l0,0.53514zm0,0.84324l1.15135,1.15135l0,-0.76757l-1.15135,-1.15135l0,0.76757zm0,4.91892l1.15135,1.15135l0,-4.84324l-1.15135,-1.15135l0,4.84324zm-0.75675,0l-0.24865,0l1.15135,1.15135l0.24324,0l-1.14594,-1.15135zm1.42162,1.15135l-1.15135,-1.15135l-0.1946,0l1.15135,1.15135l0.1946,0zm-1.07568,-1.15135l1.15676,1.15135l0.14054,0l-1.14595,-1.15135l-0.15135,0zm0.22703,0l1.15135,1.15135l0.1027,0l-1.14594,-1.15135l-0.10811,0zm-23.21622,6.1027c0.52432,0.51892 0.77297,1.10811 0.77297,1.83784c0,1.51351 -1.15675,2.61621 -2.76216,2.61621l-1.37297,0l0,2.74595l-1.21621,0l-1.34595,-1.34595l0,-7.67567l2.72432,0c0.95135,0 1.71351,0.34054 2.12432,0.75136l1.07568,1.07026zm-4.66486,1.25946l0.11351,0.11352l-0.04324,0.04324l-0.07027,-0.07027l0,0.75135l1.0973,0l0,-1.66486l-1.0973,-1.0973l0,0.23243l0.94594,0.96757l-0.03783,0.03784l-0.90811,-0.91892l0,0.25946l0.77838,0.78919l-0.03784,0.03783l-0.74054,-0.74594l0,0.25405l0.61621,0.62162l-0.04324,0.03784l-0.57297,-0.57838l0,0.25406l0.44865,0.45405l-0.04325,0.03784l-0.4054,-0.41081l0,0.25405l0.28108,0.28649l-0.04324,0.03784l-0.23784,-0.23784l0,0.25405zm1.23243,-0.88108l-1.03784,-1.04324l-0.11892,0l1.04865,1.04865l0.04865,-0.00541l0.05946,0zm0.24324,0l-1.04324,-1.04324l-0.16216,0l1.04324,1.04324l0.16216,0zm0.30811,0l-1.04324,-1.04324l-0.23243,0l1.04324,1.04324l0.23243,0zm0.35676,0l-1.04324,-1.04324l-0.28109,0l1.04325,1.04324l0.28108,0zm-0.65406,-1.04324l-0.31351,0l1.04324,1.04324l0.31352,0l-1.04325,-1.04324zm1.35135,1.04324l-1.01081,-1.01081c-0.08108,-0.01621 -0.17297,-0.02162 -0.25945,-0.02702l1.03783,1.03783l0.23243,0zm0.11352,-0.12432l-0.8,-0.8c-0.07027,-0.02703 -0.15135,-0.04865 -0.22703,-0.06487l1,1c0.02162,0 0.04324,0 0.06487,0.00541c-0.01082,-0.04865 -0.02163,-0.09189 -0.03784,-0.14054zm-0.04865,-0.12433c-0.11892,-0.27027 -0.32973,-0.48108 -0.61081,-0.61621l0.61081,0.61621zm1.65405,-0.02162l-0.47567,-0.48108c0.12973,0.29189 0.21621,0.65406 0.21621,1.01622c0,0.06486 0,0.12973 -0.0054,0.18919l0.99459,0.9027c-0.02162,-0.64324 -0.26486,-1.15135 -0.72973,-1.62703zm-3.12432,1.98919c0.93513,0 1.58919,-0.57838 1.58919,-1.4c0,-0.04865 0,-0.0973 -0.00541,-0.14594c-0.09189,-0.01622 -0.18919,-0.02163 -0.28108,-0.02163l-1.48648,0l0,1.56757l0.18378,0zm3.7027,0.62703c0.0973,-0.27027 0.15135,-0.56757 0.15135,-0.88649l0,-0.02703l-1,-0.91351c-0.02703,0.30811 -0.1027,0.59459 -0.22162,0.85405l1.07027,0.97298zm-1.0973,-0.92433c-0.09729,0.2 -0.21621,0.37838 -0.36216,0.54054l1.11351,1.01081c0.12973,-0.17297 0.24325,-0.36756 0.32433,-0.57297l-1.07568,-0.97838zm0.32433,1.96757c0.14594,-0.11352 0.27567,-0.23784 0.39459,-0.37838l-1.11892,-1.01081c-0.12432,0.13514 -0.25946,0.24865 -0.41081,0.35676l1.13514,1.03243zm-1.5946,-0.77838l1.15135,1.04865c0.14595,-0.07027 0.27568,-0.14595 0.4,-0.23784l-1.14054,-1.03243c-0.12973,0.08108 -0.26486,0.15676 -0.41081,0.22162zm-0.45405,0.15676l1.16216,1.05405c0.13514,-0.03784 0.27027,-0.08649 0.3946,-0.14054l-1.15676,-1.04865c-0.12973,0.05406 -0.26486,0.0973 -0.4,0.13514zm-0.43784,0.08108l1.16757,1.05405c0.12973,-0.01622 0.25405,-0.03784 0.37297,-0.06486l-1.16216,-1.05946c-0.12432,0.03243 -0.24865,0.05405 -0.37838,0.07027zm0.74054,1.07567l0.05946,0c0.0973,0 0.1946,-0.0054 0.28649,-0.01081l-1.16216,-1.05405c-0.10811,0.01081 -0.22162,0.01622 -0.33514,0.02162l1.15135,1.04324zm-1.52973,-1.04324l1.15135,1.04324l0.2919,0l-1.14595,-1.04324l-0.2973,0zm0.06487,3.78919l0,-2.74595l0.0054,0l-1.15135,-1.04324l-0.0054,0l0,0.27568l1,0.9081l-0.04325,0.03784l-0.95675,-0.87027l0,0.28649l0.81081,0.73513l-0.04324,0.03784l-0.76757,-0.6973l0,0.28108l0.62162,0.56757l-0.03784,0.03784l-0.58378,-0.52973l0,0.28649l0.43243,0.39459l-0.03784,0.03784l-0.39459,-0.35676l0,0.27568l0.24865,0.22702l-0.03784,0.04325l-0.21081,-0.18919l0,0.84865l1.15135,1.15135zm-1.06486,-3.78919l1.14594,1.04324l0.11892,0l-1.15135,-1.04324l-0.11351,0zm0.18918,0l1.15135,1.04324l0.14595,0l-1.15135,-1.04324l-0.14595,0zm0.23244,0l1.14594,1.04324l0.18379,0l-1.14595,-1.04324l-0.18378,0zm0.25405,0l1.15676,1.04324l0.23783,0l-1.14594,-1.04324l-0.24865,0zm-1.76216,2.63784l1.15135,1.15135l0.23784,0l-1.14595,-1.15135l-0.24324,0zm0.51351,0l-0.19459,0l1.15135,1.15135l0.19459,0l-1.15135,-1.15135zm0.07568,0l1.15675,1.15135l0.14054,0l-1.14594,-1.15135l-0.15135,0zm0.22703,0l1.15135,1.15135l0.1027,0l-1.14595,-1.15135l-0.1081,0zm12.77296,-7.72432l1.29189,1.29189l0,4.27027c0,2.16216 -1.28648,3.57837 -3.23783,3.57837c-1.03243,0 -1.77297,-0.29189 -2.44324,-0.96216l-1.10811,-1.0973c-0.61081,-0.6 -0.94054,-1.5027 -0.94054,-2.65945l0,-4.42162l1.21622,0l1.34594,1.34594l0,4.33513c0,0.33514 0.03784,0.65946 0.12433,0.95135c0.17837,0.04325 0.37297,0.07028 0.57837,0.07028c1.22162,0 1.95676,-0.86487 1.95676,-2.32433l0,-4.37837l1.21621,0zm-4.02702,1.41081l-1.15135,-1.15135l0,0.08648l1.15135,1.15135l0,-0.08648zm4.07027,-1.05946l1.09729,1.0973l0,-0.0919l-1.09729,-1.09189l0,0.08649zm-4.07027,1.37838l0,-0.15135l-1.15135,-1.15135l0,0.15135l1.15135,1.15135zm4.07027,-1.14595l1.09729,1.0973l0,-0.15135l-1.09729,-1.0973l0,0.15135zm-4.07027,1.46487l0,-0.24325l-1.15135,-1.15135l0,0.24325l1.15135,1.15135zm4.07027,-1.14595l1.09729,1.0973l0,-0.24325l-1.09729,-1.09729l0,0.24324zm-4.07027,1.59459l0,-0.36756l-1.15135,-1.15135l0,0.36756l1.15135,1.15135zm4.07027,-1.14594l1.09729,1.0973l0,-0.36757l-1.09729,-1.0973l0,0.36757zm-4.07027,1.75675l0,-0.53513l-1.15135,-1.15135l0,0.53513l1.15135,1.15135zm4.07027,-1.14594l1.09729,1.0973l0,-0.53514l-1.09729,-1.0973l0,0.53514zm-4.07027,1.98919l0,-0.76757l-1.15135,-1.15135l0,0.76757l1.15135,1.15135zm5.16756,-0.81622l-1.09729,-1.0973l0,0.76757l1.09729,1.0973l0,-0.76757zm-6.31891,-0.25946l0,1.5027c0,1.12433 0.46486,1.90811 1.25946,2.2c-0.07027,-0.28108 -0.10811,-0.58378 -0.10811,-0.8973l0,-1.65405l-1.15135,-1.15135zm6.13513,3.99459c0.11892,-0.39459 0.18378,-0.83243 0.18378,-1.3081l0,-1.58379l-1.09729,-1.09729l0,1.54054c0,0.5027 -0.05946,0.95675 -0.17838,1.35675l1.09189,1.09189zm-1.11351,-1.03783c-0.08108,0.26486 -0.18919,0.5081 -0.32433,0.71891l1.08649,1.08649c0.13513,-0.21622 0.24865,-0.45405 0.32973,-0.71351l-1.09189,-1.09189zm0.34594,2.33513c0.14595,-0.14595 0.27568,-0.3027 0.38919,-0.48108l-1.08648,-1.08649c-0.11352,0.17838 -0.24325,0.33514 -0.38919,0.48108l1.08648,1.08649zm-1.54054,-0.74054l1.0973,1.09729c0.14595,-0.09189 0.28108,-0.2 0.4054,-0.31891l-1.09189,-1.09189c-0.12432,0.11891 -0.25946,0.22162 -0.41081,0.31351zm-0.44864,0.22703l1.1027,1.1027c0.13513,-0.05946 0.27027,-0.12433 0.39459,-0.20541l-1.0973,-1.09729c-0.12432,0.07567 -0.25945,0.14054 -0.39999,0.2zm-3.07027,-0.14595l0.58919,0.56216c0.11351,0.10811 0.22702,0.20541 0.34054,0.29189l-0.78919,-0.78919l-0.14054,-0.06486zm0.42702,0.17297c-0.05405,-0.02162 -0.1081,-0.03784 -0.16216,-0.05946l0.90811,0.90811c0.08108,0.04865 0.15676,0.0973 0.23784,0.13514l-0.98379,-0.98379zm2.2,0.10811l1.10811,1.10811c0.12973,-0.03244 0.25405,-0.07027 0.37838,-0.11892l-1.1027,-1.1027c-0.12433,0.04324 -0.25406,0.08108 -0.38379,0.11351zm-2.09189,-0.07568l1.02162,1.02163c0.07027,0.02702 0.14054,0.05945 0.21622,0.08108l-1.04865,-1.04865c-0.06486,-0.01622 -0.12432,-0.03243 -0.18919,-0.05406zm0.2973,0.08109l1.05946,1.05945c0.07567,0.02163 0.15135,0.04325 0.23243,0.05946l-1.07567,-1.07567c-0.07568,-0.01622 -0.14595,-0.02703 -0.21622,-0.04324zm1.37297,0.06486l1.10811,1.10811c0.12432,-0.01081 0.24324,-0.03243 0.35675,-0.05946l-1.1081,-1.10811c-0.11352,0.02703 -0.23243,0.04865 -0.35676,0.05946zm-1.07027,-0.01081l1.08108,1.08108c0.08649,0.01622 0.17297,0.02703 0.25946,0.03784l-1.08648,-1.08649c-0.08649,-0.0054 -0.16757,-0.01621 -0.25406,-0.03243zm0.69189,0.04324l1.0973,1.0973c0.10811,0 0.21622,-0.00541 0.31892,-0.01622l-1.1027,-1.1027c-0.10271,0.01081 -0.21081,0.01622 -0.31352,0.02162zm-0.35675,-0.0054l1.08648,1.08648c0.0973,0.01081 0.18919,0.01622 0.29189,0.01622l-1.09729,-1.0973l-0.07568,0c-0.07027,0 -0.13513,0 -0.2054,-0.0054zm10.69189,-1.36216l1.34594,1.34594l0,1.15676l-4.92432,0l-1.34594,-1.34595l0,-7.67567l1.21621,0l1.34595,1.34595l0,5.17297l2.36216,0zm-2.51351,-5.10811l-1.15135,-1.15135l0,0.08108l1.15135,1.15135l0,-0.08108zm0,0.31352l0,-0.15135l-1.15135,-1.15135l0,0.15135l1.15135,1.15135zm0,0.31892l0,-0.24325l-1.15135,-1.15135l0,0.24325l1.15135,1.15135zm0,0.44864l0,-0.36756l-1.15135,-1.15135l0,0.36756l1.15135,1.15135zm0,0.61081l0,-0.53513l-1.15135,-1.15135l0,0.53513l1.15135,1.15135zm0,0.84325l0,-0.76757l-1.15135,-1.15135l0,0.76757l1.15135,1.15135zm-1.15135,2.57297l1.15135,0l0,-2.4973l-1.15135,-1.15135l0,3.64865zm4.85945,2.35135l0,-0.94054l-1.15135,-1.15135l0,0.94054l1.15135,1.15135zm-5.85945,-1.15135l1.15135,1.15135l0.5027,0l-1.15676,-1.15135l-0.49729,0zm0.57297,0l1.15675,1.15135l0.45406,0l-1.15676,-1.15135l-0.45405,0zm0.52973,0l1.15675,1.15135l0.40541,0l-1.15676,-1.15135l-0.4054,0zm0.48108,0l1.15675,1.15135l0.35676,0l-1.15135,-1.15135l-0.36216,0zm0.43784,0l1.15675,1.15135l0.31892,0l-1.15135,-1.15135l-0.32432,0zm0.4,0l1.15135,1.15135l0.28648,0l-1.15675,-1.15135l-0.28108,0zm0.35675,0l1.15676,1.15135l0.25405,0l-1.15675,-1.15135l-0.25406,0zm0.32973,0l1.15676,1.15135l0.22162,0l-1.15676,-1.15135l-0.22162,0zm0.2973,0l1.15675,1.15135l0.1946,0l-1.15135,-1.15135l-0.2,0zm0.27567,0l1.15135,1.15135l0.17298,0l-1.15676,-1.15135l-0.16757,0zm0.24325,0l1.15675,1.15135l0.14595,0l-1.15135,-1.15135l-0.15135,0zm0.22702,0l1.15135,1.15135l0.12973,0l-1.15675,-1.15135l-0.12433,0zm0.20541,0l1.15135,1.15135l0.10811,0l-1.15135,-1.15135l-0.10811,0zm0.18378,0l1.15135,1.15135l0.09189,0l-1.15135,-1.15135l-0.09189,0zm7.27568,-2.38919c0.41621,0.41621 0.59459,0.87567 0.59459,1.50811c0,1.35675 -1.07027,2.29729 -2.62162,2.29729c-1.12432,0.02162 -1.96216,-0.30811 -2.48648,-0.70811l-1.32973,-1.32973l0,-1.27567l0.12973,-0.05405c0.58378,0.54594 1.39459,0.85405 2.23784,0.85405c0.7027,0 1.27026,-0.25405 1.49189,-0.63784c-0.84325,-0.41081 -1.83243,-0.63783 -2.38919,-1.34594l-0.81622,-1.03784c-0.38919,-0.4973 -0.57837,-0.85946 -0.57837,-1.45405c0,-1.32973 1.05945,-2.24324 2.6054,-2.24324c0.78378,-0.01622 1.57838,0.19459 2.15135,0.56756l1.33513,1.33514l0,1.21081l-0.11892,0.05946c-0.61081,-0.44865 -1.3081,-0.7027 -1.95675,-0.7027c-0.74595,0 -1.3027,0.29729 -1.44865,0.76216c0.75676,0.27027 1.56757,0.54054 2.08108,1.06486l1.11892,1.12973zm-0.97838,-4.61081l0,0.9946l-0.00541,0l1.15676,1.15675l0,-1l-1.15135,-1.15135zm-1.95135,0.35676c-0.04324,-0.00541 -0.08649,-0.00541 -0.12432,-0.00541c-0.08108,0 -0.16217,0.00541 -0.24325,0.01081l1.16757,1.16757c0.10811,-0.01622 0.22703,-0.02703 0.34595,-0.02703l-1.14595,-1.14594zm1.52973,1.16757l-1.11892,-1.11892c-0.10811,-0.02162 -0.22162,-0.03784 -0.33513,-0.04865l1.14594,1.14594c0.1027,0 0.20541,0.01081 0.30811,0.02163zm-0.79459,0.01621l-1.17298,-1.17297c-0.14054,0.02162 -0.27027,0.04865 -0.39459,0.08649l1.18378,1.18378c0.11892,-0.04324 0.24865,-0.07568 0.38379,-0.0973zm1.15675,0.05406l-1.08108,-1.08108c-0.0973,-0.03244 -0.2,-0.06487 -0.3027,-0.08649l1.11351,1.11351c0.08649,0.01081 0.17838,0.03243 0.27027,0.05406zm-1.59459,0.06486l-1.18378,-1.18378c-0.15676,0.05405 -0.28649,0.12973 -0.3946,0.22162l1.19459,1.19459c0.10811,-0.09189 0.23784,-0.16756 0.38379,-0.23243zm1.94054,0.04324l-1.02162,-1.02162c-0.0919,-0.04324 -0.18919,-0.08648 -0.28649,-0.12432l1.06486,1.06486c0.08108,0.02162 0.16217,0.04865 0.24325,0.08108zm-2.65406,0.65946c0.05406,-0.16756 0.15136,-0.31351 0.28649,-0.43783l-1.19459,-1.1946c-0.15135,0.14054 -0.24865,0.31351 -0.27568,0.5027l1.0973,1.0973l0.08648,0.03243zm2.97838,-0.52432l-0.90811,-0.90811c-0.09189,-0.05946 -0.18378,-0.11892 -0.28108,-0.16757l0.98919,0.98919c0.06487,0.02703 0.13514,0.05406 0.2,0.08649zm-0.71351,-0.78919l0.87027,0.87027c0.05405,0.02703 0.11351,0.05946 0.17297,0.0973l-0.99459,-0.9946l-0.04865,0.02703zm-3.45405,0.2973c0,0.45405 0.41621,0.7081 0.97837,0.93513l-0.97837,-0.97838l0,0.04325zm0.4,2.61081c0.19459,0.21081 0.46486,0.37837 0.77297,0.52972l-1.24324,-1.24324c-0.06487,-0.03784 -0.12973,-0.07567 -0.18919,-0.11351c0.19459,0.27027 0.41081,0.55676 0.65946,0.82703zm0.07027,-0.45406c-0.12973,-0.05405 -0.25946,-0.11351 -0.37838,-0.17297l1.22702,1.22702c0.11892,0.05406 0.24325,0.10811 0.37298,0.16217l-1.22162,-1.21622zm0.12432,0.04865l1.22703,1.22162c0.09729,0.04324 0.19459,0.08108 0.29189,0.12433l-1.23784,-1.23784c-0.09189,-0.03243 -0.18378,-0.07027 -0.28108,-0.10811zm0.4,0.15135l1.25405,1.25405c0.08108,0.03244 0.16217,0.07027 0.24325,0.10811l-1.28108,-1.28648c-0.07027,-0.02162 -0.14595,-0.04865 -0.21622,-0.07568zm1.62703,1.41081c0.0054,-0.02703 0.01621,-0.05405 0.02162,-0.08108l-1.14054,-1.14594c-0.05406,-0.02163 -0.11352,-0.04325 -0.16757,-0.05946l1.28649,1.28648zm-0.98919,-1.17838l1.02162,1.02162c0.0054,-0.02162 0.0054,-0.04864 0.0054,-0.07027l0,-0.0054l-0.88648,-0.88649l-0.14054,-0.05946zm1.02162,0.86487l-0.01622,-0.08108l-0.6054,-0.60541c-0.03784,-0.02162 -0.08108,-0.03784 -0.12433,-0.05946l0.74595,0.74595zm1.77297,-0.08108l-0.61081,-0.61081c0.07567,0.2054 0.11892,0.43783 0.11892,0.7081c0,0.13514 -0.01081,0.26487 -0.03243,0.3946l1.07026,1.07027c0.00541,-0.05406 0.00541,-0.10811 0.00541,-0.16216c0,-0.6 -0.16216,-1.01081 -0.55135,-1.4zm-1.83243,-0.12433c-0.07568,-0.14594 -0.21081,-0.27027 -0.38378,-0.37838l0.38378,0.37838zm2.37297,1.75676l-1.07568,-1.07568c-0.05405,0.24865 -0.14594,0.48108 -0.27567,0.68649l1.13513,1.13513c0.11352,-0.22702 0.18919,-0.47567 0.21622,-0.74594zm-0.6,1.24864c0.14054,-0.13513 0.25946,-0.28648 0.35135,-0.45405l-1.13513,-1.13513c-0.10271,0.16216 -0.22703,0.3027 -0.37298,0.43243l1.15676,1.15675zm-1.6054,-0.85405l1.17297,1.17838c0.14594,-0.08649 0.27567,-0.17838 0.39459,-0.28649l-1.16216,-1.16216c-0.12432,0.1027 -0.25946,0.1946 -0.4054,0.27027zm-3.50811,-0.02162l0.86487,0.86486c0.08108,0.05946 0.16216,0.11892 0.25405,0.17298l-0.97838,-0.97297l-0.14054,-0.06487zm3.05405,0.21622l1.17838,1.17837c0.14054,-0.04865 0.27568,-0.1027 0.4,-0.17297l-1.17297,-1.17297c-0.12433,0.06486 -0.25946,0.12432 -0.40541,0.16757zm-2.77837,-0.0973l1.01621,1.01621c0.05946,0.02703 0.11892,0.05946 0.18379,0.08649l-1.04865,-1.04865l-0.15135,-0.05405zm0.26486,0.08649l1.06487,1.07026c0.06486,0.02163 0.13513,0.04865 0.2054,0.07027l-1.09189,-1.09189l-0.17838,-0.04864zm2.07568,0.11891l1.17297,1.17298c0.13513,-0.02163 0.26486,-0.04865 0.38378,-0.08649l-1.17297,-1.17297c-0.12433,0.03243 -0.24865,0.06486 -0.38378,0.08648zm-1.7946,-0.04324l1.0973,1.0973c0.07567,0.02162 0.15135,0.04324 0.23243,0.05946l-1.11892,-1.11892c-0.07027,-0.01081 -0.14054,-0.02703 -0.21081,-0.03784zm0.3027,0.05405l1.11892,1.11892c0.08649,0.01622 0.16757,0.03244 0.25406,0.04325l-1.12973,-1.13514c-0.08649,-0.0054 -0.16216,-0.01621 -0.24325,-0.02703zm2.5946,1.17298l-1.16757,-1.17298c-0.11351,0.02163 -0.23243,0.03244 -0.35135,0.04325l1.16216,1.16216c0.12432,-0.00541 0.24324,-0.01622 0.35676,-0.03243zm-2.26487,-1.13514l1.14054,1.13514c0.0973,0.01081 0.18919,0.02162 0.28649,0.02702l-1.15135,-1.15135c-0.09189,0 -0.18378,-0.0054 -0.27568,-0.01081zm1.50271,1.16216c0.09729,0.00541 0.2,0.00541 0.29729,0.00541l0.02703,0l-1.15676,-1.16216c-0.05946,0.0054 -0.11351,0.0054 -0.17297,0.0054l-0.14594,0l1.15135,1.15135zm8.99459,-2.43243l1.34594,1.34595l0,1.12973l-5.19999,0l-1.34595,-1.34595l0,-7.67567l5.04324,0l1.34595,1.34595l0,1.06486l-3.83243,0l-0.00541,0.77298l1.87568,0l1.34594,1.34594l0,1.08649l-3.22162,0l0,0.92972l2.64865,0zm1.03783,-5.13513l-1.15135,-1.15135l0,0.90271l1.15135,1.09729l0,-0.84865zm-3.72432,0.84865l-1.14594,-1.09729l-0.08108,0l1.14594,1.09729l0.08108,0zm0.21622,0l-1.15135,-1.09729l-0.12973,0l1.14595,1.09729l0.13513,0zm0.27027,0l-1.15135,-1.09729l-0.18919,0l1.15135,1.09729l0.18919,0zm0.32432,0l-1.14594,-1.09729l-0.24865,0l1.15135,1.09729l0.24324,0zm0.43244,0l-1.15676,-1.09729l-0.34054,0l1.14595,1.09729l0.35135,0zm0.43243,0l-1.15676,-1.09729l-0.34594,0l1.15135,1.09729l0.35135,0zm0.44865,0l-1.15135,-1.09729l-0.36757,0l1.15135,1.09729l0.36757,0zm0.43243,0l-1.14054,-1.09729l-0.36216,0l1.15135,1.09729l0.35135,0zm0.37838,0l-1.14595,-1.09729l-0.2973,0l1.15135,1.09729l0.2919,0zm0.32432,0l-1.14594,-1.09729l-0.24865,0l1.15675,1.09729l0.23784,0zm0.21622,0l-1.14054,-1.09729l-0.14595,0l1.15676,1.09729l0.12973,0zm0.16216,0l-1.14054,-1.09729l-0.08649,0l1.15135,1.09729l0.07568,0zm-4.9027,0.48108l0.26487,0.25406l-0.04325,0.03783l-0.22162,-0.21081l0,0.36217l1.15135,0l0,-0.88109l-1.15135,-1.09729l0,0.22703l1,0.95675l-0.04865,0.03243l-0.95135,-0.9081l0,0.24864l0.81622,0.77838l-0.04865,0.03784l-0.76757,-0.74054l0,0.24865l0.63243,0.6054l-0.04865,0.03784l-0.58378,-0.56216l0,0.24865l0.44865,0.42702l-0.04324,0.03784l-0.40541,-0.38919l0,0.24865zm3.22162,0.7027l0,0.92433l-0.00541,0l1.15676,1.09729l0,-0.87027l-1.15135,-1.15135zm-2.03243,2.02162l0.0973,0l-1.15135,-1.09729l-0.0973,0l1.15135,1.09729zm-0.97297,-1.09729l1.15135,1.09729l0.18919,0l-1.14595,-1.09729l-0.19459,0zm0.27567,0l1.14595,1.09729l0.29729,0l-1.15675,-1.09729l-0.28649,0zm0.37297,0l1.15135,1.09729l0.40541,0l-1.14595,-1.09729l-0.41081,0zm2.07568,1.09729l-1.14054,-1.09729l-0.44324,0l1.14594,1.09729l0.43784,0zm0.51892,0l-1.15135,-1.09729l-0.43244,0l1.15135,1.09729l0.43244,0zm0.37297,0l-1.14054,-1.09729l-0.3027,0l1.15135,1.09729l0.29189,0zm0.27027,0l-1.14595,-1.09729l-0.18918,0l1.15135,1.09729l0.18378,0zm-1.07027,-1.09729l1.15676,1.09729l0.09729,0l-1.14594,-1.09729l-0.10811,0zm-3.03243,1.91891l0.14054,0.13514l-0.04324,0.04324l-0.0973,-0.09189l0,0.17297l1.15135,0l0,-1.04324l-1.15135,-1.09729l0,0.23783l1,0.96216l-0.03784,0.03784l-0.96216,-0.91892l0,0.25406l0.83243,0.79459l-0.04324,0.03784l-0.78919,-0.75676l0,0.24865l0.65946,0.63243l-0.04324,0.03784l-0.61622,-0.58919l0,0.24865l0.48649,0.46487l-0.04325,0.03783l-0.44324,-0.42162l0,0.24865l0.31351,0.2973l-0.04324,0.03784l-0.27027,-0.25946l0,0.24864zm3.99459,0.51892l0,0.91352l1.15135,1.15135l0,-0.91352l-1.15135,-1.15135zm-4.45945,0.91352l-0.52433,0l1.15135,1.15135l0.52433,0l-1.15135,-1.15135zm0.54594,0l-0.47027,0l1.15135,1.15135l0.47568,0l-1.15676,-1.15135zm0.07568,0l1.15675,1.15135l0.42162,0l-1.15675,-1.15135l-0.42162,0zm0.49729,0l1.15676,1.15135l0.37297,0l-1.15135,-1.15135l-0.37838,0zm0.78379,0l-0.32973,0l1.15135,1.15135l0.33513,0l-1.15675,-1.15135zm1.52432,1.15135l-1.15135,-1.15135l-0.2973,0l1.15676,1.15135l0.29189,0zm-1.07567,-1.15135l1.15135,1.15135l0.25945,0l-1.15135,-1.15135l-0.25945,0zm0.33513,0l1.15135,1.15135l0.23243,0l-1.15675,-1.15135l-0.22703,0zm0.3027,0l1.15676,1.15135l0.2,0l-1.15676,-1.15135l-0.2,0zm0.27568,0l1.15675,1.15135l0.17298,0l-1.15676,-1.15135l-0.17297,0zm0.24865,0l1.15675,1.15135l0.15135,0l-1.15675,-1.15135l-0.15135,0zm0.22702,0l1.15676,1.15135l0.12973,0l-1.15676,-1.15135l-0.12973,0zm0.20541,0l1.15675,1.15135l0.10811,0l-1.15135,-1.15135l-0.11351,0zm0.18919,0l1.15135,1.15135l0.09729,0l-1.15675,-1.15135l-0.09189,0zm0.16756,0l1.15676,1.15135l0.07568,0l-1.15676,-1.15135l-0.07568,0z"/>
      </g>
     </g>
    </g>
   </g>
  </g>
 </g>
</svg>
