<svg xmlns="http://www.w3.org/2000/svg" viewBox="0 0 378 971"><defs><style>.a{fill:#fff;}.b{fill:none;}.b,.c{stroke:#efbc86;stroke-miterlimit:10;}.c{fill:#efbc86;fill-opacity:0.08;}.d{fill:#eebc83;}</style></defs><path class="a" d="M139.43,22.58a16.82,16.82,0,0,1-1.79,8.09,12.54,12.54,0,0,1-4.89,5.1,14.64,14.64,0,0,1-13.9,0,12.49,12.49,0,0,1-4.87-5.1,17,17,0,0,1-1.79-8.08,17,17,0,0,1,1.79-8.1,12.53,12.53,0,0,1,4.87-5.09,14.6,14.6,0,0,1,13.9,0,12.57,12.57,0,0,1,4.89,5.09A16.89,16.89,0,0,1,139.43,22.58Zm-6.23,0a13.08,13.08,0,0,0-.92-5.2,7.07,7.07,0,0,0-2.58-3.21,7.43,7.43,0,0,0-7.78,0,7.07,7.07,0,0,0-2.58,3.21,13.09,13.09,0,0,0-.91,5.2,13.12,13.12,0,0,0,.91,5.2A7.07,7.07,0,0,0,121.92,31a7.49,7.49,0,0,0,7.78,0,7.07,7.07,0,0,0,2.58-3.21A13.12,13.12,0,0,0,133.2,22.58ZM123.68,27h5.23l2.63,3.38,2.58,3L139,39.51h-5.73l-3.36-4.12L128.18,33Z"/><path class="a" d="M156.49,8V37.12h-6.15V13.87h-.17l-6.66,4.18V12.59L150.71,8Z"/><path class="a" d="M172.69,37.12V32.69L183,23.1c.88-.85,1.62-1.62,2.23-2.3a9,9,0,0,0,1.37-2,5,5,0,0,0,.46-2.14,4,4,0,0,0-.58-2.2A4,4,0,0,0,184.93,13a5,5,0,0,0-2.29-.5,4.83,4.83,0,0,0-2.33.54,3.72,3.72,0,0,0-1.53,1.54,5.07,5.07,0,0,0-.54,2.41H172.4a9.2,9.2,0,0,1,1.3-5,8.53,8.53,0,0,1,3.62-3.25,11.92,11.92,0,0,1,5.37-1.16,12.46,12.46,0,0,1,5.44,1.11,8.62,8.62,0,0,1,3.62,3A7.91,7.91,0,0,1,193,16.24a8.68,8.68,0,0,1-.64,3.26,13.86,13.86,0,0,1-2.3,3.55,49.84,49.84,0,0,1-4.64,4.68l-4.25,4.17v.19h12.22v5Z"/><path class="a" d="M209.29,37.76A11.06,11.06,0,0,1,203,36a11.38,11.38,0,0,1-4.05-5.19,21,21,0,0,1-1.4-8.16A20.84,20.84,0,0,1,199,14.5a11.1,11.1,0,0,1,20.67,0A20.48,20.48,0,0,1,221,22.61a21.32,21.32,0,0,1-1.41,8.18,11.34,11.34,0,0,1-4,5.18A10.85,10.85,0,0,1,209.29,37.76Zm0-5.1a4.5,4.5,0,0,0,4-2.51q1.5-2.52,1.48-7.54a19.17,19.17,0,0,0-.67-5.52,7.14,7.14,0,0,0-1.91-3.3,4.17,4.17,0,0,0-2.89-1.11,4.51,4.51,0,0,0-4,2.48q-1.49,2.49-1.5,7.45a19.74,19.74,0,0,0,.67,5.59,7.28,7.28,0,0,0,1.91,3.35A4.21,4.21,0,0,0,209.29,32.66Z"/><path class="a" d="M225.41,37.12V32.69l10.36-9.59c.88-.85,1.62-1.62,2.22-2.3a8.65,8.65,0,0,0,1.37-2,5,5,0,0,0,.47-2.14,4,4,0,0,0-.58-2.2A4,4,0,0,0,237.66,13a5,5,0,0,0-2.29-.5,4.8,4.8,0,0,0-2.33.54,3.72,3.72,0,0,0-1.53,1.54A5.07,5.07,0,0,0,231,17h-5.84a9.28,9.28,0,0,1,1.29-5A8.59,8.59,0,0,1,230,8.79a12,12,0,0,1,5.37-1.16,12.5,12.5,0,0,1,5.45,1.11,8.68,8.68,0,0,1,3.62,3,7.91,7.91,0,0,1,1.29,4.46,8.69,8.69,0,0,1-.65,3.26,13.52,13.52,0,0,1-2.29,3.55,50.14,50.14,0,0,1-4.65,4.68l-4.24,4.17v.19h12.21v5Z"/><path class="a" d="M263.27,8V37.12h-6.15V13.87H257l-6.66,4.18V12.59L257.49,8Z"/><line class="b" x1="189.39" y1="109.86" x2="189.39" y2="61.86"/><line class="b" x1="213.39" y1="61.86" x2="165.39" y2="61.86"/><rect class="c" x="1.5" y="110" width="375" height="235" rx="12"/><path class="a" d="M51.72,175.94V152.66H66.31v3H55.23v7.09H65.55v3H55.23v7.12H66.45v3Z"/><path class="a" d="M78.89,158.48v2.73H69.36v-2.73Zm-7-4.18h3.39v16.51a2.9,2.9,0,0,0,.3,1.48,1.46,1.46,0,0,0,.77.67,2.8,2.8,0,0,0,1,.18,3.73,3.73,0,0,0,.72-.06l.48-.09.61,2.81a7.62,7.62,0,0,1-.84.23,7.12,7.12,0,0,1-1.36.13,5.93,5.93,0,0,1-2.5-.47,4.31,4.31,0,0,1-1.88-1.55,4.53,4.53,0,0,1-.71-2.63Z"/><path class="a" d="M86.4,165.57v10.37H83V152.66h3.35v8.66h.21a5.08,5.08,0,0,1,1.88-2.24,5.93,5.93,0,0,1,3.3-.83,6.48,6.48,0,0,1,3.14.74,5.12,5.12,0,0,1,2.09,2.2,8.05,8.05,0,0,1,.74,3.64v11.11h-3.4v-10.7a4.2,4.2,0,0,0-1-3,3.57,3.57,0,0,0-2.75-1.06,4.48,4.48,0,0,0-2.16.51,3.69,3.69,0,0,0-1.49,1.49A4.88,4.88,0,0,0,86.4,165.57Z"/><path class="a" d="M109.79,176.29a8.51,8.51,0,0,1-4.44-1.11,7.35,7.35,0,0,1-2.86-3.13,10.47,10.47,0,0,1-1-4.73,10.62,10.62,0,0,1,1-4.73,7.54,7.54,0,0,1,7.06-4.34,8.74,8.74,0,0,1,2.87.49,6.93,6.93,0,0,1,2.48,1.54,7,7,0,0,1,1.74,2.71,11.19,11.19,0,0,1,.64,4v1.2H103.4v-2.54H114a5,5,0,0,0-.55-2.39,4.14,4.14,0,0,0-1.52-1.64,4.76,4.76,0,0,0-4.8.1,4.71,4.71,0,0,0-1.64,1.82,5.23,5.23,0,0,0-.57,2.42v2a6.6,6.6,0,0,0,.62,3,4.36,4.36,0,0,0,1.73,1.87,5.09,5.09,0,0,0,2.6.64,5.22,5.22,0,0,0,1.77-.28,3.61,3.61,0,0,0,2.26-2.21l3.21.58a5.59,5.59,0,0,1-1.38,2.48,6.62,6.62,0,0,1-2.49,1.65A9.25,9.25,0,0,1,109.79,176.29Z"/><path class="a" d="M121.06,175.94V158.48h3.29v2.77h.18a4.22,4.22,0,0,1,1.69-2.22,4.8,4.8,0,0,1,2.74-.81l.76,0,.68.06v3.25a6.2,6.2,0,0,0-.72-.13,7.42,7.42,0,0,0-1.05-.08,4.4,4.4,0,0,0-2.14.51,3.82,3.82,0,0,0-2,3.43v10.66Z"/><path class="a" d="M140.24,176.29a8.47,8.47,0,0,1-4.43-1.11,7.38,7.38,0,0,1-2.87-3.13,10.47,10.47,0,0,1-1-4.73,10.62,10.62,0,0,1,1-4.73,7.54,7.54,0,0,1,7.07-4.34,8.68,8.68,0,0,1,2.86.49,7.06,7.06,0,0,1,2.49,1.54A7.29,7.29,0,0,1,147.1,163a11.43,11.43,0,0,1,.63,4v1.2H133.86v-2.54H144.4a5.13,5.13,0,0,0-.54-2.39,4.17,4.17,0,0,0-1.53-1.64,4.33,4.33,0,0,0-2.3-.6,4.41,4.41,0,0,0-2.5.7,4.69,4.69,0,0,0-1.63,1.82,5.24,5.24,0,0,0-.58,2.42v2a6.6,6.6,0,0,0,.62,3,4.38,4.38,0,0,0,1.74,1.87,5.09,5.09,0,0,0,2.6.64,5.2,5.2,0,0,0,1.76-.28,3.72,3.72,0,0,0,1.38-.83,3.64,3.64,0,0,0,.88-1.38l3.22.58a5.79,5.79,0,0,1-1.38,2.48,6.79,6.79,0,0,1-2.49,1.65A9.3,9.3,0,0,1,140.24,176.29Z"/><path class="a" d="M162.57,168.7V158.48H166v17.46h-3.34v-3h-.18a5.41,5.41,0,0,1-1.93,2.33,5.63,5.63,0,0,1-3.29.92,5.9,5.9,0,0,1-3-.74,5.11,5.11,0,0,1-2-2.21,8.07,8.07,0,0,1-.73-3.63v-11.1h3.4v10.69a4,4,0,0,0,1,2.84,3.35,3.35,0,0,0,2.57,1.06,4.22,4.22,0,0,0,1.91-.48,4.09,4.09,0,0,0,1.58-1.44A4.31,4.31,0,0,0,162.57,168.7Z"/><path class="a" d="M170.54,175.94V158.48h3.26v2.84H174a4.53,4.53,0,0,1,1.78-2.25,5.25,5.25,0,0,1,3-.82,5.08,5.08,0,0,1,2.93.82,4.82,4.82,0,0,1,1.76,2.25h.18a5,5,0,0,1,2-2.23,6.07,6.07,0,0,1,3.25-.84,5.29,5.29,0,0,1,3.88,1.49,6,6,0,0,1,1.51,4.49v11.71h-3.4V164.55a3.13,3.13,0,0,0-1-2.57,3.49,3.49,0,0,0-2.3-.79,3.28,3.28,0,0,0-2.58,1,3.72,3.72,0,0,0-.92,2.61v11.13h-3.39V164.33a3,3,0,0,0-.89-2.28,3.14,3.14,0,0,0-2.3-.86,3.26,3.26,0,0,0-1.78.5,3.84,3.84,0,0,0-1.31,1.4,4.26,4.26,0,0,0-.49,2.08v10.77Z"/><path class="a" d="M207.56,152.66h4.26l7.41,18.09h.28l7.4-18.09h4.27v23.28h-3.35V159.09h-.21l-6.86,16.81H218l-6.86-16.82h-.22v16.86h-3.34Z"/><path class="a" d="M241.1,176.32a7.09,7.09,0,0,1-3-.62,4.91,4.91,0,0,1-2.12-1.8,5.14,5.14,0,0,1-.78-2.9,4.7,4.7,0,0,1,.57-2.43,4.26,4.26,0,0,1,1.53-1.51,8,8,0,0,1,2.16-.84,22.06,22.06,0,0,1,2.43-.43l2.55-.3a3.56,3.56,0,0,0,1.42-.4,1,1,0,0,0,.44-.88v-.08a3.13,3.13,0,0,0-.83-2.31A3.46,3.46,0,0,0,243,161a4.37,4.37,0,0,0-2.7.76,4.06,4.06,0,0,0-1.35,1.68l-3.2-.73a6.25,6.25,0,0,1,1.67-2.58,6.82,6.82,0,0,1,2.53-1.43,9.92,9.92,0,0,1,3-.45,10.56,10.56,0,0,1,2.22.25,6.58,6.58,0,0,1,2.2.89,4.9,4.9,0,0,1,1.69,1.85,6.39,6.39,0,0,1,.66,3.1v11.6h-3.32v-2.39h-.13a4.74,4.74,0,0,1-1,1.29,5.19,5.19,0,0,1-1.7,1.06A6.55,6.55,0,0,1,241.1,176.32Zm.73-2.73a5,5,0,0,0,2.42-.55,3.92,3.92,0,0,0,1.53-1.46,3.73,3.73,0,0,0,.53-1.94v-2.25a1.68,1.68,0,0,1-.7.33,9.27,9.27,0,0,1-1.17.27l-1.29.19-1,.14a7.92,7.92,0,0,0-1.8.42,3,3,0,0,0-1.3.85,2.43,2.43,0,0,0,.45,3.36A4.07,4.07,0,0,0,241.83,173.59Z"/><path class="a" d="M256,155.79a2.13,2.13,0,0,1-1.52-.6,1.94,1.94,0,0,1,0-2.86,2.23,2.23,0,0,1,3,0,1.94,1.94,0,0,1,0,2.86A2.15,2.15,0,0,1,256,155.79Zm-1.72,20.15V158.48h3.4v17.46Z"/><path class="a" d="M265.6,165.57v10.37h-3.4V158.48h3.26v2.84h.22a5,5,0,0,1,1.89-2.23,5.84,5.84,0,0,1,3.25-.84A6.33,6.33,0,0,1,274,159a5,5,0,0,1,2.08,2.21,8,8,0,0,1,.74,3.62v11.11h-3.4v-10.7a4.23,4.23,0,0,0-1-3,3.49,3.49,0,0,0-2.72-1.07,4.23,4.23,0,0,0-2.09.51,3.72,3.72,0,0,0-1.45,1.49A5,5,0,0,0,265.6,165.57Z"/><path class="a" d="M284.71,165.57v10.37h-3.4V158.48h3.26v2.84h.22a5,5,0,0,1,1.89-2.23,5.87,5.87,0,0,1,3.26-.84,6.26,6.26,0,0,1,3.12.75,5,5,0,0,1,2.08,2.21,8,8,0,0,1,.74,3.62v11.11h-3.4v-10.7a4.23,4.23,0,0,0-1-3,3.48,3.48,0,0,0-2.71-1.07,4.24,4.24,0,0,0-2.1.51,3.63,3.63,0,0,0-1.44,1.49A5,5,0,0,0,284.71,165.57Z"/><path class="a" d="M308,176.29a8.51,8.51,0,0,1-4.44-1.11,7.35,7.35,0,0,1-2.86-3.13,10.47,10.47,0,0,1-1-4.73,10.62,10.62,0,0,1,1-4.73,7.51,7.51,0,0,1,7.06-4.34,8.68,8.68,0,0,1,2.86.49,6.88,6.88,0,0,1,2.49,1.54A7,7,0,0,1,314.8,163a11.41,11.41,0,0,1,.64,4v1.2H301.56v-2.54h10.55a5.14,5.14,0,0,0-.55-2.39,4.1,4.1,0,0,0-1.53-1.64,4.31,4.31,0,0,0-2.3-.6,4.4,4.4,0,0,0-2.49.7,4.64,4.64,0,0,0-1.64,1.82A5.23,5.23,0,0,0,303,166v2a6.47,6.47,0,0,0,.62,3,4.36,4.36,0,0,0,1.73,1.87,5.09,5.09,0,0,0,2.6.64,5.16,5.16,0,0,0,1.76-.28,3.72,3.72,0,0,0,1.38-.83A3.64,3.64,0,0,0,312,171l3.22.58a5.79,5.79,0,0,1-1.38,2.48,6.62,6.62,0,0,1-2.49,1.65A9.29,9.29,0,0,1,308,176.29Z"/><path class="a" d="M327.37,158.48v2.73h-9.54v-2.73Zm-7-4.18h3.4v16.51a3,3,0,0,0,.29,1.48,1.5,1.5,0,0,0,.77.67,2.9,2.9,0,0,0,1,.18,3.88,3.88,0,0,0,.72-.06l.47-.09.62,2.81a7.62,7.62,0,0,1-.84.23,7.23,7.23,0,0,1-1.37.13,6,6,0,0,1-2.5-.47,4.28,4.28,0,0,1-1.87-1.55,4.53,4.53,0,0,1-.72-2.63Z"/><path class="a" d="M135.64,214.33V191.06h3.51v20.25h10.54v3Z"/><path class="a" d="M158.5,214.72a7.09,7.09,0,0,1-3-.62,5,5,0,0,1-2.12-1.8,5.14,5.14,0,0,1-.78-2.9,4.7,4.7,0,0,1,.57-2.43,4.13,4.13,0,0,1,1.54-1.51,8,8,0,0,1,2.15-.84,21.82,21.82,0,0,1,2.44-.43l2.54-.3a3.51,3.51,0,0,0,1.42-.4.94.94,0,0,0,.45-.88v-.08a3.09,3.09,0,0,0-.84-2.31,3.45,3.45,0,0,0-2.48-.82,4.33,4.33,0,0,0-2.7.76,4,4,0,0,0-1.36,1.67l-3.19-.72a6.23,6.23,0,0,1,1.66-2.58,6.89,6.89,0,0,1,2.53-1.43,10,10,0,0,1,3-.45,10.42,10.42,0,0,1,2.22.25,6.63,6.63,0,0,1,2.21.89,5,5,0,0,1,1.69,1.85,6.51,6.51,0,0,1,.65,3.1v11.59H163.8V212h-.14a4.74,4.74,0,0,1-1,1.29A5.14,5.14,0,0,1,161,214.3,6.6,6.6,0,0,1,158.5,214.72Zm.74-2.73a4.91,4.91,0,0,0,2.41-.55,4,4,0,0,0,1.54-1.46,3.83,3.83,0,0,0,.53-1.94v-2.25a1.75,1.75,0,0,1-.7.33,9.89,9.89,0,0,1-1.18.27l-1.28.19-1.05.14a7.92,7.92,0,0,0-1.8.42,3.07,3.07,0,0,0-1.29.85,2.1,2.1,0,0,0-.49,1.46,2.16,2.16,0,0,0,.93,1.9A4.1,4.1,0,0,0,159.24,212Z"/><path class="a" d="M182.69,207.1V196.88h3.41v17.45h-3.34v-3h-.18a5.41,5.41,0,0,1-1.93,2.33,5.65,5.65,0,0,1-3.29.92,5.9,5.9,0,0,1-3-.74,5.17,5.17,0,0,1-2-2.21,8.07,8.07,0,0,1-.73-3.63v-11.1H175v10.69a4,4,0,0,0,1,2.84,3.35,3.35,0,0,0,2.57,1.06,4.15,4.15,0,0,0,1.9-.48,4,4,0,0,0,1.58-1.44A4.31,4.31,0,0,0,182.69,207.1Z"/><path class="a" d="M194.06,204v10.36h-3.4V196.88h3.26v2.84h.22a5,5,0,0,1,1.89-2.23,5.84,5.84,0,0,1,3.25-.84,6.3,6.3,0,0,1,3.13.75,5,5,0,0,1,2.08,2.21,8,8,0,0,1,.74,3.62v11.1h-3.4V203.64a4.23,4.23,0,0,0-1-3,3.49,3.49,0,0,0-2.72-1.07,4.23,4.23,0,0,0-2.09.51,3.63,3.63,0,0,0-1.44,1.49A4.88,4.88,0,0,0,194.06,204Z"/><path class="a" d="M217.12,214.69a8,8,0,0,1-4.35-1.16,7.47,7.47,0,0,1-2.8-3.18,11.56,11.56,0,0,1,0-9.36,7.61,7.61,0,0,1,2.82-3.19,7.89,7.89,0,0,1,4.28-1.15,8.22,8.22,0,0,1,3.55.74,6.39,6.39,0,0,1,2.51,2.05,6.18,6.18,0,0,1,1.14,3.08H221a4,4,0,0,0-1.25-2.12,3.68,3.68,0,0,0-2.59-.88,4.28,4.28,0,0,0-2.49.74,4.9,4.9,0,0,0-1.65,2.11,8.26,8.26,0,0,0-.59,3.24,8.41,8.41,0,0,0,.58,3.29,4.88,4.88,0,0,0,1.64,2.15,4.19,4.19,0,0,0,2.51.76,4.15,4.15,0,0,0,1.75-.36,3.52,3.52,0,0,0,1.33-1,4.05,4.05,0,0,0,.76-1.62h3.3a6.33,6.33,0,0,1-3.56,5.12A8.14,8.14,0,0,1,217.12,214.69Z"/><path class="a" d="M231.34,204v10.36h-3.4V191.06h3.35v8.66h.22a5,5,0,0,1,1.88-2.24,5.92,5.92,0,0,1,3.29-.83,6.42,6.42,0,0,1,3.14.74,5,5,0,0,1,2.09,2.2,7.92,7.92,0,0,1,.75,3.64v11.1h-3.4V203.64a4.2,4.2,0,0,0-1-3,3.56,3.56,0,0,0-2.75-1.06,4.46,4.46,0,0,0-2.15.51,3.69,3.69,0,0,0-1.49,1.49A4.88,4.88,0,0,0,231.34,204Z"/><path class="a" d="M95.31,273.2v23.27H92.08L80.25,279.41H80v17.06H76.52V273.2h3.25l11.84,17.09h.22V273.2Z"/><path class="a" d="M107.67,296.83a8.51,8.51,0,0,1-4.44-1.11,7.42,7.42,0,0,1-2.86-3.13,10.47,10.47,0,0,1-1-4.73,10.62,10.62,0,0,1,1-4.73,7.54,7.54,0,0,1,7.06-4.34,8.74,8.74,0,0,1,2.87.49,7,7,0,0,1,2.48,1.53,7.17,7.17,0,0,1,1.74,2.72,11.17,11.17,0,0,1,.64,4v1.21H101.28v-2.55h10.55a5,5,0,0,0-.55-2.38,4.14,4.14,0,0,0-1.52-1.64,4.36,4.36,0,0,0-2.3-.6,4.41,4.41,0,0,0-2.5.7,4.71,4.71,0,0,0-1.64,1.82,5.23,5.23,0,0,0-.57,2.42v2a6.6,6.6,0,0,0,.62,3,4.36,4.36,0,0,0,1.73,1.87,5.13,5.13,0,0,0,2.61.64,5.2,5.2,0,0,0,1.76-.28,3.6,3.6,0,0,0,1.37-.83,3.74,3.74,0,0,0,.89-1.38l3.21.58a5.59,5.59,0,0,1-1.38,2.48,6.62,6.62,0,0,1-2.49,1.65A9.25,9.25,0,0,1,107.67,296.83Z"/><path class="a" d="M122.68,296.47,117.55,279h3.51l3.42,12.82h.17L128.08,279h3.51L135,291.78h.17l3.4-12.76h3.51L137,296.47h-3.47l-3.55-12.6h-.26l-3.54,12.6Z"/><path class="a" d="M169,273.2h3.52v15.31a8.15,8.15,0,0,1-1.14,4.32,8,8,0,0,1-3.23,3,11.62,11.62,0,0,1-9.74,0,8,8,0,0,1-3.23-3,8.15,8.15,0,0,1-1.14-4.32V273.2h3.51v15a5.53,5.53,0,0,0,.7,2.81,4.91,4.91,0,0,0,2,1.93,6.32,6.32,0,0,0,3,.7,6.41,6.41,0,0,0,3.07-.7,4.82,4.82,0,0,0,2-1.93,5.63,5.63,0,0,0,.69-2.81Z"/><path class="a" d="M181.16,273.2v23.27h-3.51V273.2Z"/><path class="a" d="M194.75,296.47V273.2h3.51v20.25h10.55v3Z"/><path class="a" d="M217.61,296.86a7.15,7.15,0,0,1-3-.62,5,5,0,0,1-2.12-1.8,5.14,5.14,0,0,1-.77-2.9,4.7,4.7,0,0,1,.56-2.43,4.13,4.13,0,0,1,1.54-1.51,8,8,0,0,1,2.16-.84,19.27,19.27,0,0,1,2.43-.43L221,286a3.63,3.63,0,0,0,1.42-.4.94.94,0,0,0,.45-.88v-.08a3.08,3.08,0,0,0-.84-2.31,3.37,3.37,0,0,0-2.48-.82,4.31,4.31,0,0,0-2.7.76,4.13,4.13,0,0,0-1.36,1.67l-3.19-.72a6.23,6.23,0,0,1,1.66-2.58,7,7,0,0,1,2.53-1.43,10,10,0,0,1,3-.45,10.58,10.58,0,0,1,2.23.25,6.66,6.66,0,0,1,2.2.89,4.9,4.9,0,0,1,1.69,1.85,6.36,6.36,0,0,1,.66,3.1v11.59h-3.32v-2.38h-.14a4.74,4.74,0,0,1-1,1.29,5.14,5.14,0,0,1-1.69,1.06A6.56,6.56,0,0,1,217.61,296.86Zm.74-2.73a5,5,0,0,0,2.42-.55,3.92,3.92,0,0,0,1.53-1.46,3.83,3.83,0,0,0,.53-1.94v-2.25a1.75,1.75,0,0,1-.7.33,9.45,9.45,0,0,1-1.18.27l-1.28.19-1,.14a8,8,0,0,0-1.8.42,3.07,3.07,0,0,0-1.29.85,2.4,2.4,0,0,0,.45,3.36A4.07,4.07,0,0,0,218.35,294.13Z"/><path class="a" d="M241.81,289.24V279h3.41v17.45h-3.35v-3h-.18a5.46,5.46,0,0,1-1.92,2.33,5.67,5.67,0,0,1-3.29.92,5.93,5.93,0,0,1-3-.74,5.23,5.23,0,0,1-2-2.21,8.07,8.07,0,0,1-.73-3.63V279h3.4v10.69a4,4,0,0,0,1,2.84,3.31,3.31,0,0,0,2.56,1.06,4.22,4.22,0,0,0,1.91-.48,4.1,4.1,0,0,0,1.58-1.44A4.39,4.39,0,0,0,241.81,289.24Z"/><path class="a" d="M253.17,286.11v10.36h-3.4V279H253v2.84h.22a5,5,0,0,1,1.89-2.23,5.87,5.87,0,0,1,3.26-.84,6.26,6.26,0,0,1,3.12.75,5,5,0,0,1,2.08,2.21,8,8,0,0,1,.74,3.62v11.1h-3.4V285.78a4.23,4.23,0,0,0-1-3,3.48,3.48,0,0,0-2.71-1.07,4.24,4.24,0,0,0-2.1.51,3.63,3.63,0,0,0-1.44,1.49A5,5,0,0,0,253.17,286.11Z"/><path class="a" d="M276.24,296.83a8,8,0,0,1-4.36-1.16,7.53,7.53,0,0,1-2.8-3.18,10.67,10.67,0,0,1-1-4.66,10.48,10.48,0,0,1,1-4.7,7.54,7.54,0,0,1,7.1-4.34,8.22,8.22,0,0,1,3.55.74,6.36,6.36,0,0,1,2.52,2.05,6.18,6.18,0,0,1,1.14,3.08H280.1a4,4,0,0,0-1.24-2.12,3.72,3.72,0,0,0-2.6-.88,4.18,4.18,0,0,0-2.48.74,4.92,4.92,0,0,0-1.66,2.11,8.22,8.22,0,0,0-.59,3.24,8.6,8.6,0,0,0,.58,3.29,5,5,0,0,0,1.64,2.15,4.51,4.51,0,0,0,4.27.4,3.62,3.62,0,0,0,1.33-1,3.81,3.81,0,0,0,.75-1.61h3.31a6.3,6.3,0,0,1-3.56,5.11A8,8,0,0,1,276.24,296.83Z"/><path class="a" d="M290.45,286.11v10.36h-3.39V273.2h3.35v8.66h.21a5,5,0,0,1,1.88-2.24,5.92,5.92,0,0,1,3.29-.83,6.49,6.49,0,0,1,3.15.74,5.12,5.12,0,0,1,2.09,2.2,8.05,8.05,0,0,1,.74,3.64v11.1h-3.4V285.78a4.25,4.25,0,0,0-1-3,3.57,3.57,0,0,0-2.75-1.06,4.48,4.48,0,0,0-2.16.51,3.69,3.69,0,0,0-1.49,1.49A4.88,4.88,0,0,0,290.45,286.11Z"/><path class="d" d="M179.41,244.44v-3.83h19.2v3.83Zm7.68,7.69v-19.2h3.82v19.2Z"/><rect class="c" x="1.5" y="393" width="375" height="180" rx="12"/><path class="a" d="M67.77,472.5V449.23H82.2v3H71.28v7.1h9.89v3H71.28V472.5Z"/><path class="a" d="M91.26,472.89a7.09,7.09,0,0,1-3-.62,4.91,4.91,0,0,1-2.12-1.8,5.14,5.14,0,0,1-.78-2.9,4.7,4.7,0,0,1,.57-2.43,4.18,4.18,0,0,1,1.53-1.51,8.23,8.23,0,0,1,2.16-.84,22.06,22.06,0,0,1,2.43-.43l2.55-.3a3.56,3.56,0,0,0,1.42-.4,1,1,0,0,0,.44-.88v-.08a3.13,3.13,0,0,0-.83-2.31,3.46,3.46,0,0,0-2.49-.82,4.37,4.37,0,0,0-2.7.76A4.1,4.1,0,0,0,89.09,460l-3.2-.72a6.25,6.25,0,0,1,1.67-2.58,6.82,6.82,0,0,1,2.53-1.43,9.92,9.92,0,0,1,3-.45,10.49,10.49,0,0,1,2.22.25,6.58,6.58,0,0,1,2.2.89,4.9,4.9,0,0,1,1.69,1.85,6.39,6.39,0,0,1,.66,3.1V472.5H96.55v-2.38h-.13a4.74,4.74,0,0,1-1,1.29,5.19,5.19,0,0,1-1.7,1.06A6.55,6.55,0,0,1,91.26,472.89Zm.74-2.73a4.91,4.91,0,0,0,2.41-.55,3.92,3.92,0,0,0,1.53-1.46,3.73,3.73,0,0,0,.53-1.94V464a1.68,1.68,0,0,1-.7.33,9.27,9.27,0,0,1-1.17.27l-1.29.19-1,.14a7.92,7.92,0,0,0-1.8.42,3.1,3.1,0,0,0-1.3.85,2.43,2.43,0,0,0,.45,3.36A4.08,4.08,0,0,0,92,470.16Z"/><path class="a" d="M107.79,462.14V472.5h-3.4V455.05h3.26v2.84h.22a5,5,0,0,1,1.89-2.23,5.87,5.87,0,0,1,3.26-.84,6.26,6.26,0,0,1,3.12.75,5,5,0,0,1,2.08,2.21,7.86,7.86,0,0,1,.74,3.62v11.1h-3.4V461.81a4.27,4.27,0,0,0-1-3,3.5,3.5,0,0,0-2.72-1.07,4.24,4.24,0,0,0-2.1.51,3.63,3.63,0,0,0-1.44,1.49A5,5,0,0,0,107.79,462.14Z"/><path class="a" d="M131.65,455.05v2.73h-9.53v-2.73Zm-7-4.18h3.39v16.51a2.9,2.9,0,0,0,.3,1.48,1.46,1.46,0,0,0,.77.67,2.82,2.82,0,0,0,1,.18,3.69,3.69,0,0,0,.71-.06l.48-.09.61,2.81a6.53,6.53,0,0,1-.84.23,7.12,7.12,0,0,1-1.36.13,5.78,5.78,0,0,1-2.5-.48,4.28,4.28,0,0,1-1.88-1.54,4.6,4.6,0,0,1-.71-2.63Z"/><path class="a" d="M142.57,472.86a8,8,0,0,1-4.28-1.13,7.55,7.55,0,0,1-2.84-3.15,10.45,10.45,0,0,1-1-4.72,10.58,10.58,0,0,1,1-4.75,7.52,7.52,0,0,1,2.84-3.16,8.69,8.69,0,0,1,8.57,0,7.52,7.52,0,0,1,2.84,3.16,10.58,10.58,0,0,1,1,4.75,10.45,10.45,0,0,1-1,4.72,7.55,7.55,0,0,1-2.84,3.15A8,8,0,0,1,142.57,472.86Zm0-2.86a4,4,0,0,0,2.63-.84,4.87,4.87,0,0,0,1.55-2.23,9.56,9.56,0,0,0,0-6.16,4.93,4.93,0,0,0-1.55-2.25,4,4,0,0,0-2.63-.86,4.08,4.08,0,0,0-2.66.86,4.93,4.93,0,0,0-1.55,2.25,9.56,9.56,0,0,0,0,6.16,4.87,4.87,0,0,0,1.55,2.23A4.13,4.13,0,0,0,142.59,470Z"/><path class="a" d="M154.5,472.5V455.05h3.26v2.84H158a4.55,4.55,0,0,1,1.79-2.25,5.19,5.19,0,0,1,3-.82,5.09,5.09,0,0,1,2.94.82,4.88,4.88,0,0,1,1.76,2.25h.18a4.92,4.92,0,0,1,2-2.23,6.07,6.07,0,0,1,3.25-.84,5.31,5.31,0,0,1,3.88,1.49,6.07,6.07,0,0,1,1.5,4.49v11.7h-3.4V461.12a3.16,3.16,0,0,0-1-2.57,3.53,3.53,0,0,0-2.31-.8,3.32,3.32,0,0,0-2.58,1,3.76,3.76,0,0,0-.92,2.61V472.5h-3.38V460.9a3,3,0,0,0-.89-2.28,3.15,3.15,0,0,0-2.31-.87,3.32,3.32,0,0,0-1.78.51,3.81,3.81,0,0,0-1.3,1.4,4.27,4.27,0,0,0-.5,2.08V472.5Z"/><path class="a" d="M191.52,449.23h4.26l7.41,18.09h.27l7.41-18.09h4.26V472.5h-3.34V455.66h-.22l-6.86,16.81h-2.77l-6.87-16.82h-.21V472.5h-3.34Z"/><path class="a" d="M225.05,472.89a7.09,7.09,0,0,1-3-.62,5,5,0,0,1-2.12-1.8,5.14,5.14,0,0,1-.78-2.9,4.7,4.7,0,0,1,.57-2.43,4.13,4.13,0,0,1,1.54-1.51,8,8,0,0,1,2.15-.84,21.82,21.82,0,0,1,2.44-.43l2.54-.3a3.51,3.51,0,0,0,1.42-.4.94.94,0,0,0,.45-.88v-.08a3.09,3.09,0,0,0-.84-2.31,3.43,3.43,0,0,0-2.48-.82,4.33,4.33,0,0,0-2.7.76,4,4,0,0,0-1.36,1.67l-3.19-.72a6.23,6.23,0,0,1,1.66-2.58,6.89,6.89,0,0,1,2.53-1.43,10,10,0,0,1,3-.45,10.42,10.42,0,0,1,2.22.25,6.63,6.63,0,0,1,2.21.89,5,5,0,0,1,1.69,1.85,6.51,6.51,0,0,1,.65,3.1V472.5h-3.31v-2.38h-.14a4.74,4.74,0,0,1-1,1.29,5.14,5.14,0,0,1-1.69,1.06A6.6,6.6,0,0,1,225.05,472.89Zm.74-2.73a4.91,4.91,0,0,0,2.41-.55,3.88,3.88,0,0,0,1.54-1.46,3.83,3.83,0,0,0,.53-1.94V464a1.75,1.75,0,0,1-.7.33,9.89,9.89,0,0,1-1.18.27l-1.28.19-1.05.14a7.92,7.92,0,0,0-1.8.42,3.07,3.07,0,0,0-1.29.85,2.1,2.1,0,0,0-.49,1.46,2.16,2.16,0,0,0,.93,1.9A4.12,4.12,0,0,0,225.79,470.16Z"/><path class="a" d="M239.9,452.36a2.11,2.11,0,0,1-1.51-.6,1.94,1.94,0,0,1,0-2.86,2.11,2.11,0,0,1,1.51-.6,2.13,2.13,0,0,1,1.52.6,1.94,1.94,0,0,1,0,2.86A2.13,2.13,0,0,1,239.9,452.36Zm-1.71,20.14V455.05h3.39V472.5Z"/><path class="a" d="M249.55,462.14V472.5h-3.4V455.05h3.26v2.84h.22a5,5,0,0,1,1.89-2.23,5.87,5.87,0,0,1,3.26-.84,6.26,6.26,0,0,1,3.12.75,5,5,0,0,1,2.08,2.21,7.86,7.86,0,0,1,.74,3.62v11.1h-3.4V461.81a4.23,4.23,0,0,0-1-3,3.47,3.47,0,0,0-2.71-1.07,4.24,4.24,0,0,0-2.1.51,3.63,3.63,0,0,0-1.44,1.49A5,5,0,0,0,249.55,462.14Z"/><path class="a" d="M268.66,462.14V472.5h-3.39V455.05h3.26v2.84h.21a5.07,5.07,0,0,1,1.9-2.23,5.84,5.84,0,0,1,3.25-.84,6.33,6.33,0,0,1,3.13.75,5.07,5.07,0,0,1,2.08,2.21,8,8,0,0,1,.73,3.62v11.1h-3.39V461.81a4.23,4.23,0,0,0-1-3,3.5,3.5,0,0,0-2.72-1.07,4.2,4.2,0,0,0-2.09.51,3.65,3.65,0,0,0-1.45,1.49A5,5,0,0,0,268.66,462.14Z"/><path class="a" d="M291.9,472.86a8.51,8.51,0,0,1-4.44-1.11,7.42,7.42,0,0,1-2.86-3.13,10.47,10.47,0,0,1-1-4.73,10.62,10.62,0,0,1,1-4.73,7.54,7.54,0,0,1,7.06-4.34,8.74,8.74,0,0,1,2.87.49,7.06,7.06,0,0,1,2.49,1.54,7.15,7.15,0,0,1,1.73,2.71,11.19,11.19,0,0,1,.64,4v1.2H285.52v-2.55h10.54a5.12,5.12,0,0,0-.54-2.38,4.24,4.24,0,0,0-1.53-1.64,4.33,4.33,0,0,0-2.3-.6,4.41,4.41,0,0,0-2.5.7,4.61,4.61,0,0,0-1.63,1.82,5.12,5.12,0,0,0-.58,2.42v2a6.6,6.6,0,0,0,.62,3,4.36,4.36,0,0,0,1.73,1.87,5.13,5.13,0,0,0,2.61.64,5.2,5.2,0,0,0,1.76-.28,3.6,3.6,0,0,0,1.37-.83,3.66,3.66,0,0,0,.89-1.38l3.22.58a5.7,5.7,0,0,1-1.39,2.48,6.66,6.66,0,0,1-2.48,1.65A9.3,9.3,0,0,1,291.9,472.86Z"/><path class="a" d="M311.32,455.05v2.73h-9.53v-2.73Zm-7-4.18h3.39v16.51a2.9,2.9,0,0,0,.3,1.48,1.46,1.46,0,0,0,.77.67,2.8,2.8,0,0,0,1,.18,3.73,3.73,0,0,0,.72-.06l.48-.09.61,2.81a7.62,7.62,0,0,1-.84.23,7.12,7.12,0,0,1-1.36.13,5.78,5.78,0,0,1-2.5-.48,4.22,4.22,0,0,1-1.88-1.54,4.53,4.53,0,0,1-.71-2.63Z"/><path class="a" d="M135.64,510.9V487.63h3.51v20.25h10.54v3Z"/><path class="a" d="M158.5,511.29a7.09,7.09,0,0,1-3-.62,5,5,0,0,1-2.12-1.8,5.14,5.14,0,0,1-.78-2.9,4.7,4.7,0,0,1,.57-2.43,4.13,4.13,0,0,1,1.54-1.51,8,8,0,0,1,2.15-.84,21.82,21.82,0,0,1,2.44-.43l2.54-.3a3.51,3.51,0,0,0,1.42-.4.94.94,0,0,0,.45-.88v-.08a3.09,3.09,0,0,0-.84-2.31,3.45,3.45,0,0,0-2.48-.82,4.33,4.33,0,0,0-2.7.76,4,4,0,0,0-1.36,1.67l-3.19-.72a6.23,6.23,0,0,1,1.66-2.58,6.89,6.89,0,0,1,2.53-1.43,10,10,0,0,1,3-.45,10.42,10.42,0,0,1,2.22.25,6.63,6.63,0,0,1,2.21.89,5,5,0,0,1,1.69,1.85,6.51,6.51,0,0,1,.65,3.1V510.9H163.8v-2.38h-.14a4.74,4.74,0,0,1-1,1.29,5.14,5.14,0,0,1-1.69,1.06A6.6,6.6,0,0,1,158.5,511.29Zm.74-2.73a4.91,4.91,0,0,0,2.41-.55,4,4,0,0,0,1.54-1.46,3.83,3.83,0,0,0,.53-1.94v-2.25a1.75,1.75,0,0,1-.7.33,9.89,9.89,0,0,1-1.18.27l-1.28.19-1.05.14a7.92,7.92,0,0,0-1.8.42,3.07,3.07,0,0,0-1.29.85,2.1,2.1,0,0,0-.49,1.46,2.16,2.16,0,0,0,.93,1.9A4.1,4.1,0,0,0,159.24,508.56Z"/><path class="a" d="M182.69,503.67V493.45h3.41V510.9h-3.34v-3h-.18a5.41,5.41,0,0,1-1.93,2.33,5.65,5.65,0,0,1-3.29.92,5.9,5.9,0,0,1-3-.74,5.17,5.17,0,0,1-2-2.21,8.07,8.07,0,0,1-.73-3.63v-11.1H175v10.69a4,4,0,0,0,1,2.84,3.35,3.35,0,0,0,2.57,1.06,4.15,4.15,0,0,0,1.9-.48,4,4,0,0,0,1.58-1.44A4.31,4.31,0,0,0,182.69,503.67Z"/><path class="a" d="M194.06,500.54V510.9h-3.4V493.45h3.26v2.84h.22a5,5,0,0,1,1.89-2.23,5.84,5.84,0,0,1,3.25-.84,6.3,6.3,0,0,1,3.13.75,5,5,0,0,1,2.08,2.21,8,8,0,0,1,.74,3.62v11.1h-3.4V500.21a4.23,4.23,0,0,0-1-3,3.49,3.49,0,0,0-2.72-1.07,4.23,4.23,0,0,0-2.09.51,3.63,3.63,0,0,0-1.44,1.49A4.88,4.88,0,0,0,194.06,500.54Z"/><path class="a" d="M217.12,511.26a8,8,0,0,1-4.35-1.16,7.53,7.53,0,0,1-2.8-3.18,11.56,11.56,0,0,1,0-9.36,7.61,7.61,0,0,1,2.82-3.19,7.89,7.89,0,0,1,4.28-1.15,8.22,8.22,0,0,1,3.55.74,6.39,6.39,0,0,1,2.51,2.05,6.18,6.18,0,0,1,1.14,3.08H221a4,4,0,0,0-1.25-2.12,3.68,3.68,0,0,0-2.59-.88,4.21,4.21,0,0,0-2.49.74,4.9,4.9,0,0,0-1.65,2.11,8.26,8.26,0,0,0-.59,3.24,8.41,8.41,0,0,0,.58,3.29,4.88,4.88,0,0,0,1.64,2.15,4.19,4.19,0,0,0,2.51.76,4.15,4.15,0,0,0,1.75-.36,3.52,3.52,0,0,0,1.33-1,4.05,4.05,0,0,0,.76-1.62h3.3a6.33,6.33,0,0,1-3.56,5.12A8.14,8.14,0,0,1,217.12,511.26Z"/><path class="a" d="M231.34,500.54V510.9h-3.4V487.63h3.35v8.66h.22a5,5,0,0,1,1.88-2.24,5.92,5.92,0,0,1,3.29-.83,6.42,6.42,0,0,1,3.14.74,5,5,0,0,1,2.09,2.2,7.92,7.92,0,0,1,.75,3.64v11.1h-3.4V500.21a4.2,4.2,0,0,0-1-3,3.56,3.56,0,0,0-2.75-1.06,4.46,4.46,0,0,0-2.15.51,3.69,3.69,0,0,0-1.49,1.49A4.88,4.88,0,0,0,231.34,500.54Z"/><rect class="c" x="1.5" y="621" width="375" height="235" rx="12"/><path class="a" d="M64,667.66h4L74,678.24h.25l6.08-10.58h4L75.91,681.8v9.14h-3.5V681.8Z"/><path class="a" d="M89,670.79a2.11,2.11,0,0,1-1.51-.6,1.94,1.94,0,0,1,0-2.86,2.11,2.11,0,0,1,1.51-.6,2.13,2.13,0,0,1,1.52.6,1.94,1.94,0,0,1,0,2.86A2.13,2.13,0,0,1,89,670.79Zm-1.71,20.15V673.48h3.4v17.46Z"/><path class="a" d="M102.8,691.29a8.51,8.51,0,0,1-4.44-1.11,7.35,7.35,0,0,1-2.86-3.13,10.47,10.47,0,0,1-1-4.73,10.62,10.62,0,0,1,1-4.73,7.72,7.72,0,0,1,2.81-3.19,7.84,7.84,0,0,1,4.25-1.15,8.68,8.68,0,0,1,2.86.49,6.88,6.88,0,0,1,2.49,1.54,7.17,7.17,0,0,1,1.74,2.71,11.41,11.41,0,0,1,.64,4v1.2H96.41v-2.54H107a5.14,5.14,0,0,0-.55-2.39,4.1,4.1,0,0,0-1.53-1.64,4.31,4.31,0,0,0-2.3-.6,4.38,4.38,0,0,0-2.49.7,4.64,4.64,0,0,0-1.64,1.82,5.23,5.23,0,0,0-.57,2.42v2a6.47,6.47,0,0,0,.62,3,4.36,4.36,0,0,0,1.73,1.87,5.09,5.09,0,0,0,2.6.64,5.2,5.2,0,0,0,1.76-.28,3.72,3.72,0,0,0,1.38-.83,3.64,3.64,0,0,0,.88-1.38l3.22.58a5.79,5.79,0,0,1-1.38,2.48,6.62,6.62,0,0,1-2.49,1.65A9.29,9.29,0,0,1,102.8,691.29Z"/><path class="a" d="M117.47,667.66v23.28h-3.4V667.66Z"/><path class="a" d="M128.57,691.28a6.74,6.74,0,0,1-3.77-1.09,7.31,7.31,0,0,1-2.59-3.1,11.53,11.53,0,0,1-.94-4.85,11.32,11.32,0,0,1,1-4.84,7.16,7.16,0,0,1,2.61-3.08,6.82,6.82,0,0,1,3.76-1.07,5.46,5.46,0,0,1,2.62.54,4.86,4.86,0,0,1,1.55,1.26,11.66,11.66,0,0,1,.85,1.26h.21v-8.65h3.4v23.28H133.9v-2.72h-.29a8.45,8.45,0,0,1-.88,1.27,4.79,4.79,0,0,1-1.57,1.25A5.44,5.44,0,0,1,128.57,691.28Zm.75-2.9a4,4,0,0,0,2.48-.78,4.79,4.79,0,0,0,1.55-2.16,9.11,9.11,0,0,0,.53-3.23,8.83,8.83,0,0,0-.53-3.18,4.73,4.73,0,0,0-1.53-2.13,4.49,4.49,0,0,0-5.06,0,4.86,4.86,0,0,0-1.54,2.17,8.84,8.84,0,0,0-.51,3.1,9,9,0,0,0,.52,3.15,5,5,0,0,0,1.55,2.21A4,4,0,0,0,129.32,688.38Z"/><path class="a" d="M165.47,673.48l-6.33,17.46H155.5l-6.34-17.46h3.65l4.42,13.43h.18l4.41-13.43Z"/><path class="a" d="M168.61,690.94v-2.55l7.88-8.16c.84-.89,1.53-1.66,2.08-2.33a9.22,9.22,0,0,0,1.24-1.92,4.71,4.71,0,0,0,.41-1.93,3.69,3.69,0,0,0-.55-2,3.56,3.56,0,0,0-1.49-1.3,4.72,4.72,0,0,0-2.12-.46,4.45,4.45,0,0,0-2.18.51,3.51,3.51,0,0,0-1.44,1.44,4.58,4.58,0,0,0-.5,2.18h-3.35a7,7,0,0,1,1-3.71,6.68,6.68,0,0,1,2.68-2.48,8.43,8.43,0,0,1,3.88-.88,8.23,8.23,0,0,1,3.86.87,6.55,6.55,0,0,1,2.62,2.37,6.16,6.16,0,0,1,.95,3.37,6.78,6.78,0,0,1-.49,2.53,11.38,11.38,0,0,1-1.67,2.76,47.1,47.1,0,0,1-3.32,3.67l-4.62,4.84v.17h10.47v3Z"/><path class="a" d="M197,690.94V667.66h3.52v20.25h10.54v3Z"/><path class="a" d="M219.9,691.32a7.09,7.09,0,0,1-3-.62,4.91,4.91,0,0,1-2.12-1.8A5.14,5.14,0,0,1,214,686a4.7,4.7,0,0,1,.57-2.43,4.26,4.26,0,0,1,1.53-1.51,8.23,8.23,0,0,1,2.16-.84,22.06,22.06,0,0,1,2.43-.43l2.55-.3a3.56,3.56,0,0,0,1.42-.4,1,1,0,0,0,.44-.88v-.08a3.13,3.13,0,0,0-.83-2.31,3.46,3.46,0,0,0-2.49-.82,4.32,4.32,0,0,0-2.69.76,4,4,0,0,0-1.36,1.68l-3.2-.73a6.25,6.25,0,0,1,1.67-2.58,6.82,6.82,0,0,1,2.53-1.43,10,10,0,0,1,3-.45,10.42,10.42,0,0,1,2.22.25,6.71,6.71,0,0,1,2.21.89,5,5,0,0,1,1.68,1.85,6.39,6.39,0,0,1,.66,3.1v11.6h-3.32v-2.39h-.13a4.74,4.74,0,0,1-1,1.29,5.25,5.25,0,0,1-1.69,1.06A6.6,6.6,0,0,1,219.9,691.32Zm.74-2.73a4.91,4.91,0,0,0,2.41-.55,4,4,0,0,0,1.54-1.46,3.82,3.82,0,0,0,.52-1.94v-2.25a1.69,1.69,0,0,1-.69.33,9.89,9.89,0,0,1-1.18.27l-1.29.19-1,.14a7.92,7.92,0,0,0-1.8.42,3.1,3.1,0,0,0-1.3.85,2.43,2.43,0,0,0,.45,3.36A4.08,4.08,0,0,0,220.64,688.59Z"/><path class="a" d="M244.09,683.7V673.48h3.41v17.46h-3.34v-3H244a5.48,5.48,0,0,1-1.93,2.33,5.65,5.65,0,0,1-3.29.92,5.9,5.9,0,0,1-3-.74,5.11,5.11,0,0,1-2-2.21,8.07,8.07,0,0,1-.74-3.63v-11.1h3.4v10.69a4,4,0,0,0,1,2.84,3.35,3.35,0,0,0,2.57,1.06,4.18,4.18,0,0,0,1.9-.48,4,4,0,0,0,1.58-1.44A4.31,4.31,0,0,0,244.09,683.7Z"/><path class="a" d="M255.45,680.57v10.37h-3.39V673.48h3.26v2.84h.21a5.07,5.07,0,0,1,1.9-2.23,5.84,5.84,0,0,1,3.25-.84,6.33,6.33,0,0,1,3.13.75,5.07,5.07,0,0,1,2.08,2.21,8,8,0,0,1,.73,3.62v11.11h-3.39v-10.7a4.23,4.23,0,0,0-1-3,3.5,3.5,0,0,0-2.72-1.07,4.2,4.2,0,0,0-2.09.51A3.65,3.65,0,0,0,256,678.2,5,5,0,0,0,255.45,680.57Z"/><path class="a" d="M278.52,691.29a8,8,0,0,1-4.36-1.16,7.54,7.54,0,0,1-2.8-3.18,10.67,10.67,0,0,1-1-4.66,10.48,10.48,0,0,1,1-4.7,7.65,7.65,0,0,1,2.81-3.19,7.93,7.93,0,0,1,4.29-1.15A8.18,8.18,0,0,1,282,674a6.36,6.36,0,0,1,2.52,2,6.18,6.18,0,0,1,1.14,3.08h-3.3a4,4,0,0,0-1.25-2.12,3.71,3.71,0,0,0-2.6-.88,4.27,4.27,0,0,0-2.48.74,4.83,4.83,0,0,0-1.65,2.11,8.08,8.08,0,0,0-.59,3.24,8.41,8.41,0,0,0,.58,3.29,4.8,4.8,0,0,0,1.64,2.15,4.49,4.49,0,0,0,4.26.4,3.52,3.52,0,0,0,1.33-1,4.05,4.05,0,0,0,.76-1.62h3.3a6.49,6.49,0,0,1-1.1,3,6.37,6.37,0,0,1-2.46,2.09A8.17,8.17,0,0,1,278.52,691.29Z"/><path class="a" d="M292.74,680.57v10.37h-3.4V667.66h3.35v8.66h.22a5.06,5.06,0,0,1,1.87-2.24,5.93,5.93,0,0,1,3.3-.83,6.45,6.45,0,0,1,3.14.74,5,5,0,0,1,2.09,2.2,7.92,7.92,0,0,1,.75,3.64v11.11h-3.4v-10.7a4.2,4.2,0,0,0-1-3,3.57,3.57,0,0,0-2.75-1.06,4.46,4.46,0,0,0-2.15.51,3.63,3.63,0,0,0-1.49,1.49A4.88,4.88,0,0,0,292.74,680.57Z"/><path class="a" d="M127.13,711a19.75,19.75,0,0,1,.84-5.9,17.48,17.48,0,0,1,2.46-5h2.34a11,11,0,0,0-1.18,2.07,20.13,20.13,0,0,0-1,2.69,22.59,22.59,0,0,0-.64,3,20.24,20.24,0,0,0-.23,3.08,21.51,21.51,0,0,0,.4,4.11,23.88,23.88,0,0,0,1.08,3.86,12.38,12.38,0,0,0,1.52,2.9h-2.34a17.35,17.35,0,0,1-2.46-5A19.7,19.7,0,0,1,127.13,711Z"/><path class="a" d="M135.66,719.73V702.28H146.6v2.27h-8.31v5.32H146v2.25h-7.74v5.35h8.41v2.26Z"/><path class="a" d="M156,706.64v2.05h-7.15v-2.05Zm-5.23-3.13h2.55v12.38a2.15,2.15,0,0,0,.22,1.11,1.14,1.14,0,0,0,.58.51,2.34,2.34,0,0,0,.77.13,4,4,0,0,0,.53,0l.36-.07.46,2.1a3.93,3.93,0,0,1-.63.18,5.48,5.48,0,0,1-1,.1,4.54,4.54,0,0,1-1.88-.36,3.29,3.29,0,0,1-1.4-1.16,3.39,3.39,0,0,1-.54-2Z"/><path class="a" d="M161.67,712v7.77h-2.55V702.28h2.51v6.49h.17a3.69,3.69,0,0,1,1.4-1.67,4.39,4.39,0,0,1,2.47-.63A4.82,4.82,0,0,1,168,707a3.8,3.8,0,0,1,1.57,1.65,6,6,0,0,1,.56,2.73v8.32h-2.55v-8a3.16,3.16,0,0,0-.74-2.23,2.71,2.71,0,0,0-2.07-.8,3.39,3.39,0,0,0-1.61.38,2.71,2.71,0,0,0-1.12,1.13A3.62,3.62,0,0,0,161.67,712Z"/><path class="a" d="M179.21,720a6.43,6.43,0,0,1-3.33-.83,5.56,5.56,0,0,1-2.15-2.35,8.75,8.75,0,0,1,0-7.09,5.62,5.62,0,0,1,5.3-3.26,6.57,6.57,0,0,1,2.15.37A5.17,5.17,0,0,1,183,708a5.44,5.44,0,0,1,1.31,2,8.77,8.77,0,0,1,.47,3V714h-10.4v-1.91h7.91a3.84,3.84,0,0,0-.41-1.79,3.17,3.17,0,0,0-1.15-1.23,3.24,3.24,0,0,0-1.72-.45,3.36,3.36,0,0,0-1.88.52,3.5,3.5,0,0,0-1.22,1.37,3.88,3.88,0,0,0-.43,1.82v1.49A4.9,4.9,0,0,0,176,716a3.27,3.27,0,0,0,1.3,1.4,3.86,3.86,0,0,0,1.95.48,4.16,4.16,0,0,0,1.32-.2,2.7,2.7,0,0,0,1-.63,2.6,2.6,0,0,0,.67-1l2.41.43a4.38,4.38,0,0,1-1,1.86,4.91,4.91,0,0,1-1.87,1.24A7,7,0,0,1,179.21,720Z"/><path class="a" d="M187.66,719.73V706.64h2.46v2.08h.14a3.15,3.15,0,0,1,1.27-1.66,3.56,3.56,0,0,1,2.05-.61h.57l.52,0V709a3.48,3.48,0,0,0-.55-.1,5.12,5.12,0,0,0-.78-.06,3.39,3.39,0,0,0-1.61.38,2.81,2.81,0,0,0-1.11,1.05,2.88,2.88,0,0,0-.41,1.52v8Z"/><path class="a" d="M202.05,720a6.43,6.43,0,0,1-3.33-.83,5.63,5.63,0,0,1-2.15-2.35,8.75,8.75,0,0,1,0-7.09,5.89,5.89,0,0,1,2.12-2.4,5.82,5.82,0,0,1,3.18-.86,6.57,6.57,0,0,1,2.15.37,5.17,5.17,0,0,1,1.86,1.15,5.44,5.44,0,0,1,1.31,2,8.54,8.54,0,0,1,.47,3V714h-10.4v-1.91h7.91a3.84,3.84,0,0,0-.41-1.79,3.1,3.1,0,0,0-1.15-1.23,3.24,3.24,0,0,0-1.72-.45,3.3,3.3,0,0,0-1.87.52,3.45,3.45,0,0,0-1.23,1.37,3.88,3.88,0,0,0-.43,1.82v1.49a4.9,4.9,0,0,0,.46,2.23,3.27,3.27,0,0,0,1.3,1.4,3.86,3.86,0,0,0,1.95.48,4.16,4.16,0,0,0,1.32-.2,2.82,2.82,0,0,0,1-.63,2.69,2.69,0,0,0,.66-1l2.41.43a4.38,4.38,0,0,1-1,1.86,4.91,4.91,0,0,1-1.87,1.24A7,7,0,0,1,202.05,720Z"/><path class="a" d="M218.8,714.31v-7.67h2.55v13.09h-2.5v-2.26h-.14a4,4,0,0,1-1.44,1.74,4.26,4.26,0,0,1-2.47.7,4.4,4.4,0,0,1-2.23-.56,3.84,3.84,0,0,1-1.52-1.66,6.13,6.13,0,0,1-.55-2.72v-8.33h2.55v8a3,3,0,0,0,.74,2.13,2.53,2.53,0,0,0,1.93.8,3.16,3.16,0,0,0,1.43-.36,3,3,0,0,0,1.18-1.08A3.29,3.29,0,0,0,218.8,714.31Z"/><path class="a" d="M224.77,719.73V706.64h2.45v2.13h.16a3.41,3.41,0,0,1,1.34-1.69,4,4,0,0,1,2.22-.61,3.78,3.78,0,0,1,2.2.62,3.56,3.56,0,0,1,1.32,1.68h.14a3.75,3.75,0,0,1,1.49-1.67,4.54,4.54,0,0,1,2.44-.63,4,4,0,0,1,2.91,1.12,4.55,4.55,0,0,1,1.12,3.37v8.77H240V711.2a2.34,2.34,0,0,0-.73-1.93,2.62,2.62,0,0,0-1.73-.6,2.46,2.46,0,0,0-1.93.77,2.78,2.78,0,0,0-.69,1.95v8.34H232.4V711a2.25,2.25,0,0,0-.67-1.71,2.38,2.38,0,0,0-1.73-.65,2.51,2.51,0,0,0-1.33.38,2.83,2.83,0,0,0-1,1.05,3.16,3.16,0,0,0-.37,1.56v8.07Z"/><path class="a" d="M250.87,712.49a19.81,19.81,0,0,1-.84,5.91,17.61,17.61,0,0,1-2.46,5h-2.34a11.41,11.41,0,0,0,1.18-2.08,19.49,19.49,0,0,0,1-2.68,22.93,22.93,0,0,0,.64-3,20.46,20.46,0,0,0,.23-3.09,21.41,21.41,0,0,0-.4-4.1,23.59,23.59,0,0,0-1.08-3.86,12.27,12.27,0,0,0-1.52-2.91h2.34a17.61,17.61,0,0,1,2.46,5A19.75,19.75,0,0,1,250.87,712.49Z"/><path class="a" d="M67.56,790.55a7.19,7.19,0,0,0-.88-1.85,6.09,6.09,0,0,0-1.31-1.41,5.75,5.75,0,0,0-1.74-.9,7.21,7.21,0,0,0-2.13-.3,6.36,6.36,0,0,0-3.54,1,6.8,6.8,0,0,0-2.5,3,12.92,12.92,0,0,0,0,9.55,6.86,6.86,0,0,0,2.52,3,7.24,7.24,0,0,0,7,.23,5.41,5.41,0,0,0,2.19-2.18,6.84,6.84,0,0,0,.78-3.34l.91.17H62.17v-2.9h9.15v2.65a10,10,0,0,1-1.24,5.09,8.59,8.59,0,0,1-3.44,3.32,11.29,11.29,0,0,1-10.54-.28,9.8,9.8,0,0,1-3.71-4.13,14.14,14.14,0,0,1-1.33-6.36,15.26,15.26,0,0,1,.77-5A10.93,10.93,0,0,1,54,786.08a9.56,9.56,0,0,1,3.3-2.37,10.38,10.38,0,0,1,4.17-.83,10.87,10.87,0,0,1,3.52.56A9.75,9.75,0,0,1,67.91,785,8.94,8.94,0,0,1,70,787.45a8.81,8.81,0,0,1,1.14,3.1Z"/><path class="a" d="M80.58,806.86a7.15,7.15,0,0,1-3-.62,5,5,0,0,1-2.12-1.8,5.14,5.14,0,0,1-.78-2.9,4.7,4.7,0,0,1,.57-2.43,4.13,4.13,0,0,1,1.54-1.51,8,8,0,0,1,2.15-.84,19.75,19.75,0,0,1,2.44-.43l2.54-.3a3.68,3.68,0,0,0,1.42-.4.94.94,0,0,0,.45-.88v-.08a3.08,3.08,0,0,0-.84-2.31,3.39,3.39,0,0,0-2.48-.82,4.27,4.27,0,0,0-2.7.76A4,4,0,0,0,78.41,794l-3.19-.72a6.23,6.23,0,0,1,1.66-2.58,6.89,6.89,0,0,1,2.53-1.43,10,10,0,0,1,3-.45,10.42,10.42,0,0,1,2.22.25,6.63,6.63,0,0,1,2.21.89,5,5,0,0,1,1.69,1.85,6.37,6.37,0,0,1,.65,3.1v11.59H85.88v-2.38h-.14a4.74,4.74,0,0,1-1,1.29,5.14,5.14,0,0,1-1.69,1.06A6.6,6.6,0,0,1,80.58,806.86Zm.74-2.73a4.91,4.91,0,0,0,2.41-.55,3.88,3.88,0,0,0,1.54-1.46,3.83,3.83,0,0,0,.53-1.94v-2.25a1.75,1.75,0,0,1-.7.33,9.89,9.89,0,0,1-1.18.27l-1.28.19-1,.14a7.92,7.92,0,0,0-1.8.42,3.07,3.07,0,0,0-1.29.85,2.1,2.1,0,0,0-.49,1.46,2.16,2.16,0,0,0,.93,1.9A4.12,4.12,0,0,0,81.32,804.13Z"/><path class="a" d="M106.8,793.28l-3.08.55a3.67,3.67,0,0,0-.61-1.13,3.1,3.1,0,0,0-1.12-.87,4,4,0,0,0-1.76-.34,4.24,4.24,0,0,0-2.41.64,1.94,1.94,0,0,0-1,1.65,1.76,1.76,0,0,0,.65,1.41,5.09,5.09,0,0,0,2.09.87l2.78.64a7.4,7.4,0,0,1,3.59,1.72,4,4,0,0,1,1.18,3,4.55,4.55,0,0,1-.91,2.79,5.92,5.92,0,0,1-2.51,1.91,9.18,9.18,0,0,1-3.72.7,8.32,8.32,0,0,1-4.78-1.26A5.3,5.3,0,0,1,92.94,802l3.29-.5a3.07,3.07,0,0,0,1.26,1.93,4.31,4.31,0,0,0,2.49.66,4.64,4.64,0,0,0,2.67-.7,2,2,0,0,0,1-1.71,1.78,1.78,0,0,0-.61-1.38,4,4,0,0,0-1.86-.84l-3-.65A7.07,7.07,0,0,1,94.62,797,4.24,4.24,0,0,1,93.46,794a4.35,4.35,0,0,1,.86-2.7,5.68,5.68,0,0,1,2.39-1.81,8.64,8.64,0,0,1,3.48-.66,7.29,7.29,0,0,1,4.46,1.22A5.8,5.8,0,0,1,106.8,793.28Z"/><path class="a" d="M139.83,794.84a13.93,13.93,0,0,1-1.36,6.4,9.9,9.9,0,0,1-3.74,4.11,10.79,10.79,0,0,1-10.77,0,9.94,9.94,0,0,1-3.73-4.11,15.66,15.66,0,0,1,0-12.81,10,10,0,0,1,3.73-4.11,10.79,10.79,0,0,1,10.77,0,10,10,0,0,1,3.74,4.11A14,14,0,0,1,139.83,794.84Zm-3.48,0a11.22,11.22,0,0,0-.91-4.79,6.8,6.8,0,0,0-2.5-3,6.94,6.94,0,0,0-7.18,0,6.85,6.85,0,0,0-2.49,3,12.93,12.93,0,0,0,0,9.58,6.82,6.82,0,0,0,2.49,3,6.89,6.89,0,0,0,7.18,0,6.77,6.77,0,0,0,2.5-3A11.25,11.25,0,0,0,136.35,794.84Z"/><path class="a" d="M143.92,813V789h3.32v2.83h.28a8.89,8.89,0,0,1,.86-1.26,4.81,4.81,0,0,1,1.54-1.26,5.46,5.46,0,0,1,2.62-.54,6.86,6.86,0,0,1,3.77,1.07,7.3,7.3,0,0,1,2.61,3.08,13,13,0,0,1,0,9.69,7.31,7.31,0,0,1-2.59,3.1,6.7,6.7,0,0,1-3.76,1.08,5.49,5.49,0,0,1-2.6-.53A4.93,4.93,0,0,1,148.4,805a10.25,10.25,0,0,1-.88-1.27h-.2V813Zm3.33-15.27a8.83,8.83,0,0,0,.54,3.22,4.82,4.82,0,0,0,1.54,2.17,4.34,4.34,0,0,0,5,0,4.87,4.87,0,0,0,1.55-2.21,8.66,8.66,0,0,0,.53-3.14,8.94,8.94,0,0,0-.51-3.11,4.85,4.85,0,0,0-1.55-2.17,4.52,4.52,0,0,0-5.06,0,4.77,4.77,0,0,0-1.54,2.12A8.85,8.85,0,0,0,147.25,797.75Z"/><path class="a" d="M171.82,789v2.73h-9.53V789Zm-7-4.18h3.4v16.51a2.9,2.9,0,0,0,.3,1.48,1.44,1.44,0,0,0,.76.67,2.9,2.9,0,0,0,1,.18,3.88,3.88,0,0,0,.72-.06l.47-.09.62,2.81a7.62,7.62,0,0,1-.84.23,7.23,7.23,0,0,1-1.37.13,5.84,5.84,0,0,1-2.5-.48,4.25,4.25,0,0,1-1.87-1.54,4.53,4.53,0,0,1-.72-2.63Z"/><path class="a" d="M177.28,786.33a2.11,2.11,0,0,1-1.51-.6,1.94,1.94,0,0,1,0-2.86,2.21,2.21,0,0,1,3,0,1.94,1.94,0,0,1,0,2.86A2.11,2.11,0,0,1,177.28,786.33Zm-1.71,20.14V789H179v17.45Z"/><path class="a" d="M183.53,806.47V789h3.27v2.84H187a4.62,4.62,0,0,1,1.79-2.26,5.27,5.27,0,0,1,3-.81,5,5,0,0,1,2.94.82,4.88,4.88,0,0,1,1.76,2.25h.18a4.87,4.87,0,0,1,2-2.23,6,6,0,0,1,3.25-.84,5.31,5.31,0,0,1,3.88,1.49,6.07,6.07,0,0,1,1.5,4.49v11.7h-3.4V795.09a3.16,3.16,0,0,0-1-2.57,3.53,3.53,0,0,0-2.31-.8,3.32,3.32,0,0,0-2.58,1,3.76,3.76,0,0,0-.92,2.61v11.12h-3.38v-11.6a3,3,0,0,0-.89-2.28,3.15,3.15,0,0,0-2.31-.87,3.29,3.29,0,0,0-1.78.51,3.74,3.74,0,0,0-1.3,1.4,4.24,4.24,0,0,0-.5,2.08v10.76Z"/><path class="a" d="M213.52,786.33a2.11,2.11,0,0,1-1.51-.6,1.94,1.94,0,0,1,0-2.86,2.11,2.11,0,0,1,1.51-.6,2.13,2.13,0,0,1,1.52.6,1.94,1.94,0,0,1,0,2.86A2.13,2.13,0,0,1,213.52,786.33Zm-1.71,20.14V789h3.39v17.45Z"/><path class="a" d="M219.41,806.47v-2.33l9.45-12V792h-9.14v-3H233.1v2.48L224,803.36v.16h9.41v3Z"/><path class="a" d="M242.5,806.86a7.09,7.09,0,0,1-3-.62,5,5,0,0,1-2.12-1.8,5.14,5.14,0,0,1-.78-2.9,4.7,4.7,0,0,1,.57-2.43,4.18,4.18,0,0,1,1.53-1.51,8.23,8.23,0,0,1,2.16-.84,19.75,19.75,0,0,1,2.44-.43l2.54-.3a3.68,3.68,0,0,0,1.42-.4.94.94,0,0,0,.44-.88v-.08a3.07,3.07,0,0,0-.83-2.31,3.4,3.4,0,0,0-2.48-.82,4.27,4.27,0,0,0-2.7.76,4,4,0,0,0-1.36,1.67l-3.19-.72a6.23,6.23,0,0,1,1.66-2.58,6.89,6.89,0,0,1,2.53-1.43,10,10,0,0,1,3-.45,10.42,10.42,0,0,1,2.22.25,6.63,6.63,0,0,1,2.21.89,4.88,4.88,0,0,1,1.68,1.85,6.36,6.36,0,0,1,.66,3.1v11.59H247.8v-2.38h-.14a4.74,4.74,0,0,1-1,1.29,5.14,5.14,0,0,1-1.69,1.06A6.6,6.6,0,0,1,242.5,806.86Zm.74-2.73a4.91,4.91,0,0,0,2.41-.55,4,4,0,0,0,1.54-1.46,3.83,3.83,0,0,0,.53-1.94v-2.25a1.82,1.82,0,0,1-.7.33,9.89,9.89,0,0,1-1.18.27l-1.28.19-1.05.14a7.92,7.92,0,0,0-1.8.42,3.17,3.17,0,0,0-1.3.85,2.43,2.43,0,0,0,.45,3.36A4.1,4.1,0,0,0,243.24,804.13Z"/><path class="a" d="M263.78,789v2.73h-9.53V789Zm-7-4.18h3.39v16.51a2.9,2.9,0,0,0,.3,1.48,1.46,1.46,0,0,0,.77.67,2.82,2.82,0,0,0,1,.18,3.69,3.69,0,0,0,.71-.06l.48-.09.61,2.81a7.62,7.62,0,0,1-.84.23,7.12,7.12,0,0,1-1.36.13,5.78,5.78,0,0,1-2.5-.48,4.22,4.22,0,0,1-1.88-1.54,4.6,4.6,0,0,1-.71-2.63Z"/><path class="a" d="M269.25,786.33a2.13,2.13,0,0,1-1.52-.6,1.94,1.94,0,0,1,0-2.86,2.23,2.23,0,0,1,3,0,1.94,1.94,0,0,1,0,2.86A2.13,2.13,0,0,1,269.25,786.33Zm-1.72,20.14V789h3.4v17.45Z"/><path class="a" d="M282.85,806.83a8,8,0,0,1-4.28-1.13,7.55,7.55,0,0,1-2.84-3.15,10.32,10.32,0,0,1-1-4.72,10.45,10.45,0,0,1,1-4.75,7.52,7.52,0,0,1,2.84-3.16,8.69,8.69,0,0,1,8.57,0,7.58,7.58,0,0,1,2.84,3.16,10.58,10.58,0,0,1,1,4.75,10.45,10.45,0,0,1-1,4.72,7.62,7.62,0,0,1-2.84,3.15A8,8,0,0,1,282.85,806.83Zm0-2.86a4.09,4.09,0,0,0,2.64-.84,4.92,4.92,0,0,0,1.55-2.24,9.53,9.53,0,0,0,0-6.15,5,5,0,0,0-1.55-2.25,4.5,4.5,0,0,0-5.29,0,5,5,0,0,0-1.56,2.25,9.71,9.71,0,0,0,0,6.15,4.94,4.94,0,0,0,1.56,2.24A4.1,4.1,0,0,0,282.86,804Z"/><path class="a" d="M298.17,796.11v10.36h-3.4V789H298v2.84h.22a5,5,0,0,1,1.89-2.23,5.87,5.87,0,0,1,3.26-.84,6.26,6.26,0,0,1,3.12.75,5,5,0,0,1,2.08,2.21,8,8,0,0,1,.74,3.62v11.1h-3.4V795.78a4.23,4.23,0,0,0-1-3,3.48,3.48,0,0,0-2.71-1.07,4.24,4.24,0,0,0-2.1.51,3.63,3.63,0,0,0-1.44,1.49A5,5,0,0,0,298.17,796.11Z"/><path class="a" d="M327,793.28l-3.07.55a3.89,3.89,0,0,0-.61-1.13,3.1,3.1,0,0,0-1.12-.87,4,4,0,0,0-1.76-.34,4.22,4.22,0,0,0-2.41.64,1.91,1.91,0,0,0-1,1.65,1.76,1.76,0,0,0,.65,1.41,5.09,5.09,0,0,0,2.09.87l2.77.64a7.31,7.31,0,0,1,3.59,1.72,4,4,0,0,1,1.19,3,4.61,4.61,0,0,1-.91,2.79,6,6,0,0,1-2.51,1.91,9.18,9.18,0,0,1-3.72.7,8.3,8.3,0,0,1-4.78-1.26,5.27,5.27,0,0,1-2.28-3.57l3.29-.5a3.07,3.07,0,0,0,1.26,1.93,4.26,4.26,0,0,0,2.49.66,4.64,4.64,0,0,0,2.67-.7,2.07,2.07,0,0,0,1-1.71,1.81,1.81,0,0,0-.61-1.38,4.13,4.13,0,0,0-1.86-.84l-3-.65a7,7,0,0,1-3.61-1.77,4.25,4.25,0,0,1-1.17-3.08,4.36,4.36,0,0,1,.87-2.7,5.64,5.64,0,0,1,2.38-1.81,8.72,8.72,0,0,1,3.49-.66,7.31,7.31,0,0,1,4.46,1.22A5.74,5.74,0,0,1,327,793.28Z"/><path class="d" d="M179.4,754.4v-3.82h19.21v3.82Zm7.69,7.7V742.89h3.82V762.1Z"/><line class="b" x1="189" y1="344.86" x2="189" y2="392.86"/><line class="b" x1="189" y1="572.63" x2="189" y2="620.63"/><path class="a" d="M136,945.23a17,17,0,0,1-1.79,8.1,12.57,12.57,0,0,1-4.89,5.09,14.64,14.64,0,0,1-13.9,0,12.49,12.49,0,0,1-4.87-5.1,19.18,19.18,0,0,1,0-16.18,12.53,12.53,0,0,1,4.87-5.09,14.68,14.68,0,0,1,13.9,0,12.57,12.57,0,0,1,4.89,5.09A17,17,0,0,1,136,945.23Zm-6.23,0a13.12,13.12,0,0,0-.92-5.2,7.07,7.07,0,0,0-2.58-3.21,7.49,7.49,0,0,0-7.78,0,7.07,7.07,0,0,0-2.58,3.21,15.16,15.16,0,0,0,0,10.4,7.07,7.07,0,0,0,2.58,3.21,7.49,7.49,0,0,0,7.78,0,7.07,7.07,0,0,0,2.58-3.21A13.08,13.08,0,0,0,129.8,945.23Zm-9.52,4.43h5.23l2.62,3.38,2.59,3,4.87,6.1h-5.74L126.5,958l-1.72-2.44Z"/><path class="a" d="M151.19,960.17a13.71,13.71,0,0,1-5.66-1.1,9.45,9.45,0,0,1-3.91-3,7.58,7.58,0,0,1-1.47-4.48h6.19a3.19,3.19,0,0,0,.71,1.87,4.09,4.09,0,0,0,1.72,1.24,6.26,6.26,0,0,0,2.43.44,5.92,5.92,0,0,0,2.49-.49,4.14,4.14,0,0,0,1.69-1.38,3.65,3.65,0,0,0,0-4.1,4.23,4.23,0,0,0-1.84-1.41,7.26,7.26,0,0,0-2.85-.51h-2.71v-4.52h2.71a5.93,5.93,0,0,0,2.46-.48,4,4,0,0,0,1.67-1.35,3.41,3.41,0,0,0,.6-2,3.5,3.5,0,0,0-.52-1.92,3.59,3.59,0,0,0-1.45-1.3,4.77,4.77,0,0,0-2.16-.47,5.67,5.67,0,0,0-2.29.45,4,4,0,0,0-1.66,1.27,3.31,3.31,0,0,0-.67,1.93h-5.9a7.57,7.57,0,0,1,1.44-4.43,9.3,9.3,0,0,1,3.76-3,12.55,12.55,0,0,1,5.34-1.09,11.92,11.92,0,0,1,5.27,1.09,8.71,8.71,0,0,1,3.52,3,7.14,7.14,0,0,1,1.24,4.15,5.68,5.68,0,0,1-1.51,4.08,6.92,6.92,0,0,1-4,2.07v.23a7.83,7.83,0,0,1,4.89,2.22,6.36,6.36,0,0,1,1.67,4.53A7.07,7.07,0,0,1,161,956a9.7,9.7,0,0,1-4,3A14.24,14.24,0,0,1,151.19,960.17Z"/><path class="a" d="M176.09,959.78v-4.43l10.35-9.59c.89-.86,1.63-1.62,2.23-2.3a9.09,9.09,0,0,0,1.37-2,5,5,0,0,0,.47-2.14,4.07,4.07,0,0,0-.59-2.21,3.83,3.83,0,0,0-1.59-1.44,5.09,5.09,0,0,0-2.28-.5,4.8,4.8,0,0,0-2.33.54,3.71,3.71,0,0,0-1.54,1.55,5,5,0,0,0-.54,2.4H175.8a9.31,9.31,0,0,1,1.3-5,8.66,8.66,0,0,1,3.62-3.25,11.92,11.92,0,0,1,5.37-1.15,12.68,12.68,0,0,1,5.45,1.1,8.67,8.67,0,0,1,3.61,3.05,7.86,7.86,0,0,1,1.29,4.46,8.67,8.67,0,0,1-.64,3.25,13.62,13.62,0,0,1-2.3,3.56,51.06,51.06,0,0,1-4.64,4.68l-4.25,4.16v.2h12.22v5Z"/><path class="a" d="M212.69,960.42a11,11,0,0,1-6.3-1.81,11.32,11.32,0,0,1-4-5.18,24.28,24.28,0,0,1,0-16.28,11.1,11.1,0,0,1,20.67,0,20.47,20.47,0,0,1,1.41,8.1,21.29,21.29,0,0,1-1.41,8.18,11.41,11.41,0,0,1-4,5.19A11,11,0,0,1,212.69,960.42Zm0-5.1a4.51,4.51,0,0,0,4-2.52c1-1.67,1.48-4.19,1.47-7.54a19.1,19.1,0,0,0-.67-5.51,7.18,7.18,0,0,0-1.91-3.31,4.17,4.17,0,0,0-2.89-1.11,4.49,4.49,0,0,0-4,2.49c-1,1.65-1.5,4.14-1.51,7.44a19.66,19.66,0,0,0,.68,5.59,7.06,7.06,0,0,0,1.91,3.35A4.15,4.15,0,0,0,212.69,955.32Z"/><path class="a" d="M228.82,959.78v-4.43l10.35-9.59c.88-.86,1.62-1.62,2.22-2.3a9.09,9.09,0,0,0,1.37-2,4.82,4.82,0,0,0,.47-2.14,4.07,4.07,0,0,0-.58-2.21,4,4,0,0,0-1.59-1.44,5.14,5.14,0,0,0-2.29-.5,4.83,4.83,0,0,0-2.33.54,3.75,3.75,0,0,0-1.53,1.55,5,5,0,0,0-.54,2.4h-5.84a9.3,9.3,0,0,1,1.29-5,8.68,8.68,0,0,1,3.63-3.25,11.92,11.92,0,0,1,5.37-1.15,12.64,12.64,0,0,1,5.44,1.1,8.64,8.64,0,0,1,3.62,3.05,7.86,7.86,0,0,1,1.29,4.46,8.49,8.49,0,0,1-.65,3.25,13.56,13.56,0,0,1-2.29,3.56,52.71,52.71,0,0,1-4.65,4.68l-4.24,4.16v.2h12.21v5Z"/><path class="a" d="M266.67,930.69v29.09h-6.15V936.52h-.17l-6.66,4.18v-5.45l7.2-4.56Z"/><line class="b" x1="189.39" y1="855.86" x2="189.39" y2="903.86"/><line class="b" x1="165.39" y1="903.86" x2="213.39" y2="903.86"/></svg>