<svg xmlns="http://www.w3.org/2000/svg" viewBox="0 0 1500 237"><defs><style>.a{fill:#efbc86;fill-opacity:0.08;}.a,.d{stroke:#efbc86;stroke-miterlimit:10;}.b{fill:#fff;}.c{fill:#eebc83;}.d{fill:none;}</style></defs><rect class="a" x="154.24" y="1" width="375" height="235" rx="12"/><path class="b" d="M204.46,66.94V43.66h14.6v3H208v7.09h10.31v3H208v7.12h11.21v3Z"/><path class="b" d="M231.63,49.48v2.73H222.1V49.48Zm-7-4.18h3.39V61.81a2.9,2.9,0,0,0,.3,1.48,1.46,1.46,0,0,0,.77.67,2.82,2.82,0,0,0,1,.18,3.69,3.69,0,0,0,.71-.06l.48-.09L232,66.8a6.53,6.53,0,0,1-.84.23,7.12,7.12,0,0,1-1.36.13,5.93,5.93,0,0,1-2.5-.47,4.37,4.37,0,0,1-1.88-1.55,4.6,4.6,0,0,1-.71-2.63Z"/><path class="b" d="M239.15,56.57V66.94h-3.4V43.66h3.35v8.66h.22a5,5,0,0,1,1.87-2.24,5.93,5.93,0,0,1,3.3-.83,6.48,6.48,0,0,1,3.14.74,5.06,5.06,0,0,1,2.09,2.2,7.92,7.92,0,0,1,.74,3.64V66.94h-3.39V56.24a4.2,4.2,0,0,0-1-3,3.57,3.57,0,0,0-2.75-1.06,4.5,4.5,0,0,0-2.16.51,3.6,3.6,0,0,0-1.48,1.49A4.88,4.88,0,0,0,239.15,56.57Z"/><path class="b" d="M262.53,67.29a8.51,8.51,0,0,1-4.44-1.11,7.42,7.42,0,0,1-2.86-3.13,10.47,10.47,0,0,1-1-4.73,10.62,10.62,0,0,1,1-4.73,7.54,7.54,0,0,1,7.06-4.34,8.74,8.74,0,0,1,2.87.49,7.06,7.06,0,0,1,2.49,1.54A7.15,7.15,0,0,1,269.38,54a11.19,11.19,0,0,1,.64,4v1.2H256.15V56.69h10.54a5.13,5.13,0,0,0-.54-2.39,4.24,4.24,0,0,0-1.53-1.64,4.36,4.36,0,0,0-2.3-.6,4.41,4.41,0,0,0-2.5.7,4.61,4.61,0,0,0-1.63,1.82,5.12,5.12,0,0,0-.58,2.42v2a6.6,6.6,0,0,0,.62,3A4.36,4.36,0,0,0,260,63.84a5.13,5.13,0,0,0,2.61.64,5.2,5.2,0,0,0,1.76-.28,3.6,3.6,0,0,0,1.37-.83,3.66,3.66,0,0,0,.89-1.38l3.21.58a5.59,5.59,0,0,1-1.38,2.48,6.66,6.66,0,0,1-2.48,1.65A9.34,9.34,0,0,1,262.53,67.29Z"/><path class="b" d="M273.8,66.94V49.48h3.29v2.77h.18A4.22,4.22,0,0,1,279,50a4.8,4.8,0,0,1,2.74-.81l.76,0,.69.06v3.25a6.5,6.5,0,0,0-.73-.13,7.42,7.42,0,0,0-1.05-.08,4.42,4.42,0,0,0-2.14.51,3.83,3.83,0,0,0-1.48,1.4,3.74,3.74,0,0,0-.55,2V66.94Z"/><path class="b" d="M293,67.29a8.51,8.51,0,0,1-4.44-1.11,7.35,7.35,0,0,1-2.86-3.13,10.34,10.34,0,0,1-1-4.73,10.48,10.48,0,0,1,1-4.73,7.72,7.72,0,0,1,2.81-3.19,7.84,7.84,0,0,1,4.25-1.15,8.68,8.68,0,0,1,2.86.49,7,7,0,0,1,2.49,1.54A7.29,7.29,0,0,1,299.84,54a11.43,11.43,0,0,1,.63,4v1.2H286.6V56.69h10.55a5.14,5.14,0,0,0-.55-2.39,4.1,4.1,0,0,0-1.53-1.64,4.31,4.31,0,0,0-2.3-.6,4.38,4.38,0,0,0-2.49.7,4.64,4.64,0,0,0-1.64,1.82,5.23,5.23,0,0,0-.57,2.42v2a6.47,6.47,0,0,0,.62,3,4.36,4.36,0,0,0,1.73,1.87,5.09,5.09,0,0,0,2.6.64,5.2,5.2,0,0,0,1.76-.28,3.72,3.72,0,0,0,1.38-.83A3.64,3.64,0,0,0,297,62l3.22.58a5.79,5.79,0,0,1-1.38,2.48,6.7,6.7,0,0,1-2.49,1.65A9.29,9.29,0,0,1,293,67.29Z"/><path class="b" d="M315.32,59.7V49.48h3.4V66.94h-3.34v-3h-.18a5.46,5.46,0,0,1-1.92,2.33,5.67,5.67,0,0,1-3.29.92,5.91,5.91,0,0,1-3-.74,5.11,5.11,0,0,1-2-2.21,8.07,8.07,0,0,1-.73-3.63V49.48h3.4V60.17a4,4,0,0,0,1,2.84,3.31,3.31,0,0,0,2.56,1.06,4.22,4.22,0,0,0,1.91-.48,4,4,0,0,0,1.58-1.44A4.39,4.39,0,0,0,315.32,59.7Z"/><path class="b" d="M323.28,66.94V49.48h3.26v2.84h.22a4.53,4.53,0,0,1,1.78-2.25,5.25,5.25,0,0,1,3-.82,5.14,5.14,0,0,1,2.94.82,4.86,4.86,0,0,1,1.75,2.25h.18a5,5,0,0,1,2-2.23,6.07,6.07,0,0,1,3.25-.84,5.28,5.28,0,0,1,3.88,1.49A6,6,0,0,1,347,55.23V66.94h-3.4V55.55a3.16,3.16,0,0,0-1-2.57,3.54,3.54,0,0,0-2.31-.79,3.28,3.28,0,0,0-2.58,1,3.76,3.76,0,0,0-.92,2.61V66.94h-3.39V55.33a3,3,0,0,0-.88-2.28,3.16,3.16,0,0,0-2.31-.86,3.26,3.26,0,0,0-1.78.5,3.84,3.84,0,0,0-1.31,1.4,4.26,4.26,0,0,0-.49,2.08V66.94Z"/><path class="b" d="M360.3,43.66h4.26L372,61.75h.28l7.41-18.09h4.26V66.94h-3.34V50.09h-.22L373.5,66.9h-2.78l-6.86-16.82h-.22V66.94H360.3Z"/><path class="b" d="M393.84,67.32a7.09,7.09,0,0,1-3-.62,4.91,4.91,0,0,1-2.12-1.8,5.14,5.14,0,0,1-.78-2.9,4.7,4.7,0,0,1,.57-2.43A4.26,4.26,0,0,1,390,58.06a8.23,8.23,0,0,1,2.16-.84,22.06,22.06,0,0,1,2.43-.43l2.55-.3a3.56,3.56,0,0,0,1.42-.4,1,1,0,0,0,.44-.88v-.08a3.13,3.13,0,0,0-.83-2.31,3.46,3.46,0,0,0-2.49-.82,4.37,4.37,0,0,0-2.7.76,4.06,4.06,0,0,0-1.35,1.68l-3.2-.73a6.25,6.25,0,0,1,1.67-2.58,6.82,6.82,0,0,1,2.53-1.43,9.92,9.92,0,0,1,3-.45,10.49,10.49,0,0,1,2.22.25,6.58,6.58,0,0,1,2.2.89,4.9,4.9,0,0,1,1.69,1.85,6.39,6.39,0,0,1,.66,3.1v11.6h-3.32V64.55H399a4.74,4.74,0,0,1-1,1.29,5.19,5.19,0,0,1-1.7,1.06A6.55,6.55,0,0,1,393.84,67.32Zm.74-2.73A4.91,4.91,0,0,0,397,64a3.92,3.92,0,0,0,1.53-1.46,3.73,3.73,0,0,0,.53-1.94V58.39a1.68,1.68,0,0,1-.7.33,9.27,9.27,0,0,1-1.17.27l-1.29.19-1,.14a7.92,7.92,0,0,0-1.8.42,3.1,3.1,0,0,0-1.3.85A2.43,2.43,0,0,0,392.2,64,4.08,4.08,0,0,0,394.58,64.59Z"/><path class="b" d="M408.69,46.79a2.13,2.13,0,0,1-1.52-.6,1.94,1.94,0,0,1,0-2.86,2.23,2.23,0,0,1,3,0,1.94,1.94,0,0,1,0,2.86A2.13,2.13,0,0,1,408.69,46.79ZM407,66.94V49.48h3.4V66.94Z"/><path class="b" d="M418.34,56.57V66.94h-3.4V49.48h3.26v2.84h.22a5,5,0,0,1,1.89-2.23,5.84,5.84,0,0,1,3.25-.84,6.3,6.3,0,0,1,3.13.75,5,5,0,0,1,2.08,2.21,8,8,0,0,1,.74,3.62V66.94h-3.4V56.24a4.23,4.23,0,0,0-1-3,3.48,3.48,0,0,0-2.71-1.07,4.24,4.24,0,0,0-2.1.51,3.63,3.63,0,0,0-1.44,1.49A4.88,4.88,0,0,0,418.34,56.57Z"/><path class="b" d="M437.45,56.57V66.94h-3.4V49.48h3.26v2.84h.22a5,5,0,0,1,1.89-2.23,5.87,5.87,0,0,1,3.26-.84,6.26,6.26,0,0,1,3.12.75,5,5,0,0,1,2.08,2.21,8,8,0,0,1,.74,3.62V66.94h-3.4V56.24a4.23,4.23,0,0,0-1-3,3.47,3.47,0,0,0-2.71-1.07,4.24,4.24,0,0,0-2.1.51A3.63,3.63,0,0,0,438,54.2,5,5,0,0,0,437.45,56.57Z"/><path class="b" d="M460.69,67.29a8.51,8.51,0,0,1-4.44-1.11,7.35,7.35,0,0,1-2.86-3.13,10.47,10.47,0,0,1-1-4.73,10.62,10.62,0,0,1,1-4.73,7.54,7.54,0,0,1,7.06-4.34,8.68,8.68,0,0,1,2.86.49,6.88,6.88,0,0,1,2.49,1.54A7,7,0,0,1,467.54,54a11.19,11.19,0,0,1,.64,4v1.2H454.3V56.69h10.55a5,5,0,0,0-.55-2.39,4.1,4.1,0,0,0-1.53-1.64,4.31,4.31,0,0,0-2.3-.6,4.4,4.4,0,0,0-2.49.7,4.64,4.64,0,0,0-1.64,1.82,5.23,5.23,0,0,0-.57,2.42v2a6.47,6.47,0,0,0,.62,3,4.36,4.36,0,0,0,1.73,1.87,5.09,5.09,0,0,0,2.6.64,5.16,5.16,0,0,0,1.76-.28,3.72,3.72,0,0,0,1.38-.83,3.66,3.66,0,0,0,.89-1.38l3.21.58a5.79,5.79,0,0,1-1.38,2.48,6.62,6.62,0,0,1-2.49,1.65A9.25,9.25,0,0,1,460.69,67.29Z"/><path class="b" d="M480.11,49.48v2.73h-9.53V49.48Zm-7-4.18h3.4V61.81a2.9,2.9,0,0,0,.3,1.48,1.44,1.44,0,0,0,.76.67,2.9,2.9,0,0,0,1,.18,3.88,3.88,0,0,0,.72-.06l.47-.09.62,2.81a7.62,7.62,0,0,1-.84.23,7.23,7.23,0,0,1-1.37.13,6,6,0,0,1-2.5-.47,4.34,4.34,0,0,1-1.87-1.55,4.53,4.53,0,0,1-.72-2.63Z"/><path class="b" d="M288.38,105.33V82.06h3.51v20.25h10.55v3Z"/><path class="b" d="M311.24,105.72a7.15,7.15,0,0,1-3-.62,5,5,0,0,1-2.12-1.8,5.14,5.14,0,0,1-.78-2.9,4.7,4.7,0,0,1,.57-2.43,4.13,4.13,0,0,1,1.54-1.51,8,8,0,0,1,2.15-.84,21.82,21.82,0,0,1,2.44-.43l2.54-.3a3.51,3.51,0,0,0,1.42-.4.94.94,0,0,0,.45-.88v-.08a3.09,3.09,0,0,0-.84-2.31,3.43,3.43,0,0,0-2.48-.82,4.33,4.33,0,0,0-2.7.76,4,4,0,0,0-1.36,1.67l-3.19-.72a6.23,6.23,0,0,1,1.66-2.58,6.89,6.89,0,0,1,2.53-1.43,10,10,0,0,1,3-.45,10.42,10.42,0,0,1,2.22.25,6.63,6.63,0,0,1,2.21.89,5,5,0,0,1,1.69,1.85,6.4,6.4,0,0,1,.65,3.1v11.59h-3.31V103h-.14a4.74,4.74,0,0,1-1,1.29,5.14,5.14,0,0,1-1.69,1.06A6.6,6.6,0,0,1,311.24,105.72ZM312,103a5,5,0,0,0,2.42-.55,3.92,3.92,0,0,0,1.53-1.46,3.83,3.83,0,0,0,.53-1.94V96.79a1.75,1.75,0,0,1-.7.33,9.89,9.89,0,0,1-1.18.27l-1.28.19-1.05.14a7.92,7.92,0,0,0-1.8.42,3.07,3.07,0,0,0-1.29.85,2.1,2.1,0,0,0-.49,1.46,2.16,2.16,0,0,0,.93,1.9A4.12,4.12,0,0,0,312,103Z"/><path class="b" d="M335.43,98.1V87.88h3.41v17.45H335.5v-3h-.18a5.46,5.46,0,0,1-1.92,2.33,5.68,5.68,0,0,1-3.3.92,5.9,5.9,0,0,1-3-.74,5.17,5.17,0,0,1-2-2.21,8.07,8.07,0,0,1-.73-3.63V87.88h3.4V98.57a4,4,0,0,0,1,2.84,3.35,3.35,0,0,0,2.57,1.06,4.22,4.22,0,0,0,1.91-.48,4,4,0,0,0,1.58-1.44A4.31,4.31,0,0,0,335.43,98.1Z"/><path class="b" d="M346.8,95v10.36h-3.4V87.88h3.26v2.84h.22a5,5,0,0,1,1.89-2.23,5.85,5.85,0,0,1,3.26-.84,6.29,6.29,0,0,1,3.12.75,5,5,0,0,1,2.08,2.21,8,8,0,0,1,.74,3.62v11.1h-3.4V94.64a4.23,4.23,0,0,0-1-3,3.48,3.48,0,0,0-2.71-1.07,4.24,4.24,0,0,0-2.1.51,3.63,3.63,0,0,0-1.44,1.49A4.88,4.88,0,0,0,346.8,95Z"/><path class="b" d="M369.87,105.69a8,8,0,0,1-4.36-1.16,7.47,7.47,0,0,1-2.8-3.18,10.67,10.67,0,0,1-1-4.66,10.48,10.48,0,0,1,1-4.7,7.75,7.75,0,0,1,2.82-3.19,7.89,7.89,0,0,1,4.28-1.15,8.22,8.22,0,0,1,3.55.74,6.32,6.32,0,0,1,2.51,2A6.19,6.19,0,0,1,377,93.52h-3.31a4,4,0,0,0-1.24-2.12,3.72,3.72,0,0,0-2.6-.88,4.22,4.22,0,0,0-2.48.74,4.92,4.92,0,0,0-1.66,2.11,8.26,8.26,0,0,0-.59,3.24,8.41,8.41,0,0,0,.58,3.29,4.88,4.88,0,0,0,1.64,2.15,4.19,4.19,0,0,0,2.51.76,4.15,4.15,0,0,0,1.75-.36,3.52,3.52,0,0,0,1.33-1,3.92,3.92,0,0,0,.76-1.62H377a6.37,6.37,0,0,1-3.57,5.12A8.12,8.12,0,0,1,369.87,105.69Z"/><path class="b" d="M384.08,95v10.36h-3.4V82.06H384v8.66h.21a5.08,5.08,0,0,1,1.88-2.24,5.92,5.92,0,0,1,3.29-.83,6.42,6.42,0,0,1,3.14.74,5.08,5.08,0,0,1,2.1,2.2,8.05,8.05,0,0,1,.74,3.64v11.1H392V94.64a4.2,4.2,0,0,0-1-3,3.56,3.56,0,0,0-2.75-1.06,4.46,4.46,0,0,0-2.15.51,3.69,3.69,0,0,0-1.49,1.49A4.88,4.88,0,0,0,384.08,95Z"/><path class="b" d="M248.05,164.2v23.27h-3.23L233,170.41h-.21v17.06h-3.52V164.2h3.25l11.85,17.09h.21V164.2Z"/><path class="b" d="M260.41,187.83a8.51,8.51,0,0,1-4.44-1.11,7.42,7.42,0,0,1-2.86-3.13,10.47,10.47,0,0,1-1-4.73,10.62,10.62,0,0,1,1-4.73,7.54,7.54,0,0,1,7.06-4.34,8.74,8.74,0,0,1,2.87.49,7.18,7.18,0,0,1,2.49,1.53,7.27,7.27,0,0,1,1.73,2.72,11.17,11.17,0,0,1,.64,4v1.21H254v-2.55h10.54a5.12,5.12,0,0,0-.54-2.38,4.24,4.24,0,0,0-1.53-1.64,4.33,4.33,0,0,0-2.3-.6,4.41,4.41,0,0,0-2.5.7,4.61,4.61,0,0,0-1.63,1.82,5.12,5.12,0,0,0-.58,2.42v2a6.6,6.6,0,0,0,.62,3,4.36,4.36,0,0,0,1.73,1.87,5.13,5.13,0,0,0,2.61.64,5.2,5.2,0,0,0,1.76-.28,3.6,3.6,0,0,0,1.37-.83,3.74,3.74,0,0,0,.89-1.38l3.22.58a5.7,5.7,0,0,1-1.39,2.48,6.66,6.66,0,0,1-2.48,1.65A9.3,9.3,0,0,1,260.41,187.83Z"/><path class="b" d="M275.42,187.47,270.29,170h3.51l3.42,12.82h.17L280.82,170h3.51l3.41,12.76h.17l3.4-12.76h3.51l-5.12,17.45h-3.47l-3.54-12.6h-.27l-3.54,12.6Z"/><path class="b" d="M321.75,164.2h3.53v15.31a8.15,8.15,0,0,1-1.15,4.32,8,8,0,0,1-3.23,3,11.62,11.62,0,0,1-9.74,0,8,8,0,0,1-3.23-3,8.15,8.15,0,0,1-1.14-4.32V164.2h3.51v15A5.53,5.53,0,0,0,311,182a4.91,4.91,0,0,0,2,1.93,7,7,0,0,0,6.11,0,4.91,4.91,0,0,0,2-1.93,5.73,5.73,0,0,0,.68-2.81Z"/><path class="b" d="M333.9,164.2v23.27h-3.51V164.2Z"/><path class="b" d="M347.49,187.47V164.2H351v20.25h10.55v3Z"/><path class="b" d="M370.35,187.86a7.15,7.15,0,0,1-3-.62,5,5,0,0,1-2.12-1.8,5.22,5.22,0,0,1-.77-2.9,4.8,4.8,0,0,1,.56-2.43,4.21,4.21,0,0,1,1.54-1.51,8,8,0,0,1,2.16-.84,19.27,19.27,0,0,1,2.43-.43l2.55-.3a3.74,3.74,0,0,0,1.42-.4,1,1,0,0,0,.44-.88v-.08a3.08,3.08,0,0,0-.84-2.31,3.37,3.37,0,0,0-2.48-.82,4.31,4.31,0,0,0-2.7.76,4.13,4.13,0,0,0-1.36,1.67l-3.19-.72a6.15,6.15,0,0,1,1.67-2.58,6.85,6.85,0,0,1,2.52-1.43,10,10,0,0,1,3-.45,10.56,10.56,0,0,1,2.22.25,6.58,6.58,0,0,1,2.2.89,4.9,4.9,0,0,1,1.69,1.85,6.36,6.36,0,0,1,.66,3.1v11.59h-3.32v-2.38h-.14a4.74,4.74,0,0,1-1,1.29,5,5,0,0,1-1.69,1.06A6.56,6.56,0,0,1,370.35,187.86Zm.74-2.73a5,5,0,0,0,2.42-.55,3.92,3.92,0,0,0,1.53-1.46,3.83,3.83,0,0,0,.53-1.94v-2.25a1.68,1.68,0,0,1-.7.33,9.7,9.7,0,0,1-1.17.27l-1.29.19-1,.14a8.14,8.14,0,0,0-1.81.42,3.07,3.07,0,0,0-1.29.85,2.43,2.43,0,0,0,.45,3.36A4.07,4.07,0,0,0,371.09,185.13Z"/><path class="b" d="M394.55,180.24V170H398v17.45h-3.34v-3h-.19a5.46,5.46,0,0,1-1.92,2.33,5.67,5.67,0,0,1-3.29.92,5.9,5.9,0,0,1-3-.74,5.19,5.19,0,0,1-2-2.21,8.07,8.07,0,0,1-.73-3.63V170h3.4v10.69a4,4,0,0,0,1,2.84,3.33,3.33,0,0,0,2.57,1.06,4.18,4.18,0,0,0,1.9-.48,4.1,4.1,0,0,0,1.58-1.44A4.39,4.39,0,0,0,394.55,180.24Z"/><path class="b" d="M405.91,177.11v10.36h-3.4V170h3.26v2.84H406a5,5,0,0,1,1.89-2.23,5.87,5.87,0,0,1,3.26-.84,6.26,6.26,0,0,1,3.12.75,5,5,0,0,1,2.08,2.21,8,8,0,0,1,.74,3.62v11.1h-3.4V176.78a4.23,4.23,0,0,0-1-3,3.47,3.47,0,0,0-2.71-1.07,4.24,4.24,0,0,0-2.1.51,3.63,3.63,0,0,0-1.44,1.49A5,5,0,0,0,405.91,177.11Z"/><path class="b" d="M429,187.83a8,8,0,0,1-4.36-1.16,7.53,7.53,0,0,1-2.8-3.18,11.56,11.56,0,0,1,0-9.36,7.54,7.54,0,0,1,7.1-4.34,8.22,8.22,0,0,1,3.55.74,6.36,6.36,0,0,1,2.52,2.05,6.18,6.18,0,0,1,1.14,3.08h-3.31a4,4,0,0,0-1.24-2.12,3.72,3.72,0,0,0-2.6-.88,4.18,4.18,0,0,0-2.48.74,4.83,4.83,0,0,0-1.65,2.11,8,8,0,0,0-.6,3.24,8.6,8.6,0,0,0,.58,3.29,4.89,4.89,0,0,0,1.65,2.15,4.14,4.14,0,0,0,2.5.76,4.2,4.2,0,0,0,1.76-.36,3.62,3.62,0,0,0,1.33-1,3.81,3.81,0,0,0,.75-1.61h3.31a6.3,6.3,0,0,1-3.56,5.11A8,8,0,0,1,429,187.83Z"/><path class="b" d="M443.19,177.11v10.36H439.8V164.2h3.35v8.66h.21a5,5,0,0,1,1.88-2.24,5.93,5.93,0,0,1,3.3-.83,6.48,6.48,0,0,1,3.14.74,5.06,5.06,0,0,1,2.09,2.2,8.05,8.05,0,0,1,.74,3.64v11.1h-3.4V176.78a4.2,4.2,0,0,0-1-3,3.57,3.57,0,0,0-2.75-1.06,4.5,4.5,0,0,0-2.16.51,3.69,3.69,0,0,0-1.49,1.49A4.88,4.88,0,0,0,443.19,177.11Z"/><path class="c" d="M332.15,135.44v-3.83h19.2v3.83Zm7.68,7.69v-19.2h3.82v19.2Z"/><rect class="a" x="576.74" y="1" width="350" height="235" rx="12"/><path class="b" d="M630.51,108V84.73h14.43v3H634v7.1h9.89v3H634V108Z"/><path class="b" d="M654,108.39a7.09,7.09,0,0,1-3-.62,4.91,4.91,0,0,1-2.12-1.8,5.14,5.14,0,0,1-.78-2.9,4.7,4.7,0,0,1,.57-2.43,4.18,4.18,0,0,1,1.53-1.51,8.23,8.23,0,0,1,2.16-.84,22.06,22.06,0,0,1,2.43-.43l2.55-.3a3.56,3.56,0,0,0,1.42-.4.94.94,0,0,0,.44-.88V96.2a3.13,3.13,0,0,0-.83-2.31,3.46,3.46,0,0,0-2.49-.82,4.32,4.32,0,0,0-2.69.76,4,4,0,0,0-1.36,1.67l-3.2-.72a6.25,6.25,0,0,1,1.67-2.58,6.82,6.82,0,0,1,2.53-1.43,10,10,0,0,1,3-.45,10.42,10.42,0,0,1,2.22.25,6.63,6.63,0,0,1,2.21.89A5,5,0,0,1,662,93.31a6.39,6.39,0,0,1,.66,3.1V108h-3.32v-2.38h-.13a4.74,4.74,0,0,1-1,1.29,5.14,5.14,0,0,1-1.69,1.06A6.6,6.6,0,0,1,654,108.39Zm.74-2.73a4.91,4.91,0,0,0,2.41-.55,4,4,0,0,0,1.54-1.46,3.82,3.82,0,0,0,.52-1.94V99.46a1.69,1.69,0,0,1-.69.33,9.89,9.89,0,0,1-1.18.27l-1.28.19-1,.14a7.92,7.92,0,0,0-1.8.42,3.17,3.17,0,0,0-1.3.85,2.43,2.43,0,0,0,.45,3.36A4.1,4.1,0,0,0,654.74,105.66Z"/><path class="b" d="M670.53,97.64V108h-3.4V90.55h3.27v2.84h.21a5,5,0,0,1,1.89-2.23,5.87,5.87,0,0,1,3.26-.84,6.26,6.26,0,0,1,3.12.75A5,5,0,0,1,681,93.28a7.86,7.86,0,0,1,.74,3.62V108h-3.39V97.31a4.23,4.23,0,0,0-1-3,3.5,3.5,0,0,0-2.72-1.07,4.24,4.24,0,0,0-2.1.51,3.63,3.63,0,0,0-1.44,1.49A5,5,0,0,0,670.53,97.64Z"/><path class="b" d="M694.4,90.55v2.73h-9.54V90.55Zm-7-4.18h3.4v16.51a3,3,0,0,0,.29,1.48,1.46,1.46,0,0,0,.77.67,2.86,2.86,0,0,0,1,.18,3.69,3.69,0,0,0,.71-.06l.48-.09.61,2.81a6.53,6.53,0,0,1-.84.23,7.12,7.12,0,0,1-1.36.13,5.81,5.81,0,0,1-2.5-.48,4.28,4.28,0,0,1-1.88-1.54,4.6,4.6,0,0,1-.71-2.63Z"/><path class="b" d="M705.32,108.36a8,8,0,0,1-4.29-1.13,7.62,7.62,0,0,1-2.84-3.15,10.45,10.45,0,0,1-1-4.72,10.58,10.58,0,0,1,1-4.75A7.58,7.58,0,0,1,701,91.45a8.69,8.69,0,0,1,8.57,0,7.52,7.52,0,0,1,2.84,3.16,10.45,10.45,0,0,1,1,4.75,10.32,10.32,0,0,1-1,4.72,7.55,7.55,0,0,1-2.84,3.15A8,8,0,0,1,705.32,108.36Zm0-2.86a4,4,0,0,0,2.63-.84,5,5,0,0,0,1.56-2.23,9.74,9.74,0,0,0,0-6.16A5,5,0,0,0,708,94a4,4,0,0,0-2.63-.86,4.08,4.08,0,0,0-2.66.86,4.93,4.93,0,0,0-1.55,2.25,9.56,9.56,0,0,0,0,6.16,4.87,4.87,0,0,0,1.55,2.23A4.13,4.13,0,0,0,705.33,105.5Z"/><path class="b" d="M717.24,108V90.55h3.26v2.84h.21a4.55,4.55,0,0,1,1.79-2.25,5.19,5.19,0,0,1,3-.82,5.09,5.09,0,0,1,2.94.82,4.88,4.88,0,0,1,1.76,2.25h.18a4.92,4.92,0,0,1,2-2.23,6.07,6.07,0,0,1,3.25-.84,5.31,5.31,0,0,1,3.88,1.49A6.07,6.07,0,0,1,741,96.3V108h-3.39V96.62a3.16,3.16,0,0,0-1-2.57,3.51,3.51,0,0,0-2.31-.8,3.32,3.32,0,0,0-2.58,1,3.76,3.76,0,0,0-.92,2.61V108h-3.38V96.4a3,3,0,0,0-.89-2.28,3.15,3.15,0,0,0-2.31-.87,3.26,3.26,0,0,0-1.77.51,3.76,3.76,0,0,0-1.31,1.4,4.27,4.27,0,0,0-.5,2.08V108Z"/><path class="b" d="M754.26,84.73h4.26l7.41,18.09h.27l7.41-18.09h4.26V108h-3.34V91.16h-.21L767.45,108h-2.77l-6.86-16.82h-.22V108h-3.34Z"/><path class="b" d="M787.79,108.39a7.15,7.15,0,0,1-3-.62,5,5,0,0,1-2.12-1.8,5.14,5.14,0,0,1-.78-2.9,4.7,4.7,0,0,1,.57-2.43A4.13,4.13,0,0,1,784,99.13a8,8,0,0,1,2.16-.84,21.25,21.25,0,0,1,2.43-.43l2.54-.3a3.46,3.46,0,0,0,1.42-.4.94.94,0,0,0,.45-.88V96.2a3.09,3.09,0,0,0-.84-2.31,3.42,3.42,0,0,0-2.48-.82,4.37,4.37,0,0,0-2.7.76,4.13,4.13,0,0,0-1.36,1.67l-3.19-.72a6.23,6.23,0,0,1,1.66-2.58,7,7,0,0,1,2.53-1.43,10,10,0,0,1,3-.45,10.58,10.58,0,0,1,2.23.25,6.66,6.66,0,0,1,2.2.89,4.9,4.9,0,0,1,1.69,1.85,6.39,6.39,0,0,1,.66,3.1V108h-3.32v-2.38H793a4.74,4.74,0,0,1-1,1.29,5.14,5.14,0,0,1-1.69,1.06A6.6,6.6,0,0,1,787.79,108.39Zm.74-2.73a5,5,0,0,0,2.42-.55,3.92,3.92,0,0,0,1.53-1.46,3.83,3.83,0,0,0,.53-1.94V99.46a1.75,1.75,0,0,1-.7.33,9.89,9.89,0,0,1-1.18.27l-1.28.19-1.05.14a7.92,7.92,0,0,0-1.8.42,3.07,3.07,0,0,0-1.29.85,2.4,2.4,0,0,0,.45,3.36A4.07,4.07,0,0,0,788.53,105.66Z"/><path class="b" d="M802.64,87.86a2.11,2.11,0,0,1-1.51-.6,1.94,1.94,0,0,1,0-2.86,2.21,2.21,0,0,1,3,0,1.94,1.94,0,0,1,0,2.86A2.11,2.11,0,0,1,802.64,87.86ZM800.93,108V90.55h3.4V108Z"/><path class="b" d="M812.29,97.64V108h-3.4V90.55h3.27v2.84h.21a5,5,0,0,1,1.89-2.23,5.87,5.87,0,0,1,3.26-.84,6.26,6.26,0,0,1,3.12.75,5,5,0,0,1,2.08,2.21,7.86,7.86,0,0,1,.74,3.62V108h-3.39V97.31a4.23,4.23,0,0,0-1-3,3.5,3.5,0,0,0-2.72-1.07,4.24,4.24,0,0,0-2.1.51,3.63,3.63,0,0,0-1.44,1.49A5,5,0,0,0,812.29,97.64Z"/><path class="b" d="M831.41,97.64V108H828V90.55h3.26v2.84h.22a5,5,0,0,1,1.89-2.23,5.84,5.84,0,0,1,3.25-.84,6.33,6.33,0,0,1,3.13.75,5.07,5.07,0,0,1,2.08,2.21,8,8,0,0,1,.74,3.62V108h-3.4V97.31a4.23,4.23,0,0,0-1-3,3.5,3.5,0,0,0-2.72-1.07,4.23,4.23,0,0,0-2.09.51,3.72,3.72,0,0,0-1.45,1.49A5,5,0,0,0,831.41,97.64Z"/><path class="b" d="M854.64,108.36a8.47,8.47,0,0,1-4.43-1.11,7.38,7.38,0,0,1-2.87-3.13,10.47,10.47,0,0,1-1-4.73,10.62,10.62,0,0,1,1-4.73,7.54,7.54,0,0,1,7.07-4.34,8.73,8.73,0,0,1,2.86.49,7.06,7.06,0,0,1,2.49,1.54,7.29,7.29,0,0,1,1.74,2.71,11.43,11.43,0,0,1,.63,4v1.2H848.26V97.75H858.8a5.12,5.12,0,0,0-.54-2.38,4.24,4.24,0,0,0-1.53-1.64,4.33,4.33,0,0,0-2.3-.6,4.41,4.41,0,0,0-2.5.7,4.69,4.69,0,0,0-1.63,1.82,5.24,5.24,0,0,0-.58,2.42v2a6.6,6.6,0,0,0,.62,3,4.38,4.38,0,0,0,1.74,1.87,5.09,5.09,0,0,0,2.6.64,5.2,5.2,0,0,0,1.76-.28,3.6,3.6,0,0,0,1.37-.83,3.54,3.54,0,0,0,.89-1.38l3.22.58a5.79,5.79,0,0,1-1.38,2.48,6.79,6.79,0,0,1-2.49,1.65A9.3,9.3,0,0,1,854.64,108.36Z"/><path class="b" d="M874.06,90.55v2.73h-9.53V90.55Zm-7-4.18h3.39v16.51a2.9,2.9,0,0,0,.3,1.48,1.46,1.46,0,0,0,.77.67,2.82,2.82,0,0,0,1,.18,3.69,3.69,0,0,0,.71-.06l.48-.09.61,2.81a6.53,6.53,0,0,1-.84.23,7.12,7.12,0,0,1-1.36.13,5.78,5.78,0,0,1-2.5-.48,4.28,4.28,0,0,1-1.88-1.54,4.6,4.6,0,0,1-.71-2.63Z"/><path class="b" d="M698.38,146.4V123.13h3.51v20.25h10.55v3Z"/><path class="b" d="M721.24,146.79a7.15,7.15,0,0,1-3-.62,5,5,0,0,1-2.12-1.8,5.14,5.14,0,0,1-.78-2.9,4.7,4.7,0,0,1,.57-2.43,4.13,4.13,0,0,1,1.54-1.51,8,8,0,0,1,2.16-.84,21.25,21.25,0,0,1,2.43-.43l2.54-.3a3.51,3.51,0,0,0,1.42-.4.94.94,0,0,0,.45-.88v-.08a3.09,3.09,0,0,0-.84-2.31,3.43,3.43,0,0,0-2.48-.82,4.33,4.33,0,0,0-2.7.76,4,4,0,0,0-1.36,1.67l-3.19-.72a6.23,6.23,0,0,1,1.66-2.58,6.89,6.89,0,0,1,2.53-1.43,10,10,0,0,1,3-.45,10.42,10.42,0,0,1,2.22.25,6.63,6.63,0,0,1,2.21.89,5,5,0,0,1,1.69,1.85,6.39,6.39,0,0,1,.66,3.1V146.4h-3.32V144h-.14a4.74,4.74,0,0,1-1,1.29,5.14,5.14,0,0,1-1.69,1.06A6.6,6.6,0,0,1,721.24,146.79Zm.74-2.73a5,5,0,0,0,2.42-.55,3.92,3.92,0,0,0,1.53-1.46,3.83,3.83,0,0,0,.53-1.94v-2.25a1.75,1.75,0,0,1-.7.33,9.89,9.89,0,0,1-1.18.27l-1.28.19-1,.14a7.92,7.92,0,0,0-1.8.42,3.07,3.07,0,0,0-1.29.85,2.1,2.1,0,0,0-.49,1.46,2.14,2.14,0,0,0,.94,1.9A4.07,4.07,0,0,0,722,144.06Z"/><path class="b" d="M745.43,139.17V129h3.41V146.4H745.5v-3h-.18a5.46,5.46,0,0,1-1.92,2.33,5.67,5.67,0,0,1-3.29.92,5.91,5.91,0,0,1-3-.74,5.17,5.17,0,0,1-2-2.21,8.07,8.07,0,0,1-.73-3.63V129h3.4v10.69a4,4,0,0,0,1,2.84,3.35,3.35,0,0,0,2.57,1.06,4.22,4.22,0,0,0,1.91-.48,4,4,0,0,0,1.58-1.44A4.31,4.31,0,0,0,745.43,139.17Z"/><path class="b" d="M756.8,136V146.4h-3.4V129h3.26v2.84h.22a5,5,0,0,1,1.89-2.23,5.85,5.85,0,0,1,3.26-.84,6.29,6.29,0,0,1,3.12.75,5,5,0,0,1,2.08,2.21,8,8,0,0,1,.74,3.62v11.1h-3.4V135.71a4.23,4.23,0,0,0-1-3,3.48,3.48,0,0,0-2.71-1.07,4.24,4.24,0,0,0-2.1.51,3.63,3.63,0,0,0-1.44,1.49A4.88,4.88,0,0,0,756.8,136Z"/><path class="b" d="M779.87,146.76a8,8,0,0,1-4.36-1.16,7.53,7.53,0,0,1-2.8-3.18,10.67,10.67,0,0,1-1-4.66,10.48,10.48,0,0,1,1-4.7,7.75,7.75,0,0,1,2.82-3.19,7.89,7.89,0,0,1,4.28-1.15,8.22,8.22,0,0,1,3.55.74,6.32,6.32,0,0,1,2.51,2,6.19,6.19,0,0,1,1.15,3.08h-3.31a4,4,0,0,0-1.24-2.12,3.72,3.72,0,0,0-2.6-.88,4.16,4.16,0,0,0-2.48.74,4.92,4.92,0,0,0-1.66,2.11,8.26,8.26,0,0,0-.59,3.24,8.41,8.41,0,0,0,.58,3.29,4.88,4.88,0,0,0,1.64,2.15,4.19,4.19,0,0,0,2.51.76,4.15,4.15,0,0,0,1.75-.36,3.52,3.52,0,0,0,1.33-1,3.92,3.92,0,0,0,.76-1.62H787a6.37,6.37,0,0,1-3.57,5.12A8.09,8.09,0,0,1,779.87,146.76Z"/><path class="b" d="M794.08,136V146.4h-3.4V123.13H794v8.66h.21a5.08,5.08,0,0,1,1.88-2.24,5.92,5.92,0,0,1,3.29-.83,6.42,6.42,0,0,1,3.14.74,5.08,5.08,0,0,1,2.1,2.2,8.05,8.05,0,0,1,.74,3.64v11.1H802V135.71a4.2,4.2,0,0,0-1-3,3.56,3.56,0,0,0-2.75-1.06,4.46,4.46,0,0,0-2.15.51,3.69,3.69,0,0,0-1.49,1.49A4.88,4.88,0,0,0,794.08,136Z"/><rect class="a" x="975.24" y="1" width="375" height="235" rx="12"/><path class="b" d="M1037.71,45.66h4l6.08,10.58h.25l6.08-10.58h4l-8.45,14.14v9.14h-3.5V59.8Z"/><path class="b" d="M1062.77,48.79a2.11,2.11,0,0,1-1.52-.6,1.94,1.94,0,0,1,0-2.86,2.21,2.21,0,0,1,3,0,1.94,1.94,0,0,1,0,2.86A2.11,2.11,0,0,1,1062.77,48.79Zm-1.72,20.15V51.48h3.4V68.94Z"/><path class="b" d="M1076.54,69.29a8.51,8.51,0,0,1-4.44-1.11,7.35,7.35,0,0,1-2.86-3.13,10.47,10.47,0,0,1-1-4.73,10.62,10.62,0,0,1,1-4.73,7.51,7.51,0,0,1,7.06-4.34,8.68,8.68,0,0,1,2.86.49,6.88,6.88,0,0,1,2.49,1.54,7,7,0,0,1,1.74,2.71,11.41,11.41,0,0,1,.64,4v1.2h-13.88V58.69h10.55a5,5,0,0,0-.55-2.39,4.1,4.1,0,0,0-1.53-1.64,4.31,4.31,0,0,0-2.3-.6,4.4,4.4,0,0,0-2.49.7,4.64,4.64,0,0,0-1.64,1.82,5.23,5.23,0,0,0-.57,2.42v2a6.47,6.47,0,0,0,.62,3,4.36,4.36,0,0,0,1.73,1.87,5.09,5.09,0,0,0,2.6.64,5.16,5.16,0,0,0,1.76-.28,3.72,3.72,0,0,0,1.38-.83,3.64,3.64,0,0,0,.88-1.38l3.22.58a5.79,5.79,0,0,1-1.38,2.48,6.62,6.62,0,0,1-2.49,1.65A9.29,9.29,0,0,1,1076.54,69.29Z"/><path class="b" d="M1091.21,45.66V68.94h-3.4V45.66Z"/><path class="b" d="M1102.31,69.28a6.77,6.77,0,0,1-3.77-1.09,7.31,7.31,0,0,1-2.59-3.1,11.53,11.53,0,0,1-.93-4.85,11.33,11.33,0,0,1,.94-4.84,7.3,7.3,0,0,1,2.61-3.08,6.82,6.82,0,0,1,3.76-1.07,5.46,5.46,0,0,1,2.62.54,4.75,4.75,0,0,1,1.55,1.26,11.93,11.93,0,0,1,.86,1.26h.2V45.66h3.4V68.94h-3.32V66.22h-.28a10.25,10.25,0,0,1-.88,1.27,5,5,0,0,1-1.58,1.25A5.44,5.44,0,0,1,1102.31,69.28Zm.75-2.9a3.93,3.93,0,0,0,2.48-.78,4.79,4.79,0,0,0,1.55-2.16,9.11,9.11,0,0,0,.53-3.23,8.83,8.83,0,0,0-.53-3.18,4.66,4.66,0,0,0-1.53-2.13,4,4,0,0,0-2.5-.76,4.07,4.07,0,0,0-2.56.8,4.86,4.86,0,0,0-1.54,2.17,8.84,8.84,0,0,0-.51,3.1,8.93,8.93,0,0,0,.52,3.15,5,5,0,0,0,1.55,2.21A4,4,0,0,0,1103.06,66.38Z"/><path class="b" d="M1139.21,51.48l-6.33,17.46h-3.64l-6.34-17.46h3.65L1131,64.91h.18l4.41-13.43Z"/><path class="b" d="M1142.36,68.94V66.39l7.87-8.16c.84-.89,1.54-1.66,2.09-2.33a9.14,9.14,0,0,0,1.23-1.92,4.67,4.67,0,0,0,.41-1.93,3.61,3.61,0,0,0-.55-2,3.56,3.56,0,0,0-1.49-1.3,4.72,4.72,0,0,0-2.12-.46,4.45,4.45,0,0,0-2.18.51,3.48,3.48,0,0,0-1.43,1.44,4.47,4.47,0,0,0-.5,2.18h-3.36a7,7,0,0,1,1-3.71,6.75,6.75,0,0,1,2.68-2.48,8.43,8.43,0,0,1,3.88-.88,8.3,8.3,0,0,1,3.87.87,6.68,6.68,0,0,1,2.62,2.37,6.24,6.24,0,0,1,.94,3.37,6.93,6.93,0,0,1-.48,2.53,11.45,11.45,0,0,1-1.68,2.76,47.1,47.1,0,0,1-3.32,3.67l-4.62,4.84v.17h10.47v3Z"/><path class="b" d="M1170.78,68.94V45.66h3.51V65.91h10.54v3Z"/><path class="b" d="M1193.64,69.32a6.94,6.94,0,0,1-3-.62,5,5,0,0,1-2.12-1.8,5.14,5.14,0,0,1-.78-2.9,4.7,4.7,0,0,1,.57-2.43,4.26,4.26,0,0,1,1.53-1.51,8.23,8.23,0,0,1,2.16-.84,22.06,22.06,0,0,1,2.43-.43l2.55-.3a3.56,3.56,0,0,0,1.42-.4.94.94,0,0,0,.44-.88v-.08a3.13,3.13,0,0,0-.83-2.31,3.45,3.45,0,0,0-2.48-.82,4.33,4.33,0,0,0-2.7.76,4,4,0,0,0-1.36,1.68l-3.19-.73a6.13,6.13,0,0,1,1.66-2.58,6.82,6.82,0,0,1,2.53-1.43,10,10,0,0,1,3-.45,10.42,10.42,0,0,1,2.22.25,6.63,6.63,0,0,1,2.21.89,5,5,0,0,1,1.68,1.85,6.39,6.39,0,0,1,.66,3.1v11.6h-3.32V66.55h-.13a4.74,4.74,0,0,1-1,1.29,5.14,5.14,0,0,1-1.69,1.06A6.6,6.6,0,0,1,1193.64,69.32Zm.74-2.73a4.91,4.91,0,0,0,2.41-.55,4,4,0,0,0,1.54-1.46,3.82,3.82,0,0,0,.52-1.94V60.39a1.69,1.69,0,0,1-.69.33A9.89,9.89,0,0,1,1197,61l-1.28.19-1,.14a8.49,8.49,0,0,0-1.8.42,3.17,3.17,0,0,0-1.3.85A2.43,2.43,0,0,0,1192,66,4.1,4.1,0,0,0,1194.38,66.59Z"/><path class="b" d="M1217.83,61.7V51.48h3.41V68.94h-3.34v-3h-.18a5.48,5.48,0,0,1-1.93,2.33,5.65,5.65,0,0,1-3.29.92,5.9,5.9,0,0,1-3-.74,5.11,5.11,0,0,1-2-2.21,8.07,8.07,0,0,1-.73-3.63V51.48h3.39V62.17a4,4,0,0,0,1,2.84,3.35,3.35,0,0,0,2.57,1.06,4.15,4.15,0,0,0,1.9-.48,4,4,0,0,0,1.58-1.44A4.31,4.31,0,0,0,1217.83,61.7Z"/><path class="b" d="M1229.2,58.57V68.94h-3.4V51.48h3.26v2.84h.21a5.13,5.13,0,0,1,1.9-2.23,5.84,5.84,0,0,1,3.25-.84,6.33,6.33,0,0,1,3.13.75,5.07,5.07,0,0,1,2.08,2.21,8,8,0,0,1,.74,3.62V68.94H1237V58.24a4.23,4.23,0,0,0-1-3,3.49,3.49,0,0,0-2.72-1.07,4.23,4.23,0,0,0-2.09.51,3.72,3.72,0,0,0-1.45,1.49A5,5,0,0,0,1229.2,58.57Z"/><path class="b" d="M1252.26,69.29a7.93,7.93,0,0,1-4.35-1.16A7.56,7.56,0,0,1,1245.1,65a10.67,10.67,0,0,1-1-4.66,10.48,10.48,0,0,1,1-4.7A7.61,7.61,0,0,1,1248,52.4a7.89,7.89,0,0,1,4.28-1.15,8.18,8.18,0,0,1,3.54.74,6.36,6.36,0,0,1,2.52,2,6.18,6.18,0,0,1,1.14,3.08h-3.3a4,4,0,0,0-1.25-2.12,3.7,3.7,0,0,0-2.59-.88,4.28,4.28,0,0,0-2.49.74,4.83,4.83,0,0,0-1.65,2.11,8.26,8.26,0,0,0-.59,3.24,8.41,8.41,0,0,0,.58,3.29,4.8,4.8,0,0,0,1.64,2.15,4.49,4.49,0,0,0,4.26.4,3.52,3.52,0,0,0,1.33-1,4.05,4.05,0,0,0,.76-1.62h3.3a6.29,6.29,0,0,1-3.56,5.12A8.17,8.17,0,0,1,1252.26,69.29Z"/><path class="b" d="M1266.48,58.57V68.94h-3.4V45.66h3.35v8.66h.22a5.06,5.06,0,0,1,1.87-2.24,6,6,0,0,1,3.3-.83A6.45,6.45,0,0,1,1275,52a5,5,0,0,1,2.09,2.2,7.92,7.92,0,0,1,.75,3.64V68.94h-3.4V58.24a4.2,4.2,0,0,0-1-3,3.57,3.57,0,0,0-2.75-1.06,4.46,4.46,0,0,0-2.15.51A3.63,3.63,0,0,0,1267,56.2,4.88,4.88,0,0,0,1266.48,58.57Z"/><path class="b" d="M1100.87,89a19.75,19.75,0,0,1,.84-5.9,17.48,17.48,0,0,1,2.46-5h2.34a11,11,0,0,0-1.18,2.07,20.13,20.13,0,0,0-.95,2.69,24.26,24.26,0,0,0-.64,3,21.06,21.06,0,0,0,.17,7.19A23.88,23.88,0,0,0,1105,97a12.38,12.38,0,0,0,1.52,2.9h-2.34a17.35,17.35,0,0,1-2.46-5A19.7,19.7,0,0,1,1100.87,89Z"/><path class="b" d="M1109.4,97.74V80.28h10.94v2.27H1112v5.32h7.74v2.25H1112v5.35h8.41v2.27Z"/><path class="b" d="M1129.78,84.64v2h-7.16v-2Zm-5.24-3.13h2.55V93.89a2.15,2.15,0,0,0,.22,1.11,1.14,1.14,0,0,0,.58.51,2.34,2.34,0,0,0,.77.13,4.26,4.26,0,0,0,.54,0l.35-.07.46,2.1a3.64,3.64,0,0,1-.63.18,5.48,5.48,0,0,1-1,.1,4.49,4.49,0,0,1-1.87-.36,3.26,3.26,0,0,1-1.41-1.16,3.39,3.39,0,0,1-.54-2Z"/><path class="b" d="M1135.41,90v7.78h-2.55V80.28h2.51v6.49h.17a3.69,3.69,0,0,1,1.4-1.67,4.39,4.39,0,0,1,2.47-.63,4.82,4.82,0,0,1,2.36.56,3.8,3.8,0,0,1,1.57,1.65,6,6,0,0,1,.56,2.73v8.33h-2.55v-8a3.16,3.16,0,0,0-.74-2.23,2.69,2.69,0,0,0-2.06-.8,3.4,3.4,0,0,0-1.62.38,2.77,2.77,0,0,0-1.12,1.13A3.62,3.62,0,0,0,1135.41,90Z"/><path class="b" d="M1153,98a6.43,6.43,0,0,1-3.33-.83,5.63,5.63,0,0,1-2.15-2.35,8.75,8.75,0,0,1,0-7.09,5.89,5.89,0,0,1,2.12-2.4,5.82,5.82,0,0,1,3.18-.86,6.57,6.57,0,0,1,2.15.37,5.17,5.17,0,0,1,1.86,1.15,5.44,5.44,0,0,1,1.31,2,8.54,8.54,0,0,1,.47,3V92h-10.4V90.05h7.91a3.84,3.84,0,0,0-.41-1.79,3.1,3.1,0,0,0-1.15-1.23,3.22,3.22,0,0,0-1.72-.45,3.3,3.3,0,0,0-1.87.52,3.52,3.52,0,0,0-1.23,1.37,3.88,3.88,0,0,0-.43,1.82v1.49a4.9,4.9,0,0,0,.46,2.23,3.33,3.33,0,0,0,1.3,1.4,3.86,3.86,0,0,0,2,.48,4.16,4.16,0,0,0,1.32-.2,2.82,2.82,0,0,0,1-.63,2.69,2.69,0,0,0,.66-1l2.41.43a4.38,4.38,0,0,1-1,1.86,4.91,4.91,0,0,1-1.87,1.24A7,7,0,0,1,1153,98Z"/><path class="b" d="M1161.4,97.74V84.64h2.47v2.08h.13a3.15,3.15,0,0,1,1.27-1.66,3.57,3.57,0,0,1,2.06-.61h.56l.52.05V87a3.48,3.48,0,0,0-.55-.1,5.12,5.12,0,0,0-.78-.06,3.39,3.39,0,0,0-1.61.38,2.81,2.81,0,0,0-1.11,1,2.88,2.88,0,0,0-.41,1.52v8Z"/><path class="b" d="M1175.79,98a6.43,6.43,0,0,1-3.33-.83,5.63,5.63,0,0,1-2.15-2.35,8.75,8.75,0,0,1,0-7.09,5.89,5.89,0,0,1,2.12-2.4,5.82,5.82,0,0,1,3.18-.86,6.57,6.57,0,0,1,2.15.37,5.17,5.17,0,0,1,1.86,1.15,5.32,5.32,0,0,1,1.31,2,8.52,8.52,0,0,1,.48,3V92H1171V90.05h7.91a3.84,3.84,0,0,0-.41-1.79,3.1,3.1,0,0,0-1.15-1.23,3.22,3.22,0,0,0-1.72-.45,3.3,3.3,0,0,0-1.87.52,3.6,3.6,0,0,0-1.23,1.37,3.88,3.88,0,0,0-.43,1.82v1.49a4.9,4.9,0,0,0,.46,2.23,3.33,3.33,0,0,0,1.3,1.4,3.86,3.86,0,0,0,2,.48,4.27,4.27,0,0,0,1.33-.2,2.86,2.86,0,0,0,1-.63,2.69,2.69,0,0,0,.66-1l2.41.43a4.27,4.27,0,0,1-1,1.86,4.91,4.91,0,0,1-1.87,1.24A7,7,0,0,1,1175.79,98Z"/><path class="b" d="M1192.54,92.31V84.64h2.55v13.1h-2.5V95.47h-.14a4,4,0,0,1-1.44,1.74,4.26,4.26,0,0,1-2.47.7,4.42,4.42,0,0,1-2.23-.56,3.9,3.9,0,0,1-1.52-1.66,6.13,6.13,0,0,1-.55-2.72V84.64h2.55v8a3,3,0,0,0,.74,2.13,2.53,2.53,0,0,0,1.93.8,3.16,3.16,0,0,0,1.43-.36,3,3,0,0,0,1.18-1.08A3.29,3.29,0,0,0,1192.54,92.31Z"/><path class="b" d="M1198.51,97.74V84.64H1201v2.13h.16a3.41,3.41,0,0,1,1.34-1.69,4,4,0,0,1,2.22-.61,3.76,3.76,0,0,1,2.2.62,3.56,3.56,0,0,1,1.32,1.68h.14a3.75,3.75,0,0,1,1.49-1.67,4.54,4.54,0,0,1,2.44-.63,4,4,0,0,1,2.91,1.12,4.56,4.56,0,0,1,1.13,3.37v8.78h-2.55V89.2a2.34,2.34,0,0,0-.73-1.93,2.62,2.62,0,0,0-1.73-.6,2.46,2.46,0,0,0-1.93.77,2.78,2.78,0,0,0-.69,2v8.35h-2.54V89a2.25,2.25,0,0,0-.67-1.71,2.38,2.38,0,0,0-1.73-.65,2.51,2.51,0,0,0-1.33.38,2.83,2.83,0,0,0-1,1,3.16,3.16,0,0,0-.37,1.56v8.08Z"/><path class="b" d="M1224.62,90.49a19.81,19.81,0,0,1-.85,5.91,17.61,17.61,0,0,1-2.46,5H1219a10.85,10.85,0,0,0,1.18-2.08,19.49,19.49,0,0,0,.95-2.68,22.93,22.93,0,0,0,.64-3,20.46,20.46,0,0,0,.23-3.09,21.41,21.41,0,0,0-.4-4.1,21.76,21.76,0,0,0-1.08-3.86,11.91,11.91,0,0,0-1.52-2.91h2.34a17.61,17.61,0,0,1,2.46,5A19.74,19.74,0,0,1,1224.62,90.49Z"/><path class="b" d="M1041.3,169.55a7.19,7.19,0,0,0-.88-1.85,6.09,6.09,0,0,0-1.31-1.41,5.75,5.75,0,0,0-1.74-.9,7.12,7.12,0,0,0-2.13-.3,6.36,6.36,0,0,0-3.54,1,6.8,6.8,0,0,0-2.5,3,12.92,12.92,0,0,0,0,9.55,6.86,6.86,0,0,0,2.52,3,7.24,7.24,0,0,0,7,.23,5.37,5.37,0,0,0,2.2-2.18,7,7,0,0,0,.77-3.34l.91.17h-6.66v-2.9h9.15v2.65a10,10,0,0,1-1.24,5.09,8.62,8.62,0,0,1-3.43,3.32,11.31,11.31,0,0,1-10.55-.28,9.87,9.87,0,0,1-3.71-4.13,14.14,14.14,0,0,1-1.33-6.36,15.26,15.26,0,0,1,.77-5,10.93,10.93,0,0,1,2.18-3.77,9.5,9.5,0,0,1,3.31-2.37,10.3,10.3,0,0,1,4.16-.83,10.87,10.87,0,0,1,3.52.56,9.75,9.75,0,0,1,2.91,1.58,9,9,0,0,1,2.12,2.43,8.8,8.8,0,0,1,1.13,3.1Z"/><path class="b" d="M1054.32,185.86a7.15,7.15,0,0,1-3-.62,5,5,0,0,1-2.12-1.8,5.14,5.14,0,0,1-.78-2.9,4.7,4.7,0,0,1,.57-2.43,4.13,4.13,0,0,1,1.54-1.51,8,8,0,0,1,2.16-.84,19.27,19.27,0,0,1,2.43-.43l2.54-.3a3.68,3.68,0,0,0,1.42-.4.94.94,0,0,0,.45-.88v-.08a3.08,3.08,0,0,0-.84-2.31,3.37,3.37,0,0,0-2.48-.82,4.29,4.29,0,0,0-2.7.76,4,4,0,0,0-1.36,1.67l-3.19-.72a6.23,6.23,0,0,1,1.66-2.58,6.89,6.89,0,0,1,2.53-1.43,10,10,0,0,1,3-.45,10.58,10.58,0,0,1,2.23.25,6.66,6.66,0,0,1,2.2.89,4.9,4.9,0,0,1,1.69,1.85,6.36,6.36,0,0,1,.66,3.1v11.59h-3.32v-2.38h-.14a4.74,4.74,0,0,1-1,1.29,5.14,5.14,0,0,1-1.69,1.06A6.6,6.6,0,0,1,1054.32,185.86Zm.74-2.73a5,5,0,0,0,2.42-.55,3.92,3.92,0,0,0,1.53-1.46,3.83,3.83,0,0,0,.53-1.94v-2.25a1.75,1.75,0,0,1-.7.33,9.89,9.89,0,0,1-1.18.27l-1.28.19-1.05.14a7.92,7.92,0,0,0-1.8.42,3.07,3.07,0,0,0-1.29.85,2.4,2.4,0,0,0,.45,3.36A4.07,4.07,0,0,0,1055.06,183.13Z"/><path class="b" d="M1080.54,172.28l-3.08.55a3.67,3.67,0,0,0-.61-1.13,3.1,3.1,0,0,0-1.12-.87,4,4,0,0,0-1.76-.34,4.27,4.27,0,0,0-2.41.64,1.93,1.93,0,0,0-1,1.65,1.75,1.75,0,0,0,.64,1.41,5.09,5.09,0,0,0,2.09.87l2.78.64a7.4,7.4,0,0,1,3.59,1.72,4,4,0,0,1,1.18,3,4.61,4.61,0,0,1-.9,2.79,6,6,0,0,1-2.52,1.91,9.18,9.18,0,0,1-3.72.7,8.32,8.32,0,0,1-4.78-1.26,5.25,5.25,0,0,1-2.27-3.57l3.28-.5a3.11,3.11,0,0,0,1.26,1.93,4.31,4.31,0,0,0,2.49.66,4.64,4.64,0,0,0,2.67-.7,2,2,0,0,0,1-1.71,1.78,1.78,0,0,0-.61-1.38,4,4,0,0,0-1.86-.84l-3-.65a7.07,7.07,0,0,1-3.61-1.77,4.28,4.28,0,0,1-1.16-3.08,4.42,4.42,0,0,1,.86-2.7,5.68,5.68,0,0,1,2.39-1.81,8.69,8.69,0,0,1,3.49-.66,7.28,7.28,0,0,1,4.45,1.22A5.8,5.8,0,0,1,1080.54,172.28Z"/><path class="b" d="M1113.57,173.84a13.93,13.93,0,0,1-1.36,6.4,9.87,9.87,0,0,1-3.73,4.11,10.81,10.81,0,0,1-10.78,0,9.94,9.94,0,0,1-3.73-4.11,15.76,15.76,0,0,1,0-12.81,10,10,0,0,1,3.73-4.11,10.81,10.81,0,0,1,10.78,0,10,10,0,0,1,3.73,4.11A14,14,0,0,1,1113.57,173.84Zm-3.48,0a11.22,11.22,0,0,0-.91-4.79,6.8,6.8,0,0,0-2.5-3,6.94,6.94,0,0,0-7.18,0,6.85,6.85,0,0,0-2.49,3,12.93,12.93,0,0,0,0,9.58,6.82,6.82,0,0,0,2.49,3,6.89,6.89,0,0,0,7.18,0,6.77,6.77,0,0,0,2.5-3A11.25,11.25,0,0,0,1110.09,173.84Z"/><path class="b" d="M1117.66,192V168H1121v2.83h.28a9.83,9.83,0,0,1,.86-1.26,4.81,4.81,0,0,1,1.54-1.26,5.46,5.46,0,0,1,2.62-.54,6.83,6.83,0,0,1,3.77,1.07,7.3,7.3,0,0,1,2.61,3.08,12.83,12.83,0,0,1,0,9.69,7.31,7.31,0,0,1-2.59,3.1,6.7,6.7,0,0,1-3.76,1.08,5.49,5.49,0,0,1-2.6-.53,4.93,4.93,0,0,1-1.57-1.25,10.25,10.25,0,0,1-.88-1.27h-.2V192Zm3.33-15.27a8.83,8.83,0,0,0,.54,3.22,4.82,4.82,0,0,0,1.54,2.17,4.34,4.34,0,0,0,5,0,5,5,0,0,0,1.56-2.21,9.74,9.74,0,0,0,0-6.25,4.85,4.85,0,0,0-1.55-2.17,4.52,4.52,0,0,0-5.06,0,4.77,4.77,0,0,0-1.54,2.12A9.08,9.08,0,0,0,1121,176.75Z"/><path class="b" d="M1145.56,168v2.73H1136V168Zm-7-4.18h3.4v16.51a2.9,2.9,0,0,0,.3,1.48,1.44,1.44,0,0,0,.76.67,2.9,2.9,0,0,0,1,.18,3.88,3.88,0,0,0,.72-.06l.47-.09.62,2.81a7.62,7.62,0,0,1-.84.23,7.23,7.23,0,0,1-1.37.13,5.84,5.84,0,0,1-2.5-.48,4.25,4.25,0,0,1-1.87-1.54,4.53,4.53,0,0,1-.72-2.63Z"/><path class="b" d="M1151,165.33a2.13,2.13,0,0,1-1.52-.6,1.94,1.94,0,0,1,0-2.86,2.13,2.13,0,0,1,1.52-.6,2.11,2.11,0,0,1,1.51.6,1.94,1.94,0,0,1,0,2.86A2.11,2.11,0,0,1,1151,165.33Zm-1.72,20.14V168h3.4v17.45Z"/><path class="b" d="M1157.28,185.47V168h3.26v2.84h.21a4.62,4.62,0,0,1,1.79-2.26,5.27,5.27,0,0,1,3-.81,5,5,0,0,1,2.94.82,4.88,4.88,0,0,1,1.76,2.25h.18a4.87,4.87,0,0,1,2-2.23,6.07,6.07,0,0,1,3.25-.84,5.31,5.31,0,0,1,3.88,1.49,6.07,6.07,0,0,1,1.5,4.49v11.7h-3.39V174.09a3.16,3.16,0,0,0-1-2.57,3.51,3.51,0,0,0-2.31-.8,3.32,3.32,0,0,0-2.58,1,3.76,3.76,0,0,0-.92,2.61v11.12h-3.38v-11.6a3,3,0,0,0-.89-2.28,3.15,3.15,0,0,0-2.31-.87,3.32,3.32,0,0,0-1.78.51,3.74,3.74,0,0,0-1.3,1.4,4.24,4.24,0,0,0-.5,2.08v10.76Z"/><path class="b" d="M1187.26,165.33a2.11,2.11,0,0,1-1.51-.6,1.94,1.94,0,0,1,0-2.86,2.11,2.11,0,0,1,1.51-.6,2.13,2.13,0,0,1,1.52.6,1.94,1.94,0,0,1,0,2.86A2.13,2.13,0,0,1,1187.26,165.33Zm-1.71,20.14V168h3.4v17.45Z"/><path class="b" d="M1193.15,185.47v-2.33l9.45-12V171h-9.14V168h13.38v2.48l-9.09,11.86v.16h9.41v2.95Z"/><path class="b" d="M1216.24,185.86a7.09,7.09,0,0,1-3-.62,5,5,0,0,1-2.12-1.8,5.14,5.14,0,0,1-.78-2.9,4.7,4.7,0,0,1,.57-2.43,4.13,4.13,0,0,1,1.54-1.51,8,8,0,0,1,2.15-.84,19.75,19.75,0,0,1,2.44-.43l2.54-.3a3.68,3.68,0,0,0,1.42-.4.94.94,0,0,0,.45-.88v-.08a3.08,3.08,0,0,0-.84-2.31,3.39,3.39,0,0,0-2.48-.82,4.27,4.27,0,0,0-2.7.76,4,4,0,0,0-1.36,1.67l-3.19-.72a6.23,6.23,0,0,1,1.66-2.58,6.89,6.89,0,0,1,2.53-1.43,10,10,0,0,1,3-.45,10.42,10.42,0,0,1,2.22.25,6.63,6.63,0,0,1,2.21.89,5,5,0,0,1,1.69,1.85,6.49,6.49,0,0,1,.65,3.1v11.59h-3.31v-2.38h-.14a4.74,4.74,0,0,1-1,1.29,5.14,5.14,0,0,1-1.69,1.06A6.6,6.6,0,0,1,1216.24,185.86Zm.74-2.73a4.91,4.91,0,0,0,2.41-.55,4,4,0,0,0,1.54-1.46,3.83,3.83,0,0,0,.53-1.94v-2.25a1.75,1.75,0,0,1-.7.33,9.89,9.89,0,0,1-1.18.27l-1.28.19-1,.14a7.92,7.92,0,0,0-1.8.42,3.07,3.07,0,0,0-1.29.85,2.1,2.1,0,0,0-.49,1.46,2.16,2.16,0,0,0,.93,1.9A4.12,4.12,0,0,0,1217,183.13Z"/><path class="b" d="M1237.52,168v2.73H1228V168Zm-7-4.18h3.4v16.51a2.91,2.91,0,0,0,.29,1.48,1.46,1.46,0,0,0,.77.67,2.86,2.86,0,0,0,1,.18,3.69,3.69,0,0,0,.71-.06l.48-.09.61,2.81a6.53,6.53,0,0,1-.84.23,7.12,7.12,0,0,1-1.36.13,5.78,5.78,0,0,1-2.5-.48,4.28,4.28,0,0,1-1.88-1.54,4.6,4.6,0,0,1-.71-2.63Z"/><path class="b" d="M1243,165.33a2.13,2.13,0,0,1-1.52-.6,1.94,1.94,0,0,1,0-2.86,2.23,2.23,0,0,1,3,0,1.94,1.94,0,0,1,0,2.86A2.13,2.13,0,0,1,1243,165.33Zm-1.72,20.14V168h3.4v17.45Z"/><path class="b" d="M1256.59,185.83a8,8,0,0,1-4.28-1.13,7.55,7.55,0,0,1-2.84-3.15,10.32,10.32,0,0,1-1-4.72,10.45,10.45,0,0,1,1-4.75,7.52,7.52,0,0,1,2.84-3.16,8.69,8.69,0,0,1,8.57,0,7.58,7.58,0,0,1,2.84,3.16,10.58,10.58,0,0,1,1,4.75,10.45,10.45,0,0,1-1,4.72,7.62,7.62,0,0,1-2.84,3.15A8,8,0,0,1,1256.59,185.83Zm0-2.86a4.07,4.07,0,0,0,2.64-.84,4.92,4.92,0,0,0,1.55-2.24,9.53,9.53,0,0,0,0-6.15,5,5,0,0,0-1.55-2.25,4,4,0,0,0-2.64-.86,4.08,4.08,0,0,0-2.65.86,5,5,0,0,0-1.56,2.25,9.71,9.71,0,0,0,0,6.15,4.94,4.94,0,0,0,1.56,2.24A4.12,4.12,0,0,0,1256.6,183Z"/><path class="b" d="M1271.91,175.11v10.36h-3.4V168h3.26v2.84h.22a5,5,0,0,1,1.89-2.23,5.87,5.87,0,0,1,3.26-.84,6.26,6.26,0,0,1,3.12.75,5,5,0,0,1,2.08,2.21,8,8,0,0,1,.74,3.62v11.1h-3.4V174.78a4.23,4.23,0,0,0-1-3,3.47,3.47,0,0,0-2.71-1.07,4.24,4.24,0,0,0-2.1.51,3.63,3.63,0,0,0-1.44,1.49A5,5,0,0,0,1271.91,175.11Z"/><path class="b" d="M1300.71,172.28l-3.08.55a3.89,3.89,0,0,0-.61-1.13,3.1,3.1,0,0,0-1.12-.87,4,4,0,0,0-1.76-.34,4.24,4.24,0,0,0-2.41.64,1.91,1.91,0,0,0-1,1.65,1.76,1.76,0,0,0,.65,1.41,5.09,5.09,0,0,0,2.09.87l2.77.64a7.39,7.39,0,0,1,3.6,1.72,4,4,0,0,1,1.18,3,4.55,4.55,0,0,1-.91,2.79,6,6,0,0,1-2.51,1.91,9.18,9.18,0,0,1-3.72.7,8.32,8.32,0,0,1-4.78-1.26,5.27,5.27,0,0,1-2.28-3.57l3.29-.5a3.07,3.07,0,0,0,1.26,1.93,4.31,4.31,0,0,0,2.49.66,4.64,4.64,0,0,0,2.67-.7,2.07,2.07,0,0,0,1-1.71,1.78,1.78,0,0,0-.61-1.38,4.08,4.08,0,0,0-1.86-.84l-2.95-.65a7.07,7.07,0,0,1-3.61-1.77,4.24,4.24,0,0,1-1.16-3.08,4.35,4.35,0,0,1,.86-2.7,5.61,5.61,0,0,1,2.39-1.81,8.64,8.64,0,0,1,3.48-.66,7.31,7.31,0,0,1,4.46,1.22A5.8,5.8,0,0,1,1300.71,172.28Z"/><path class="c" d="M1153.15,133.4v-3.82h19.2v3.82Zm7.68,7.7V121.89h3.82V141.1Z"/><line class="d" x1="577" y1="118.5" x2="529" y2="118.5"/><line class="d" x1="975" y1="118.5" x2="927" y2="118.5"/><line class="d" x1="154" y1="118.5" x2="106" y2="118.5"/><line class="d" x1="1398" y1="118.5" x2="1350" y2="118.5"/><line class="d" x1="106" y1="94.5" x2="106" y2="142.5"/><line class="d" x1="1398" y1="94.5" x2="1398" y2="142.5"/><path class="b" d="M53.31,97.35a23,23,0,0,1-2.45,11,17.05,17.05,0,0,1-6.66,7,18.9,18.9,0,0,1-9.47,2.39,18.8,18.8,0,0,1-9.49-2.4,17.06,17.06,0,0,1-6.65-7,23,23,0,0,1-2.44-11,23.1,23.1,0,0,1,2.44-11,17.09,17.09,0,0,1,6.65-7A18.9,18.9,0,0,1,34.73,77a18.9,18.9,0,0,1,9.47,2.39,17.11,17.11,0,0,1,6.66,7A23,23,0,0,1,53.31,97.35Zm-8.5,0a17.94,17.94,0,0,0-1.25-7.1A9.62,9.62,0,0,0,40,85.88a9.39,9.39,0,0,0-5.31-1.5,9.39,9.39,0,0,0-5.31,1.5,9.61,9.61,0,0,0-3.51,4.37,17.77,17.77,0,0,0-1.25,7.1,17.75,17.75,0,0,0,1.25,7.09,9.69,9.69,0,0,0,3.51,4.38,9.47,9.47,0,0,0,5.31,1.49A9.47,9.47,0,0,0,40,108.82a9.71,9.71,0,0,0,3.52-4.38A17.92,17.92,0,0,0,44.81,97.35Zm-13,6H39L42.54,108l3.53,4.11,6.64,8.33H44.89l-4.58-5.62L38,111.49Z"/><path class="b" d="M76.59,77.5v39.69H68.2V85.47H68l-9.08,5.69V83.72L68.7,77.5Z"/><path class="b" d="M10.13,156.47v-3.62L18.61,145c.72-.7,1.33-1.33,1.82-1.88a7.41,7.41,0,0,0,1.12-1.65,4.11,4.11,0,0,0,.38-1.75,3.41,3.41,0,0,0-.47-1.81,3.16,3.16,0,0,0-1.31-1.17,4.05,4.05,0,0,0-1.87-.41,3.84,3.84,0,0,0-1.9.44A3,3,0,0,0,15.12,138a4.18,4.18,0,0,0-.44,2H9.9A7.56,7.56,0,0,1,11,135.94a7,7,0,0,1,3-2.66,9.79,9.79,0,0,1,4.4-.94,10.35,10.35,0,0,1,4.46.9,7.1,7.1,0,0,1,2.95,2.49,6.41,6.41,0,0,1,1.06,3.65,7,7,0,0,1-.53,2.67A11.47,11.47,0,0,1,24.39,145a43.41,43.41,0,0,1-3.81,3.83l-3.47,3.4v.17h10v4.11Z"/><path class="b" d="M40.09,157a9,9,0,0,1-5.15-1.48,9.27,9.27,0,0,1-3.32-4.24,20,20,0,0,1,0-13.33,9.09,9.09,0,0,1,16.93,0,17,17,0,0,1,1.15,6.63,17.44,17.44,0,0,1-1.16,6.7,9.26,9.26,0,0,1-3.31,4.24A8.89,8.89,0,0,1,40.09,157Zm0-4.18a3.67,3.67,0,0,0,3.27-2.06,12.27,12.27,0,0,0,1.21-6.17,16,16,0,0,0-.55-4.51,5.94,5.94,0,0,0-1.56-2.71,3.44,3.44,0,0,0-2.37-.9,3.66,3.66,0,0,0-3.25,2,12.11,12.11,0,0,0-1.24,6.09,16,16,0,0,0,.56,4.58,5.86,5.86,0,0,0,1.56,2.74A3.42,3.42,0,0,0,40.09,152.82Z"/><path class="b" d="M53.29,156.47v-3.62L61.76,145c.72-.7,1.33-1.33,1.82-1.88a7.09,7.09,0,0,0,1.12-1.65,4,4,0,0,0,.39-1.75,3.33,3.33,0,0,0-.48-1.81,3.13,3.13,0,0,0-1.3-1.17,4.08,4.08,0,0,0-1.87-.41,3.88,3.88,0,0,0-1.91.44A3.06,3.06,0,0,0,58.27,138a4.18,4.18,0,0,0-.44,2H53.05a7.65,7.65,0,0,1,1.06-4.06,7.1,7.1,0,0,1,3-2.66,9.74,9.74,0,0,1,4.39-.94,10.32,10.32,0,0,1,4.46.9,7.13,7.13,0,0,1,3,2.49A6.49,6.49,0,0,1,70,139.38a7.18,7.18,0,0,1-.53,2.67A11.55,11.55,0,0,1,67.54,145a44.51,44.51,0,0,1-3.8,3.83l-3.48,3.4v.17h10v4.11Z"/><path class="b" d="M84.27,132.66v23.81h-5v-19H79.1l-5.46,3.42V136.4l5.9-3.74Z"/><path class="b" d="M1453.67,97.35a23,23,0,0,1-2.45,11,17.05,17.05,0,0,1-6.66,7,20,20,0,0,1-19,0,17.06,17.06,0,0,1-6.65-7,23,23,0,0,1-2.44-11,23.1,23.1,0,0,1,2.44-11,17.09,17.09,0,0,1,6.65-7,20,20,0,0,1,19,0,17.11,17.11,0,0,1,6.66,7A23,23,0,0,1,1453.67,97.35Zm-8.5,0a17.94,17.94,0,0,0-1.25-7.1,9.69,9.69,0,0,0-3.52-4.37,10.15,10.15,0,0,0-10.62,0,9.61,9.61,0,0,0-3.51,4.37,17.77,17.77,0,0,0-1.25,7.1,17.75,17.75,0,0,0,1.25,7.09,9.69,9.69,0,0,0,3.51,4.38,10.21,10.21,0,0,0,10.62,0,9.77,9.77,0,0,0,3.52-4.38A17.92,17.92,0,0,0,1445.17,97.35Zm-13,6h7.14l3.58,4.61,3.53,4.11,6.64,8.33h-7.83l-4.57-5.62-2.34-3.33Z"/><path class="b" d="M1474.35,117.73a18.82,18.82,0,0,1-7.72-1.5,13,13,0,0,1-5.33-4.15,10.33,10.33,0,0,1-2-6.11h8.45a4.31,4.31,0,0,0,1,2.55,5.72,5.72,0,0,0,2.35,1.69,8.77,8.77,0,0,0,3.32.6,7.89,7.89,0,0,0,3.39-.68,5.44,5.44,0,0,0,2.3-1.88,4.7,4.7,0,0,0,.84-2.77,4.77,4.77,0,0,0-.88-2.82,5.78,5.78,0,0,0-2.52-1.92,9.83,9.83,0,0,0-3.89-.7h-3.7V93.88h3.7a8.06,8.06,0,0,0,3.36-.66,5.37,5.37,0,0,0,2.28-1.83,4.71,4.71,0,0,0,.81-2.74,4.88,4.88,0,0,0-.7-2.63,4.79,4.79,0,0,0-2-1.77,6.44,6.44,0,0,0-3-.64,7.72,7.72,0,0,0-3.12.61A5.43,5.43,0,0,0,1469,86a4.55,4.55,0,0,0-.91,2.64h-8a10.4,10.4,0,0,1,2-6,12.87,12.87,0,0,1,5.13-4.1,17.39,17.39,0,0,1,7.29-1.48,16.37,16.37,0,0,1,7.19,1.49,12,12,0,0,1,4.8,4,9.75,9.75,0,0,1,1.69,5.67,7.71,7.71,0,0,1-2.06,5.56,9.44,9.44,0,0,1-5.42,2.83v.31a10.68,10.68,0,0,1,6.68,3,8.69,8.69,0,0,1,2.28,6.18,9.73,9.73,0,0,1-1.95,6,13.18,13.18,0,0,1-5.42,4.15A19.46,19.46,0,0,1,1474.35,117.73Z"/><path class="b" d="M1415.13,156.47v-3.62l8.48-7.85c.72-.7,1.33-1.33,1.82-1.88a7.41,7.41,0,0,0,1.12-1.65,4.11,4.11,0,0,0,.38-1.75,3.41,3.41,0,0,0-.47-1.81,3.16,3.16,0,0,0-1.31-1.17,4.05,4.05,0,0,0-1.87-.41,3.84,3.84,0,0,0-1.9.44,3,3,0,0,0-1.26,1.26,4.18,4.18,0,0,0-.44,2h-4.78a7.56,7.56,0,0,1,1.06-4.06,7,7,0,0,1,3-2.66,9.79,9.79,0,0,1,4.4-.94,10.35,10.35,0,0,1,4.46.9,7.1,7.1,0,0,1,3,2.49,6.41,6.41,0,0,1,1.06,3.65,7,7,0,0,1-.53,2.67,11.47,11.47,0,0,1-1.87,2.91,43.41,43.41,0,0,1-3.81,3.83l-3.47,3.4v.17h10v4.11Z"/><path class="b" d="M1445.09,157a9,9,0,0,1-5.15-1.48,9.27,9.27,0,0,1-3.32-4.24,20,20,0,0,1,0-13.33,9.09,9.09,0,0,1,16.93,0,17,17,0,0,1,1.15,6.63,17.44,17.44,0,0,1-1.16,6.7,9.26,9.26,0,0,1-3.31,4.24A8.89,8.89,0,0,1,1445.09,157Zm0-4.18a3.67,3.67,0,0,0,3.27-2.06,12.27,12.27,0,0,0,1.21-6.17,16,16,0,0,0-.55-4.51,5.94,5.94,0,0,0-1.56-2.71,3.44,3.44,0,0,0-2.37-.9,3.66,3.66,0,0,0-3.25,2,12.11,12.11,0,0,0-1.24,6.09,16,16,0,0,0,.56,4.58,5.86,5.86,0,0,0,1.56,2.74A3.42,3.42,0,0,0,1445.09,152.82Z"/><path class="b" d="M1458.29,156.47v-3.62l8.47-7.85c.72-.7,1.33-1.33,1.82-1.88a7.09,7.09,0,0,0,1.12-1.65,4,4,0,0,0,.39-1.75,3.33,3.33,0,0,0-.48-1.81,3.13,3.13,0,0,0-1.3-1.17,4.08,4.08,0,0,0-1.87-.41,3.88,3.88,0,0,0-1.91.44,3.06,3.06,0,0,0-1.26,1.26,4.18,4.18,0,0,0-.44,2h-4.78a7.65,7.65,0,0,1,1.06-4.06,7.1,7.1,0,0,1,3-2.66,9.74,9.74,0,0,1,4.39-.94,10.32,10.32,0,0,1,4.46.9,7.13,7.13,0,0,1,3,2.49,6.49,6.49,0,0,1,1.06,3.65,7.18,7.18,0,0,1-.53,2.67,11.55,11.55,0,0,1-1.88,2.91,44.51,44.51,0,0,1-3.8,3.83l-3.48,3.4v.17h10v4.11Z"/><path class="b" d="M1489.27,132.66v23.81h-5v-19h-.14l-5.46,3.42V136.4l5.9-3.74Z"/></svg>