<svg id="Layer_1" data-name="Layer 1" xmlns="http://www.w3.org/2000/svg" viewBox="0 0 486.82 111.47">
  <defs>
    <style>
      .cls-1 {
        fill: #edbc83;
      }

      .cls-2 {
        fill: #fff;
      }
    </style>
  </defs>
  <path class="cls-1" d="M356,111.49a8.38,8.38,0,0,1-4.34-1.21,8.47,8.47,0,0,1-2.93-11.62l18.24-30.51a8.48,8.48,0,0,1,13.22-1.7l10.15,10,15.06-25.76a8.48,8.48,0,0,1,14-1L433.05,67l38.75-63a8.48,8.48,0,0,1,14.44,8.89L441.13,86.23a8.47,8.47,0,0,1-13.87.81L413.74,69.93,399.45,94.36a8.48,8.48,0,0,1-13.26,1.77L376,86.09l-12.72,21.27A8.5,8.5,0,0,1,356,111.49Z" transform="translate(-0.68 -0.02)"/>
  <g>
    <path class="cls-2" d="M.68,12.94H23.07L44.63,53.66h.92L67.11,12.94H89.5L55,74.06v33.42H35.16V74.06Z" transform="translate(-0.68 -0.02)"/>
    <path class="cls-2" d="M108.84,27.44a10.61,10.61,0,0,1-7.52-2.94,9.41,9.41,0,0,1,0-14,11.09,11.09,0,0,1,15,0,9.45,9.45,0,0,1,0,14A10.51,10.51,0,0,1,108.84,27.44Zm-9.92,80V36.58h19.66v70.9Z" transform="translate(-0.68 -0.02)"/>
    <path class="cls-2" d="M166.59,108.87q-10.93,0-18.81-4.45a30.13,30.13,0,0,1-12.12-12.65q-4.24-8.2-4.25-19.42a41.47,41.47,0,0,1,4.25-19.2,31.38,31.38,0,0,1,12-12.88,34.76,34.76,0,0,1,18.17-4.62,37.61,37.61,0,0,1,13.09,2.24,29.42,29.42,0,0,1,10.61,6.72,30.53,30.53,0,0,1,7.09,11.24,45,45,0,0,1,2.54,15.81v5.4H139.26V64.88h41.37a15.09,15.09,0,0,0-1.85-7.53,13.49,13.49,0,0,0-5.1-5.15,15,15,0,0,0-7.55-1.87,15.18,15.18,0,0,0-7.92,2.06,14.73,14.73,0,0,0-5.37,5.49,15.56,15.56,0,0,0-2,7.64V77.11a19.66,19.66,0,0,0,2,9.09,14,14,0,0,0,5.57,5.91,16.73,16.73,0,0,0,8.54,2.08,18.78,18.78,0,0,0,6-.92,12.54,12.54,0,0,0,4.66-2.77A12,12,0,0,0,180.53,86l18.19,1.2a24.85,24.85,0,0,1-5.65,11.43,28.39,28.39,0,0,1-11,7.57A41.31,41.31,0,0,1,166.59,108.87Z" transform="translate(-0.68 -0.02)"/>
    <path class="cls-2" d="M231.64,12.94v94.54H212V12.94Z" transform="translate(-0.68 -0.02)"/>
    <path class="cls-2" d="M273.46,108.64a26.53,26.53,0,0,1-14.61-4.18,28.44,28.44,0,0,1-10.34-12.32q-3.81-8.16-3.81-20,0-12.18,3.93-20.29a28.3,28.3,0,0,1,10.45-12.14,26.77,26.77,0,0,1,14.34-4,22,22,0,0,1,9.94,2,19.75,19.75,0,0,1,6.47,5,26.07,26.07,0,0,1,3.76,5.84h.6V12.94h19.62v94.54H294.42V96.13h-.83a25.21,25.21,0,0,1-3.9,5.84,19.88,19.88,0,0,1-6.51,4.78A22.59,22.59,0,0,1,273.46,108.64ZM279.69,93a12.6,12.6,0,0,0,8.06-2.61,16.52,16.52,0,0,0,5.08-7.32,31.27,31.27,0,0,0,1.78-11,31.16,31.16,0,0,0-1.76-11,15.77,15.77,0,0,0-5.08-7.2,12.93,12.93,0,0,0-8.08-2.54,12.79,12.79,0,0,0-8.17,2.63,16.19,16.19,0,0,0-5,7.3A31.31,31.31,0,0,0,264.78,72,31.84,31.84,0,0,0,266.51,83a16.4,16.4,0,0,0,5,7.38A12.57,12.57,0,0,0,279.69,93Z" transform="translate(-0.68 -0.02)"/>
  </g>
</svg>
